<?xml version="1.0" encoding="UTF-8"?>
<svg id="Layer_1" data-name="Layer 1" xmlns="http://www.w3.org/2000/svg" xmlns:xlink="http://www.w3.org/1999/xlink" viewBox="0 0 408.88 324.81">
  <defs>
    <style>
      .cls-1 {
        fill: url(#linear-gradient-2);
      }

      .cls-2 {
        fill: url(#linear-gradient-3);
      }

      .cls-3 {
        fill: url(#linear-gradient);
      }
    </style>
    <linearGradient id="linear-gradient" x1="283.72" y1="162.37" x2="408.88" y2="162.37" gradientUnits="userSpaceOnUse">
      <stop offset="0" stop-color="#8200ff"/>
      <stop offset=".19" stop-color="#8d00ff"/>
      <stop offset=".53" stop-color="#ab00ff"/>
      <stop offset=".98" stop-color="#dc00ff"/>
      <stop offset="1" stop-color="#df00ff"/>
    </linearGradient>
    <linearGradient id="linear-gradient-2" x1="166.87" y1="162.41" x2="242.09" y2="162.41" xlink:href="#linear-gradient"/>
    <linearGradient id="linear-gradient-3" x1="0" y1="162.38" x2="125.32" y2="162.38" xlink:href="#linear-gradient"/>
  </defs>
  <path class="cls-3" d="M408.88,165.59c-2.54,3.66-4.67,7.71-7.68,10.92-29.67,31.64-59.51,63.13-89.24,94.71-4.37,4.64-9.23,7.54-15.85,6.29-10.63-2.02-15.85-14.26-9.85-23.3,1.09-1.65,2.51-3.1,3.87-4.55,26.66-28.27,53.33-56.52,79.99-84.78,.71-.76,1.37-1.56,2.18-2.48-.9-1.02-1.65-1.92-2.45-2.77-26.76-28.35-53.51-56.72-80.3-85.04-3.93-4.15-6.62-8.68-5.61-14.64,.99-5.87,4.3-10.01,9.87-12.02,5.56-2.01,10.75-.98,15.28,2.88,1.11,.95,2.12,2.02,3.12,3.08,29.6,31.34,59.24,62.65,88.72,94.1,3.11,3.31,5.32,7.45,7.95,11.21v6.39Z"/>
  <path class="cls-1" d="M166.89,307c1.59-10.44,3.39-22.4,5.22-34.36,5.2-34.03,10.41-68.06,15.61-102.09,5.18-33.9,10.36-67.8,15.54-101.7,2.81-18.39,5.59-36.79,8.45-55.18,1.24-7.96,6.87-13.22,14.36-13.65,7.13-.4,13.59,3.87,15.4,10.75,.72,2.74,.79,5.85,.36,8.67-6.15,40.74-12.46,81.46-18.69,122.19-5.73,37.45-11.4,74.9-17.11,112.35-2.92,19.18-5.8,38.38-8.84,57.54-1.36,8.59-8.41,14.01-16.67,13.2-8.31-.82-13.98-7.52-13.63-17.73Z"/>
  <path class="cls-2" d="M36.5,162.41c22.93,24.29,45.47,48.18,68.02,72.06,5.48,5.8,11.04,11.52,16.41,17.43,4.27,4.71,5.62,10.23,3.18,16.26-2.35,5.82-6.84,9.06-13.08,9.6-5.45,.47-9.7-1.98-13.35-5.87-11.01-11.74-22.09-23.41-33.13-35.11-19.36-20.5-38.72-40.99-58.06-61.51-8.62-9.15-8.65-16.59-.08-25.67,30.38-32.22,60.81-64.39,91.17-96.63,4.81-5.11,10.44-7.4,17.23-5.17,5.92,1.95,9.39,6.35,10.29,12.55,.81,5.62-1.67,10-5.41,13.94-18.84,19.89-37.64,39.82-56.44,59.74-8.84,9.36-17.66,18.74-26.74,28.36Z"/>
</svg>