<?xml version="1.0" encoding="UTF-8"?>
<svg id="OBJECTS" xmlns="http://www.w3.org/2000/svg" viewBox="0 0 222.62 168.88">
  <defs>
    <style>
      .cls-1 {
        fill: #fff;
      }

      .cls-2 {
        fill: #efef26;
      }

      .cls-3 {
        fill: #002d4f;
      }

      .cls-4 {
        fill: #3382d1;
      }
    </style>
  </defs>
  <g>
    <path class="cls-3" d="M189.49,29.64H33.13c-6.28,0-11.38,5.11-11.38,11.38v106.08c0,6.28,5.11,11.38,11.38,11.38H189.49c6.28,0,11.38-5.11,11.38-11.38V41.02c0-6.28-5.11-11.38-11.38-11.38Zm.19,117.46c0,.1-.08,.19-.19,.19H33.13c-.1,0-.19-.08-.19-.19V41.02c0-.1,.08-.19,.19-.19H189.49c.1,0,.19,.08,.19,.19v106.08Z"/>
    <path class="cls-1" d="M189.68,147.09c0,.1-.08,.19-.19,.19H33.13c-.1,0-.19-.08-.19-.19V41.02c0-.1,.08-.19,.19-.19H189.49c.1,0,.19,.08,.19,.19v106.08Z"/>
    <path class="cls-3" d="M222.62,158.48H0s0,.02,0,.03c0,5.73,4.64,10.37,10.37,10.37H212.25c5.73,0,10.37-4.65,10.37-10.37,0,0,0-.02,0-.03Z"/>
    <path class="cls-1" d="M123.25,163.82h-23.87c-3.01,0-5.51-2.28-5.81-5.29l.99-.1c.25,2.5,2.32,4.39,4.82,4.39h23.87c2.5,0,4.57-1.89,4.82-4.39l.99,.1c-.3,3.02-2.8,5.29-5.81,5.29Z"/>
    <rect class="cls-1" x="32.94" y="157.98" width="156.74" height="1"/>
  </g>
  <g>
    <g>
      <rect class="cls-4" x="50.08" y="104.79" width="122.47" height="42.49"/>
      <rect class="cls-3" x="55.23" y="98.19" width="112.16" height="6.61"/>
      <circle class="cls-1" cx="66.64" cy="126.8" r="3.21"/>
      <path class="cls-3" d="M81.58,130.52c-2.05,0-3.71-1.67-3.71-3.71s1.67-3.71,3.71-3.71,3.71,1.67,3.71,3.71-1.67,3.71-3.71,3.71Zm0-6.43c-1.5,0-2.71,1.22-2.71,2.71s1.22,2.71,2.71,2.71,2.71-1.22,2.71-2.71-1.22-2.71-2.71-2.71Z"/>
      <g>
        <path class="cls-3" d="M162.05,120.11h-52.45v-5.35h52.45v5.35Zm-51.45-1h50.45v-3.35h-50.45v3.35Z"/>
        <path class="cls-3" d="M162.05,129.48h-52.45v-5.35h52.45v5.35Zm-51.45-1h50.45v-3.35h-50.45v3.35Z"/>
        <path class="cls-3" d="M162.05,138.84h-52.45v-5.35h52.45v5.35Zm-51.45-1h50.45v-3.35h-50.45v3.35Z"/>
      </g>
    </g>
    <g>
      <rect class="cls-4" x="50.08" y="55.7" width="122.47" height="42.49"/>
      <rect class="cls-3" x="55.23" y="49.09" width="112.16" height="6.61"/>
      <circle class="cls-1" cx="66.64" cy="77.71" r="3.21"/>
      <path class="cls-3" d="M81.58,81.42c-2.05,0-3.71-1.67-3.71-3.71s1.67-3.71,3.71-3.71,3.71,1.67,3.71,3.71-1.67,3.71-3.71,3.71Zm0-6.43c-1.5,0-2.71,1.22-2.71,2.71s1.22,2.71,2.71,2.71,2.71-1.22,2.71-2.71-1.22-2.71-2.71-2.71Z"/>
      <g>
        <path class="cls-3" d="M162.05,71.02h-52.45v-5.35h52.45v5.35Zm-51.45-1h50.45v-3.35h-50.45v3.35Z"/>
        <path class="cls-3" d="M162.05,80.38h-52.45v-5.35h52.45v5.35Zm-51.45-1h50.45v-3.35h-50.45v3.35Z"/>
        <path class="cls-3" d="M162.05,89.75h-52.45v-5.35h52.45v5.35Zm-51.45-1h50.45v-3.35h-50.45v3.35Z"/>
      </g>
    </g>
    <g>
      <rect class="cls-4" x="50.08" y="6.61" width="122.47" height="42.49"/>
      <rect class="cls-3" x="55.23" width="112.16" height="6.61"/>
      <path class="cls-1" d="M69.86,28.62c0,1.77-1.44,3.21-3.21,3.21s-3.21-1.44-3.21-3.21,1.44-3.21,3.21-3.21,3.21,1.44,3.21,3.21Z"/>
      <path class="cls-3" d="M81.58,32.33c-2.05,0-3.71-1.67-3.71-3.71s1.67-3.71,3.71-3.71,3.71,1.67,3.71,3.71-1.67,3.71-3.71,3.71Zm0-6.43c-1.5,0-2.71,1.22-2.71,2.71s1.22,2.71,2.71,2.71,2.71-1.22,2.71-2.71-1.22-2.71-2.71-2.71Z"/>
      <g>
        <path class="cls-3" d="M162.05,21.93h-52.45v-5.35h52.45v5.35Zm-51.45-1h50.45v-3.35h-50.45v3.35Z"/>
        <path class="cls-3" d="M162.05,31.29h-52.45v-5.35h52.45v5.35Zm-51.45-1h50.45v-3.35h-50.45v3.35Z"/>
        <path class="cls-3" d="M162.05,40.65h-52.45v-5.35h52.45v5.35Zm-51.45-1h50.45v-3.35h-50.45v3.35Z"/>
      </g>
    </g>
  </g>
  <rect class="cls-2" x="110.6" y="17.58" width="31.3" height="3.35"/>
  <rect class="cls-2" x="110.6" y="26.94" width="44.19" height="3.35"/>
  <rect class="cls-2" x="110.6" y="36.31" width="21.19" height="3.35"/>
  <rect class="cls-2" x="110.6" y="66.67" width="40.63" height="3.35"/>
  <rect class="cls-2" x="110.6" y="76.04" width="13.46" height="3.35"/>
  <rect class="cls-2" x="110.6" y="85.4" width="50.45" height="3.35"/>
  <rect class="cls-2" x="110.6" y="115.77" width="21.82" height="3.35"/>
  <rect class="cls-2" x="110.6" y="125.13" width="32.3" height="3.35"/>
  <rect class="cls-2" x="110.6" y="134.49" width="43.63" height="3.35"/>
</svg>