<?xml version="1.0" encoding="UTF-8"?>
<svg id="Layer_1" data-name="Layer 1" xmlns="http://www.w3.org/2000/svg" xmlns:xlink="http://www.w3.org/1999/xlink" viewBox="0 0 110.36 105.23">
  <defs>
    <style>
      .cls-1 {
        fill: #fccd6b;
      }

      .cls-2 {
        fill: url(#_Áåçûìÿííûé_ãðàäèåíò_4-4);
      }

      .cls-2, .cls-3, .cls-4, .cls-5, .cls-6, .cls-7, .cls-8, .cls-9, .cls-10, .cls-11 {
        opacity: .5;
      }

      .cls-3 {
        fill: url(#_Áåçûìÿííûé_ãðàäèåíò_4-2);
      }

      .cls-12 {
        fill: #42e8e4;
      }

      .cls-4 {
        fill: url(#_Áåçûìÿííûé_ãðàäèåíò_4-6);
      }

      .cls-5 {
        fill: url(#_Áåçûìÿííûé_ãðàäèåíò_4);
      }

      .cls-6, .cls-13, .cls-14, .cls-15 {
        fill: #5cfff7;
      }

      .cls-13 {
        opacity: .6;
      }

      .cls-7 {
        fill: url(#_Áåçûìÿííûé_ãðàäèåíò_4-3);
      }

      .cls-16 {
        fill: url(#_Áåçûìÿííûé_ãðàäèåíò_5);
      }

      .cls-17 {
        fill: url(#_Áåçûìÿííûé_ãðàäèåíò_5-2);
      }

      .cls-18 {
        fill: #332a91;
      }

      .cls-8 {
        fill: url(#_Áåçûìÿííûé_ãðàäèåíò_4-7);
      }

      .cls-9 {
        fill: #0d0444;
      }

      .cls-10 {
        fill: url(#_Áåçûìÿííûé_ãðàäèåíò_4-8);
      }

      .cls-11 {
        fill: url(#_Áåçûìÿííûé_ãðàäèåíò_4-5);
      }

      .cls-15 {
        opacity: .2;
      }
    </style>
    <linearGradient id="_Áåçûìÿííûé_ãðàäèåíò_4" data-name="Áåçûìÿííûé ãðàäèåíò 4" x1="-24.39" y1="76.41" x2="85.96" y2="76.41" gradientUnits="userSpaceOnUse">
      <stop offset="0" stop-color="#42e8e4"/>
      <stop offset=".11" stop-color="#3cc8d0"/>
      <stop offset=".35" stop-color="#2f86a7"/>
      <stop offset=".57" stop-color="#255186"/>
      <stop offset=".75" stop-color="#1e2b6e"/>
      <stop offset=".91" stop-color="#191460"/>
      <stop offset="1" stop-color="#180c5b"/>
    </linearGradient>
    <linearGradient id="_Áåçûìÿííûé_ãðàäèåíò_5" data-name="Áåçûìÿííûé ãðàäèåíò 5" x1="55.18" y1="76.4" x2="110.36" y2="76.4" gradientUnits="userSpaceOnUse">
      <stop offset="0" stop-color="#2c237c"/>
      <stop offset="1" stop-color="#180c5b"/>
    </linearGradient>
    <linearGradient id="_Áåçûìÿííûé_ãðàäèåíò_4-2" data-name="Áåçûìÿííûé ãðàäèåíò 4" x1="0" y1="64.22" x2="110.36" y2="64.22" xlink:href="#_Áåçûìÿííûé_ãðàäèåíò_4"/>
    <linearGradient id="_Áåçûìÿííûé_ãðàäèåíò_4-3" data-name="Áåçûìÿííûé ãðàäèåíò 4" x1="0" y1="64.22" x2="56.33" y2="64.22" xlink:href="#_Áåçûìÿííûé_ãðàäèåíò_4"/>
    <linearGradient id="_Áåçûìÿííûé_ãðàäèåíò_4-4" data-name="Áåçûìÿííûé ãðàäèåíò 4" x1="15.01" y1="96.33" x2="107.38" y2="35.95" xlink:href="#_Áåçûìÿííûé_ãðàäèåíò_4"/>
    <linearGradient id="_Áåçûìÿííûé_ãðàäèåíò_4-5" data-name="Áåçûìÿííûé ãðàäèåíò 4" y1="44.05" y2="44.05" xlink:href="#_Áåçûìÿííûé_ãðàäèåíò_4"/>
    <linearGradient id="_Áåçûìÿííûé_ãðàäèåíò_5-2" data-name="Áåçûìÿííûé ãðàäèåíò 5" y1="44.05" y2="44.05" xlink:href="#_Áåçûìÿííûé_ãðàäèåíò_5"/>
    <linearGradient id="_Áåçûìÿííûé_ãðàäèåíò_4-6" data-name="Áåçûìÿííûé ãðàäèåíò 4" x1="0" y1="31.86" x2="110.36" y2="31.86" xlink:href="#_Áåçûìÿííûé_ãðàäèåíò_4"/>
    <linearGradient id="_Áåçûìÿííûé_ãðàäèåíò_4-7" data-name="Áåçûìÿííûé ãðàäèåíò 4" x1="0" y1="31.86" x2="56.33" y2="31.86" xlink:href="#_Áåçûìÿííûé_ãðàäèåíò_4"/>
    <linearGradient id="_Áåçûìÿííûé_ãðàäèåíò_4-8" data-name="Áåçûìÿííûé ãðàäèåíò 4" x1="15.01" y1="63.97" x2="107.38" y2="3.59" xlink:href="#_Áåçûìÿííûé_ãðàäèåíò_4"/>
  </defs>
  <g>
    <path class="cls-18" d="M110.35,72.88v-8.66h-22.35l-26.43-15.26c-3.53-2.04-9.69-1.78-13.76,.57l-25.44,14.69H0v9.16H.02c-.1,1.38,.67,2.71,2.36,3.69l46.42,26.8c3.53,2.04,9.69,1.78,13.76-.57l44.44-25.66c2.35-1.36,3.48-3.11,3.35-4.75Z"/>
    <path class="cls-5" d="M110.35,72.88v-8.66h-22.35l-26.43-15.26c-3.53-2.04-9.69-1.78-13.76,.57l-25.44,14.69H0v9.16H.02c-.1,1.38,.67,2.71,2.36,3.69l46.42,26.8c3.53,2.04,9.69,1.78,13.76-.57l44.44-25.66c2.35-1.36,3.48-3.11,3.35-4.75Z"/>
    <path class="cls-16" d="M61.57,48.96c-1.7-.98-4-1.42-6.39-1.36v57.63c2.58-.06,5.26-.71,7.38-1.93l44.44-25.66c2.35-1.36,3.48-3.11,3.35-4.75v-8.66h-22.35l-26.43-15.26Z"/>
    <path class="cls-18" d="M48.8,94.7L2.38,67.9c-3.53-2.04-3.08-5.59,.99-7.94l44.44-25.66c4.07-2.35,10.23-2.61,13.76-.57l46.42,26.8c3.53,2.04,3.08,5.59-.99,7.94l-44.44,25.66c-4.07,2.35-10.23,2.61-13.76,.57Z"/>
    <path class="cls-3" d="M48.8,94.7L2.38,67.9c-3.53-2.04-3.08-5.59,.99-7.94l44.44-25.66c4.07-2.35,10.23-2.61,13.76-.57l46.42,26.8c3.53,2.04,3.08,5.59-.99,7.94l-44.44,25.66c-4.07,2.35-10.23,2.61-13.76,.57Z"/>
    <path class="cls-14" d="M50.04,88.78L12.64,67.19c-2.84-1.64-2.49-4.51,.8-6.4l35.8-20.67c3.28-1.89,8.24-2.1,11.09-.46l37.4,21.59c2.84,1.64,2.49,4.51-.8,6.4l-35.8,20.67c-3.28,1.89-8.24,2.1-11.09,.46Z"/>
    <path class="cls-12" d="M13.44,63.59l35.8-20.67c3.28-1.89,8.24-2.1,11.09-.46l37.4,21.59c.7,.41,1.21,.89,1.52,1.41,.82-1.52,.35-3.13-1.52-4.21l-37.4-21.59c-2.84-1.64-7.81-1.43-11.09,.46L13.44,60.79c-2.47,1.43-3.28,3.4-2.32,4.99,.43-.79,1.2-1.55,2.32-2.19Z"/>
    <path class="cls-7" d="M50.36,94.7L3.94,67.9c-3.53-2.04-4.37-5.03,.99-7.94l44.44-25.66c2-1.16,4.51-1.8,6.96-1.92-2.92-.13-6.09,.52-8.52,1.92L3.37,59.96c-4.07,2.35-4.51,5.91-.99,7.94l46.42,26.8c1.79,1.03,4.27,1.47,6.8,1.35-1.97-.09-3.82-.53-5.24-1.35Z"/>
    <path class="cls-2" d="M106.99,72.34l-44.44,25.66c-4.07,2.35-10.23,2.61-13.76,.57L2.38,71.77c-1.69-.98-2.46-2.31-2.36-3.69h-.02v1.9H.02c-.1,1.38,.67,2.71,2.36,3.69l46.42,26.8c3.53,2.04,9.69,1.78,13.76-.57l44.44-25.66c2.35-1.36,3.48-3.11,3.35-4.75v-1.9c.13,1.64-1,3.39-3.35,4.75Z"/>
    <g>
      <path class="cls-1" d="M98.94,69.82c.51,.29,.51,.77,0,1.06-.51,.29-1.33,.29-1.83,0-.51-.29-.51-.77,0-1.06,.51-.29,1.33-.29,1.83,0Z"/>
      <path class="cls-1" d="M101.79,68.17c.51,.29,.51,.77,0,1.06-.51,.29-1.33,.29-1.83,0-.51-.29-.51-.77,0-1.06,.51-.29,1.33-.29,1.83,0Z"/>
      <path class="cls-1" d="M104.65,66.52c.51,.29,.51,.77,0,1.06-.51,.29-1.33,.29-1.83,0-.51-.29-.51-.77,0-1.06,.51-.29,1.33-.29,1.83,0Z"/>
    </g>
  </g>
  <g>
    <path class="cls-9" d="M51.15,84.55l-29.34-16.94c-2.23-1.29-1.95-3.53,.62-5.02l28.09-16.22c2.57-1.49,6.47-1.65,8.7-.36l29.34,16.94c2.23,1.29,1.95,3.53-.62,5.02l-28.09,16.22c-2.57,1.49-6.47,1.65-8.7,.36Z"/>
    <path class="cls-6" d="M110.35,65.22c.01-.16,.01-.33,0-.49v-24.2l-38.45,.17-10.33-5.96c-3.53-2.04-9.69-1.78-13.76,.57l-9.6,5.54-38.21,.17v24.2H.02c-.1,1.38,.67,2.71,2.36,3.69l46.42,26.8c3.53,2.04,9.69,1.78,13.76-.57l44.44-25.66c2.12-1.22,3.24-2.77,3.35-4.26h0Z"/>
    <path class="cls-18" d="M110.35,40.52v-8.66h-22.35l-26.43-15.26c-3.53-2.04-9.69-1.78-13.76,.57l-25.44,14.69H0v9.16H.02c-.1,1.38,.67,2.71,2.36,3.69l46.42,26.8c3.53,2.04,9.69,1.78,13.76-.57l44.44-25.66c2.35-1.36,3.48-3.11,3.35-4.75Z"/>
    <path class="cls-11" d="M110.35,40.52v-8.66h-22.35l-26.43-15.26c-3.53-2.04-9.69-1.78-13.76,.57l-25.44,14.69H0v9.16H.02c-.1,1.38,.67,2.71,2.36,3.69l46.42,26.8c3.53,2.04,9.69,1.78,13.76-.57l44.44-25.66c2.35-1.36,3.48-3.11,3.35-4.75Z"/>
    <path class="cls-17" d="M61.57,16.6c-1.7-.98-4-1.42-6.39-1.36v57.63c2.58-.06,5.26-.71,7.38-1.93l44.44-25.66c2.35-1.36,3.48-3.11,3.35-4.75v-8.66h-22.35l-26.43-15.26Z"/>
    <path class="cls-18" d="M48.8,62.34L2.38,35.55c-3.53-2.04-3.08-5.59,.99-7.94L47.81,1.95c4.07-2.35,10.23-2.61,13.76-.57l46.42,26.8c3.53,2.04,3.08,5.59-.99,7.94l-44.44,25.66c-4.07,2.35-10.23,2.61-13.76,.57Z"/>
    <path class="cls-4" d="M48.8,62.34L2.38,35.55c-3.53-2.04-3.08-5.59,.99-7.94L47.81,1.95c4.07-2.35,10.23-2.61,13.76-.57l46.42,26.8c3.53,2.04,3.08,5.59-.99,7.94l-44.44,25.66c-4.07,2.35-10.23,2.61-13.76,.57Z"/>
    <path class="cls-8" d="M50.36,62.34L3.94,35.55c-3.53-2.04-4.37-5.03,.99-7.94L49.37,1.95C51.37,.79,53.88,.14,56.33,.02c-2.92-.13-6.09,.52-8.52,1.92L3.37,27.6c-4.07,2.35-4.51,5.91-.99,7.94l46.42,26.8c1.79,1.03,4.27,1.47,6.8,1.35-1.97-.09-3.82-.53-5.24-1.35Z"/>
    <path class="cls-10" d="M106.99,39.99l-44.44,25.66c-4.07,2.35-10.23,2.61-13.76,.57L2.38,39.42c-1.69-.98-2.46-2.31-2.36-3.69h-.02v1.9H.02c-.1,1.38,.67,2.71,2.36,3.69l46.42,26.8c3.53,2.04,9.69,1.78,13.76-.57l44.44-25.66c2.35-1.36,3.48-3.11,3.35-4.75v-1.9c.13,1.64-1,3.39-3.35,4.75Z"/>
  </g>
  <g>
    <path class="cls-15" d="M51.49,33.8c.96,.56,.96,1.46,0,2.02s-2.53,.56-3.49,0c-.96-.56-.96-1.46,0-2.02s2.53-.56,3.49,0Z"/>
    <path class="cls-13" d="M56.93,30.66c.96,.56,.96,1.46,0,2.02s-2.53,.56-3.49,0c-.96-.56-.96-1.46,0-2.02s2.53-.56,3.49,0Z"/>
    <path class="cls-14" d="M62.36,27.52c.96,.56,.96,1.46,0,2.02s-2.53,.56-3.49,0c-.96-.56-.96-1.46,0-2.02,.96-.56,2.53-.56,3.49,0Z"/>
  </g>
  <path class="cls-9" d="M54.88,55.76c-1.72,0-3.37-.35-4.59-1.06L15.97,34.89c-1.25-.72-1.94-1.73-1.94-2.85,0-1.33,.97-2.65,2.67-3.62L49.55,9.44c3.1-1.79,7.83-1.98,10.52-.42l34.32,19.81c1.25,.72,1.94,1.73,1.94,2.85,0,1.33-.97,2.65-2.67,3.62l-32.86,18.97c-1.69,.98-3.87,1.48-5.93,1.48Zm-4.24-1.66c2.51,1.44,6.91,1.26,9.83-.42l32.86-18.97c1.47-.85,2.32-1.95,2.32-3.02,0-.86-.56-1.66-1.58-2.25L59.73,9.62c-2.51-1.45-6.92-1.26-9.82,.42L17.05,29.01c-1.47,.85-2.32,1.95-2.32,3.02,0,.86,.56,1.66,1.58,2.25l34.32,19.81Z"/>
</svg>