<?xml version="1.0" encoding="UTF-8"?>
<svg xmlns="http://www.w3.org/2000/svg" xmlns:xlink="http://www.w3.org/1999/xlink" viewBox="0 0 300.48 229.41">
  <defs>
    <style>
      .cls-1 {
        fill: #fccd6b;
      }

      .cls-2 {
        fill: url(#_Áåçûìÿííûé_ãðàäèåíò_4-4);
      }

      .cls-2, .cls-3, .cls-4, .cls-5, .cls-6, .cls-7, .cls-8, .cls-9, .cls-10, .cls-11, .cls-12, .cls-13, .cls-14, .cls-15, .cls-16, .cls-17, .cls-18, .cls-19, .cls-20, .cls-21, .cls-22, .cls-23, .cls-24, .cls-25, .cls-26, .cls-27 {
        opacity: .5;
      }

      .cls-28 {
        fill: url(#_Áåçûìÿííûé_ãðàäèåíò_2-11);
      }

      .cls-28, .cls-29, .cls-30, .cls-31, .cls-32, .cls-33, .cls-34, .cls-35, .cls-36, .cls-37, .cls-38 {
        mix-blend-mode: lighten;
      }

      .cls-3 {
        fill: url(#_Áåçûìÿííûé_ãðàäèåíò_4-21);
      }

      .cls-4 {
        fill: url(#_Áåçûìÿííûé_ãðàäèåíò_4-18);
      }

      .cls-39 {
        fill: url(#_Áåçûìÿííûé_ãðàäèåíò_5-5);
      }

      .cls-40 {
        fill: url(#_Áåçûìÿííûé_ãðàäèåíò_5-4);
      }

      .cls-5 {
        fill: url(#_Áåçûìÿííûé_ãðàäèåíò_4-2);
      }

      .cls-6 {
        fill: url(#_Áåçûìÿííûé_ãðàäèåíò_4-19);
      }

      .cls-29 {
        fill: url(#_Áåçûìÿííûé_ãðàäèåíò_2-3);
      }

      .cls-41 {
        isolation: isolate;
      }

      .cls-7 {
        fill: url(#_Áåçûìÿííûé_ãðàäèåíò_4-22);
      }

      .cls-42 {
        fill: #42e8e4;
      }

      .cls-43 {
        fill: #6ee4fc;
      }

      .cls-8 {
        fill: url(#_Áåçûìÿííûé_ãðàäèåíò_4-14);
      }

      .cls-44 {
        fill: #27e2d8;
      }

      .cls-30 {
        fill: url(#_Áåçûìÿííûé_ãðàäèåíò_2-2);
      }

      .cls-9 {
        fill: url(#_Áåçûìÿííûé_ãðàäèåíò_4-6);
      }

      .cls-10 {
        fill: url(#_Áåçûìÿííûé_ãðàäèåíò_4);
      }

      .cls-11 {
        fill: url(#_Áåçûìÿííûé_ãðàäèåíò_4-13);
      }

      .cls-12 {
        fill: url(#_Áåçûìÿííûé_ãðàäèåíò_4-20);
      }

      .cls-13 {
        fill: url(#_Áåçûìÿííûé_ãðàäèåíò_4-15);
      }

      .cls-14 {
        fill: url(#_Áåçûìÿííûé_ãðàäèåíò_4-12);
      }

      .cls-15, .cls-45, .cls-46, .cls-47 {
        fill: #5cfff7;
      }

      .cls-16 {
        fill: url(#_Áåçûìÿííûé_ãðàäèåíò_4-17);
      }

      .cls-17 {
        fill: url(#_Áåçûìÿííûé_ãðàäèåíò_4-23);
      }

      .cls-31 {
        fill: url(#_Áåçûìÿííûé_ãðàäèåíò_2-8);
      }

      .cls-32 {
        fill: url(#_Áåçûìÿííûé_ãðàäèåíò_2-10);
      }

      .cls-18 {
        fill: url(#_Áåçûìÿííûé_ãðàäèåíò_4-9);
      }

      .cls-45 {
        opacity: .6;
      }

      .cls-33 {
        fill: url(#_Áåçûìÿííûé_ãðàäèåíò_2-5);
      }

      .cls-34 {
        fill: url(#_Áåçûìÿííûé_ãðàäèåíò_2-6);
        opacity: .3;
      }

      .cls-48 {
        fill: url(#_Áåçûìÿííûé_ãðàäèåíò_5-3);
      }

      .cls-19 {
        fill: url(#_Áåçûìÿííûé_ãðàäèåíò_4-24);
      }

      .cls-20 {
        fill: url(#_Áåçûìÿííûé_ãðàäèåíò_4-3);
      }

      .cls-49 {
        fill: url(#_Áåçûìÿííûé_ãðàäèåíò_5-6);
      }

      .cls-21 {
        fill: url(#_Áåçûìÿííûé_ãðàäèåíò_4-16);
      }

      .cls-50 {
        fill: url(#_Áåçûìÿííûé_ãðàäèåíò_5);
      }

      .cls-22 {
        fill: url(#_Áåçûìÿííûé_ãðàäèåíò_4-10);
      }

      .cls-35 {
        fill: url(#_Áåçûìÿííûé_ãðàäèåíò_2-9);
      }

      .cls-51 {
        fill: url(#_Áåçûìÿííûé_ãðàäèåíò_5-2);
      }

      .cls-52 {
        fill: #332a91;
      }

      .cls-36 {
        fill: url(#_Áåçûìÿííûé_ãðàäèåíò_2-7);
      }

      .cls-23 {
        fill: url(#_Áåçûìÿííûé_ãðàäèåíò_4-11);
      }

      .cls-24 {
        fill: url(#_Áåçûìÿííûé_ãðàäèåíò_4-7);
      }

      .cls-25 {
        fill: #0d0444;
      }

      .cls-26 {
        fill: url(#_Áåçûìÿííûé_ãðàäèåíò_4-8);
      }

      .cls-37 {
        fill: url(#_Áåçûìÿííûé_ãðàäèåíò_2);
      }

      .cls-38 {
        fill: url(#_Áåçûìÿííûé_ãðàäèåíò_2-4);
      }

      .cls-27 {
        fill: url(#_Áåçûìÿííûé_ãðàäèåíò_4-5);
      }

      .cls-47 {
        opacity: .2;
      }
    </style>
    <radialGradient id="_Áåçûìÿííûé_ãðàäèåíò_2" data-name="Áåçûìÿííûé ãðàäèåíò 2" cx="117.22" cy="70.63" fx="117.22" fy="70.63" r="10.07" gradientTransform="translate(84.27 -62.2) rotate(45)" gradientUnits="userSpaceOnUse">
      <stop offset="0" stop-color="#42e8e4"/>
      <stop offset=".02" stop-color="#3ed7d9"/>
      <stop offset=".1" stop-color="#35a8bc"/>
      <stop offset=".18" stop-color="#2d7ea2"/>
      <stop offset=".26" stop-color="#275a8c"/>
      <stop offset=".35" stop-color="#213e7a"/>
      <stop offset=".44" stop-color="#1d276c"/>
      <stop offset=".55" stop-color="#1a1862"/>
      <stop offset=".66" stop-color="#180e5c"/>
      <stop offset=".82" stop-color="#180c5b"/>
    </radialGradient>
    <radialGradient id="_Áåçûìÿííûé_ãðàäèåíò_2-2" data-name="Áåçûìÿííûé ãðàäèåíò 2" cx="15.69" cy="129.36" fx="15.69" fy="129.36" r="10.07" gradientTransform="translate(138.03 84.5) rotate(76.78)" xlink:href="#_Áåçûìÿííûé_ãðàäèåíò_2"/>
    <radialGradient id="_Áåçûìÿííûé_ãðàäèåíò_2-3" data-name="Áåçûìÿííûé ãðàäèåíò 2" cx="236.07" cy="183.99" fx="236.07" fy="183.99" r="10.07" gradientTransform="translate(199.24 -113.03) rotate(45)" xlink:href="#_Áåçûìÿííûé_ãðàäèåíò_2"/>
    <radialGradient id="_Áåçûìÿííûé_ãðàäèåíò_2-4" data-name="Áåçûìÿííûé ãðàäèåíò 2" cx="254.73" cy="172.99" fx="254.73" fy="172.99" r="10.07" gradientTransform="translate(364.57 -114.67) rotate(76.72)" xlink:href="#_Áåçûìÿííûé_ãðàäèåíò_2"/>
    <radialGradient id="_Áåçûìÿííûé_ãðàäèåíò_2-5" data-name="Áåçûìÿííûé ãðàäèåíò 2" cx="273.4" cy="162.16" fx="273.4" fy="162.16" r="10.07" gradientTransform="translate(368.41 -141.18) rotate(76.72)" xlink:href="#_Áåçûìÿííûé_ãðàäèåíò_2"/>
    <linearGradient id="_Áåçûìÿííûé_ãðàäèåíò_4" data-name="Áåçûìÿííûé ãðàäèåíò 4" x1="69.84" y1="77.41" x2="180.19" y2="77.41" gradientUnits="userSpaceOnUse">
      <stop offset="0" stop-color="#42e8e4"/>
      <stop offset=".11" stop-color="#3cc8d0"/>
      <stop offset=".35" stop-color="#2f86a7"/>
      <stop offset=".57" stop-color="#255186"/>
      <stop offset=".75" stop-color="#1e2b6e"/>
      <stop offset=".91" stop-color="#191460"/>
      <stop offset="1" stop-color="#180c5b"/>
    </linearGradient>
    <linearGradient id="_Áåçûìÿííûé_ãðàäèåíò_5" data-name="Áåçûìÿííûé ãðàäèåíò 5" x1="149.41" y1="77.4" x2="204.59" y2="77.4" gradientUnits="userSpaceOnUse">
      <stop offset="0" stop-color="#2c237c"/>
      <stop offset="1" stop-color="#180c5b"/>
    </linearGradient>
    <linearGradient id="_Áåçûìÿííûé_ãðàäèåíò_4-2" data-name="Áåçûìÿííûé ãðàäèåíò 4" x1="94.23" y1="65.22" x2="204.59" y2="65.22" xlink:href="#_Áåçûìÿííûé_ãðàäèåíò_4"/>
    <linearGradient id="_Áåçûìÿííûé_ãðàäèåíò_4-3" data-name="Áåçûìÿííûé ãðàäèåíò 4" x1="94.23" y1="65.22" x2="150.56" y2="65.22" xlink:href="#_Áåçûìÿííûé_ãðàäèåíò_4"/>
    <linearGradient id="_Áåçûìÿííûé_ãðàäèåíò_4-4" data-name="Áåçûìÿííûé ãðàäèåíò 4" x1="109.24" y1="97.33" x2="201.61" y2="36.95" xlink:href="#_Áåçûìÿííûé_ãðàäèåíò_4"/>
    <linearGradient id="_Áåçûìÿííûé_ãðàäèåíò_4-5" data-name="Áåçûìÿííûé ãðàäèåíò 4" x1="-6.35" y1="121.46" x2="104" y2="121.46" xlink:href="#_Áåçûìÿííûé_ãðàäèåíò_4"/>
    <linearGradient id="_Áåçûìÿííûé_ãðàäèåíò_5-2" data-name="Áåçûìÿííûé ãðàäèåíò 5" x1="73.22" y1="121.45" x2="128.39" y2="121.45" xlink:href="#_Áåçûìÿííûé_ãðàäèåíò_5"/>
    <linearGradient id="_Áåçûìÿííûé_ãðàäèåíò_4-6" data-name="Áåçûìÿííûé ãðàäèåíò 4" x1="18.04" y1="109.26" x2="128.4" y2="109.26" xlink:href="#_Áåçûìÿííûé_ãðàäèåíò_4"/>
    <linearGradient id="_Áåçûìÿííûé_ãðàäèåíò_4-7" data-name="Áåçûìÿííûé ãðàäèåíò 4" x1="18.04" y1="109.27" x2="74.37" y2="109.27" xlink:href="#_Áåçûìÿííûé_ãðàäèåíò_4"/>
    <linearGradient id="_Áåçûìÿííûé_ãðàäèåíò_4-8" data-name="Áåçûìÿííûé ãðàäèåíò 4" x1="33.05" y1="141.38" x2="125.42" y2="81" xlink:href="#_Áåçûìÿííûé_ãðàäèåíò_4"/>
    <linearGradient id="_Áåçûìÿííûé_ãðàäèåíò_4-9" data-name="Áåçûìÿííûé ãðàäèåíò 4" x1="146.03" y1="121.08" x2="256.38" y2="121.08" xlink:href="#_Áåçûìÿííûé_ãðàäèåíò_4"/>
    <linearGradient id="_Áåçûìÿííûé_ãðàäèåíò_5-3" data-name="Áåçûìÿííûé ãðàäèåíò 5" x1="225.6" y1="121.08" x2="280.78" y2="121.08" xlink:href="#_Áåçûìÿííûé_ãðàäèåíò_5"/>
    <linearGradient id="_Áåçûìÿííûé_ãðàäèåíò_4-10" data-name="Áåçûìÿííûé ãðàäèåíò 4" x1="170.42" y1="108.89" x2="280.79" y2="108.89" xlink:href="#_Áåçûìÿííûé_ãðàäèåíò_4"/>
    <linearGradient id="_Áåçûìÿííûé_ãðàäèåíò_4-11" data-name="Áåçûìÿííûé ãðàäèåíò 4" x1="170.42" y1="108.89" x2="226.75" y2="108.89" xlink:href="#_Áåçûìÿííûé_ãðàäèåíò_4"/>
    <linearGradient id="_Áåçûìÿííûé_ãðàäèåíò_4-12" data-name="Áåçûìÿííûé ãðàäèåíò 4" x1="185.43" y1="141.01" x2="277.81" y2="80.63" xlink:href="#_Áåçûìÿííûé_ãðàäèåíò_4"/>
    <linearGradient id="_Áåçûìÿííûé_ãðàäèåíò_4-13" data-name="Áåçûìÿííûé ãðàäèåíò 4" y1="44.05" y2="44.05" xlink:href="#_Áåçûìÿííûé_ãðàäèåíò_4"/>
    <linearGradient id="_Áåçûìÿííûé_ãðàäèåíò_5-4" data-name="Áåçûìÿííûé ãðàäèåíò 5" y1="44.05" y2="44.05" xlink:href="#_Áåçûìÿííûé_ãðàäèåíò_5"/>
    <linearGradient id="_Áåçûìÿííûé_ãðàäèåíò_4-14" data-name="Áåçûìÿííûé ãðàäèåíò 4" x1="94.23" y1="31.86" x2="204.59" y2="31.86" xlink:href="#_Áåçûìÿííûé_ãðàäèåíò_4"/>
    <linearGradient id="_Áåçûìÿííûé_ãðàäèåíò_4-15" data-name="Áåçûìÿííûé ãðàäèåíò 4" x1="94.23" y1="31.86" x2="150.56" y2="31.86" xlink:href="#_Áåçûìÿííûé_ãðàäèåíò_4"/>
    <linearGradient id="_Áåçûìÿííûé_ãðàäèåíò_4-16" data-name="Áåçûìÿííûé ãðàäèåíò 4" x1="109.24" y1="63.97" x2="201.61" y2="3.59" xlink:href="#_Áåçûìÿííûé_ãðàäèåíò_4"/>
    <linearGradient id="_Áåçûìÿííûé_ãðàäèåíò_4-17" data-name="Áåçûìÿííûé ãðàäèåíò 4" x1="-6.35" y1="88.1" x2="104" y2="88.1" xlink:href="#_Áåçûìÿííûé_ãðàäèåíò_4"/>
    <linearGradient id="_Áåçûìÿííûé_ãðàäèåíò_5-5" data-name="Áåçûìÿííûé ãðàäèåíò 5" x1="73.22" y1="88.1" x2="128.39" y2="88.1" xlink:href="#_Áåçûìÿííûé_ãðàäèåíò_5"/>
    <linearGradient id="_Áåçûìÿííûé_ãðàäèåíò_4-18" data-name="Áåçûìÿííûé ãðàäèåíò 4" x1="18.04" y1="75.91" x2="128.4" y2="75.91" xlink:href="#_Áåçûìÿííûé_ãðàäèåíò_4"/>
    <linearGradient id="_Áåçûìÿííûé_ãðàäèåíò_4-19" data-name="Áåçûìÿííûé ãðàäèåíò 4" x1="18.04" y1="75.91" x2="74.37" y2="75.91" xlink:href="#_Áåçûìÿííûé_ãðàäèåíò_4"/>
    <linearGradient id="_Áåçûìÿííûé_ãðàäèåíò_4-20" data-name="Áåçûìÿííûé ãðàäèåíò 4" x1="33.05" y1="108.02" x2="125.42" y2="47.64" xlink:href="#_Áåçûìÿííûé_ãðàäèåíò_4"/>
    <linearGradient id="_Áåçûìÿííûé_ãðàäèåíò_4-21" data-name="Áåçûìÿííûé ãðàäèåíò 4" x1="146.03" y1="87.73" x2="256.38" y2="87.73" xlink:href="#_Áåçûìÿííûé_ãðàäèåíò_4"/>
    <linearGradient id="_Áåçûìÿííûé_ãðàäèåíò_5-6" data-name="Áåçûìÿííûé ãðàäèåíò 5" x1="225.6" y1="87.72" x2="280.78" y2="87.72" xlink:href="#_Áåçûìÿííûé_ãðàäèåíò_5"/>
    <linearGradient id="_Áåçûìÿííûé_ãðàäèåíò_4-22" data-name="Áåçûìÿííûé ãðàäèåíò 4" x1="170.42" y1="75.54" x2="280.79" y2="75.54" xlink:href="#_Áåçûìÿííûé_ãðàäèåíò_4"/>
    <linearGradient id="_Áåçûìÿííûé_ãðàäèåíò_4-23" data-name="Áåçûìÿííûé ãðàäèåíò 4" x1="170.42" y1="75.54" x2="226.75" y2="75.54" xlink:href="#_Áåçûìÿííûé_ãðàäèåíò_4"/>
    <linearGradient id="_Áåçûìÿííûé_ãðàäèåíò_4-24" data-name="Áåçûìÿííûé ãðàäèåíò 4" x1="185.43" y1="107.65" x2="277.81" y2="47.27" xlink:href="#_Áåçûìÿííûé_ãðàäèåíò_4"/>
    <radialGradient id="_Áåçûìÿííûé_ãðàäèåíò_2-6" data-name="Áåçûìÿííûé ãðàäèåíò 2" cx="-1314.84" cy="228.31" fx="-1314.84" fy="228.31" r="30.73" gradientTransform="translate(1502.13 599.21) rotate(30) scale(1 .87) skewX(-26.56)" xlink:href="#_Áåçûìÿííûé_ãðàäèåíò_2"/>
    <radialGradient id="_Áåçûìÿííûé_ãðàäèåíò_2-7" data-name="Áåçûìÿííûé ãðàäèåíò 2" cx="210.82" cy="31.28" fx="210.82" fy="31.28" r="7.02" gradientTransform="matrix(1, 0, 0, 1, 0, 0)" xlink:href="#_Áåçûìÿííûé_ãðàäèåíò_2"/>
    <radialGradient id="_Áåçûìÿííûé_ãðàäèåíò_2-8" data-name="Áåçûìÿííûé ãðàäèåíò 2" cx="165.76" cy="57.35" fx="165.76" fy="57.35" r="7.02" gradientTransform="matrix(1, 0, 0, 1, 0, 0)" xlink:href="#_Áåçûìÿííûé_ãðàäèåíò_2"/>
    <radialGradient id="_Áåçûìÿííûé_ãðàäèåíò_2-9" data-name="Áåçûìÿííûé ãðàäèåíò 2" cx="258.85" cy="84.36" fx="258.85" fy="84.36" r="7.02" gradientTransform="matrix(1, 0, 0, 1, 0, 0)" xlink:href="#_Áåçûìÿííûé_ãðàäèåíò_2"/>
    <radialGradient id="_Áåçûìÿííûé_ãðàäèåíò_2-10" data-name="Áåçûìÿííûé ãðàäèåíò 2" cx="271.85" cy="76.69" fx="271.85" fy="76.69" r="7.02" gradientTransform="matrix(1, 0, 0, 1, 0, 0)" xlink:href="#_Áåçûìÿííûé_ãðàäèåíò_2"/>
    <radialGradient id="_Áåçûìÿííûé_ãðàäèåíò_2-11" data-name="Áåçûìÿííûé ãðàäèåíò 2" cx="284.86" cy="69.14" fx="284.86" fy="69.14" r="7.02" gradientTransform="matrix(1, 0, 0, 1, 0, 0)" xlink:href="#_Áåçûìÿííûé_ãðàäèåíò_2"/>
  </defs>
  <g class="cls-41">
    <g id="_Ñëîé_1" data-name="Ñëîé 1">
      <g>
        <path class="cls-43" d="M149.47,229.41c-4.28,0-8.37-.86-11.42-2.62L4.63,149.76c-2.98-1.72-4.63-4.12-4.63-6.74,0-3.16,2.37-6.33,6.5-8.72L136.17,59.44c7.76-4.48,19.54-4.96,26.27-1.08l133.42,77.03c2.98,1.72,4.63,4.12,4.63,6.74,0,3.15-2.37,6.33-6.5,8.72l-129.67,74.87c-4.24,2.45-9.68,3.7-14.85,3.7Zm-11.17-3.06c6.59,3.8,18.15,3.32,25.77-1.08l129.67-74.87c3.97-2.29,6.25-5.31,6.25-8.28,0-2.44-1.55-4.68-4.38-6.31L162.19,58.79c-6.59-3.81-18.15-3.32-25.77,1.08L6.75,134.73c-3.97,2.29-6.25,5.31-6.25,8.28,0,2.44,1.55,4.68,4.38,6.31l133.41,77.03Z"/>
        <g>
          <circle class="cls-37" cx="117.22" cy="70.63" r="10.07" transform="translate(-15.61 103.57) rotate(-45)"/>
          <circle class="cls-43" cx="117.22" cy="70.63" r="2.87"/>
        </g>
        <g>
          <circle class="cls-30" cx="15.69" cy="129.36" r="10.07" transform="translate(-113.84 115.04) rotate(-76.78)"/>
          <path class="cls-43" d="M18.56,129.36c0,1.59-1.29,2.87-2.87,2.87s-2.87-1.29-2.87-2.87,1.29-2.87,2.87-2.87,2.87,1.29,2.87,2.87Z"/>
        </g>
        <g>
          <circle class="cls-29" cx="236.07" cy="183.99" r="10.07" transform="translate(-60.96 220.81) rotate(-45)"/>
          <circle class="cls-43" cx="236.07" cy="183.99" r="2.87"/>
        </g>
        <g>
          <circle class="cls-38" cx="254.73" cy="172.99" r="10.07" transform="translate(27.84 381.16) rotate(-76.72)"/>
          <circle class="cls-43" cx="254.73" cy="172.99" r="2.87"/>
        </g>
        <g>
          <circle class="cls-33" cx="273.4" cy="162.16" r="10.07" transform="translate(52.76 390.99) rotate(-76.72)"/>
          <path class="cls-43" d="M276.27,162.16c0,1.59-1.29,2.87-2.87,2.87s-2.87-1.29-2.87-2.87,1.29-2.87,2.87-2.87,2.87,1.29,2.87,2.87Z"/>
        </g>
      </g>
      <g>
        <g>
          <g>
            <path class="cls-25" d="M143.65,126.16l-41.91-24.2c-3.18-1.84-2.78-5.05,.89-7.17l40.12-23.16c3.68-2.12,9.24-2.35,12.42-.51l41.91,24.2c3.18,1.84,2.78,5.05-.89,7.17l-40.12,23.16c-3.68,2.12-9.24,2.35-12.42,.51Z"/>
            <path class="cls-52" d="M204.58,73.88v-8.66h-22.35l-26.43-15.26c-3.53-2.04-9.69-1.78-13.76,.57l-25.44,14.69h-22.37v9.16h.02c-.1,1.38,.67,2.71,2.36,3.69l46.42,26.8c3.53,2.04,9.69,1.78,13.76-.57l44.44-25.66c2.35-1.36,3.48-3.11,3.35-4.75Z"/>
            <path class="cls-10" d="M204.58,73.88v-8.66h-22.35l-26.43-15.26c-3.53-2.04-9.69-1.78-13.76,.57l-25.44,14.69h-22.37v9.16h.02c-.1,1.38,.67,2.71,2.36,3.69l46.42,26.8c3.53,2.04,9.69,1.78,13.76-.57l44.44-25.66c2.35-1.36,3.48-3.11,3.35-4.75Z"/>
            <path class="cls-50" d="M155.8,49.96c-1.7-.98-4-1.42-6.39-1.36v57.63c2.58-.06,5.26-.71,7.38-1.93l44.44-25.66c2.35-1.36,3.48-3.11,3.35-4.75v-8.66h-22.35l-26.43-15.26Z"/>
            <path class="cls-52" d="M143.03,95.7l-46.42-26.8c-3.53-2.04-3.08-5.59,.99-7.94l44.44-25.66c4.07-2.35,10.23-2.61,13.76-.57l46.42,26.8c3.53,2.04,3.08,5.59-.99,7.94l-44.44,25.66c-4.07,2.35-10.23,2.61-13.76,.57Z"/>
            <path class="cls-5" d="M143.03,95.7l-46.42-26.8c-3.53-2.04-3.08-5.59,.99-7.94l44.44-25.66c4.07-2.35,10.23-2.61,13.76-.57l46.42,26.8c3.53,2.04,3.08,5.59-.99,7.94l-44.44,25.66c-4.07,2.35-10.23,2.61-13.76,.57Z"/>
            <path class="cls-46" d="M144.27,89.78l-37.4-21.59c-2.84-1.64-2.49-4.51,.8-6.4l35.8-20.67c3.28-1.89,8.24-2.1,11.09-.46l37.4,21.59c2.84,1.64,2.49,4.51-.8,6.4l-35.8,20.67c-3.28,1.89-8.24,2.1-11.09,.46Z"/>
            <path class="cls-42" d="M107.67,64.59l35.8-20.67c3.28-1.89,8.24-2.1,11.09-.46l37.4,21.59c.7,.41,1.21,.89,1.52,1.41,.82-1.52,.35-3.13-1.52-4.21l-37.4-21.59c-2.84-1.64-7.81-1.43-11.09,.46l-35.8,20.67c-2.47,1.43-3.28,3.4-2.32,4.99,.43-.79,1.2-1.55,2.32-2.19Z"/>
            <path class="cls-20" d="M144.59,95.7l-46.42-26.8c-3.53-2.04-4.37-5.03,.99-7.94l44.44-25.66c2-1.16,4.51-1.8,6.96-1.92-2.92-.13-6.09,.52-8.52,1.92l-44.44,25.66c-4.07,2.35-4.51,5.91-.99,7.94l46.42,26.8c1.79,1.03,4.27,1.47,6.8,1.35-1.97-.09-3.82-.53-5.24-1.35Z"/>
            <path class="cls-2" d="M201.22,73.34l-44.44,25.66c-4.07,2.35-10.23,2.61-13.76,.57l-46.42-26.8c-1.69-.98-2.46-2.31-2.36-3.69h-.02v1.9h.02c-.1,1.38,.67,2.71,2.36,3.69l46.42,26.8c3.53,2.04,9.69,1.78,13.76-.57l44.44-25.66c2.35-1.36,3.48-3.11,3.35-4.75v-1.9c.13,1.64-1,3.39-3.35,4.75Z"/>
            <g>
              <path class="cls-1" d="M193.17,70.82c.51,.29,.51,.77,0,1.06-.51,.29-1.33,.29-1.83,0-.51-.29-.51-.77,0-1.06,.51-.29,1.33-.29,1.83,0Z"/>
              <path class="cls-1" d="M196.02,69.17c.51,.29,.51,.77,0,1.06-.51,.29-1.33,.29-1.83,0-.51-.29-.51-.77,0-1.06,.51-.29,1.33-.29,1.83,0Z"/>
              <path class="cls-1" d="M198.88,67.52c.51,.29,.51,.77,0,1.06-.51,.29-1.33,.29-1.83,0-.51-.29-.51-.77,0-1.06,.51-.29,1.33-.29,1.83,0Z"/>
            </g>
          </g>
          <g>
            <path class="cls-25" d="M67.46,170.21l-41.91-24.2c-3.18-1.84-2.78-5.05,.89-7.17l40.12-23.16c3.68-2.12,9.24-2.35,12.42-.51l41.91,24.2c3.18,1.84,2.78,5.05-.89,7.17l-40.12,23.16c-3.68,2.12-9.24,2.35-12.42,.51Z"/>
            <path class="cls-52" d="M128.38,117.93v-8.66h-22.35l-26.43-15.26c-3.53-2.04-9.69-1.78-13.76,.57l-25.44,14.69H18.04v9.16h.02c-.1,1.38,.67,2.71,2.36,3.69l46.42,26.8c3.53,2.04,9.69,1.78,13.76-.57l44.44-25.66c2.35-1.36,3.48-3.11,3.35-4.75Z"/>
            <path class="cls-27" d="M128.38,117.93v-8.66h-22.35l-26.43-15.26c-3.53-2.04-9.69-1.78-13.76,.57l-25.44,14.69H18.04v9.16h.02c-.1,1.38,.67,2.71,2.36,3.69l46.42,26.8c3.53,2.04,9.69,1.78,13.76-.57l44.44-25.66c2.35-1.36,3.48-3.11,3.35-4.75Z"/>
            <path class="cls-51" d="M79.61,94.01c-1.7-.98-4-1.42-6.39-1.36v57.63c2.58-.06,5.26-.71,7.38-1.93l44.44-25.66c2.35-1.36,3.48-3.11,3.35-4.75v-8.66h-22.35l-26.43-15.26Z"/>
            <path class="cls-52" d="M66.84,139.75l-46.42-26.8c-3.53-2.04-3.08-5.59,.99-7.94l44.44-25.66c4.07-2.35,10.23-2.61,13.76-.57l46.42,26.8c3.53,2.04,3.08,5.59-.99,7.94l-44.44,25.66c-4.07,2.35-10.23,2.61-13.76,.57Z"/>
            <path class="cls-9" d="M66.84,139.75l-46.42-26.8c-3.53-2.04-3.08-5.59,.99-7.94l44.44-25.66c4.07-2.35,10.23-2.61,13.76-.57l46.42,26.8c3.53,2.04,3.08,5.59-.99,7.94l-44.44,25.66c-4.07,2.35-10.23,2.61-13.76,.57Z"/>
            <path class="cls-46" d="M68.08,133.83l-37.4-21.59c-2.84-1.64-2.49-4.51,.8-6.4l35.8-20.67c3.28-1.89,8.24-2.1,11.09-.46l37.4,21.59c2.84,1.64,2.49,4.51-.8,6.4l-35.8,20.67c-3.28,1.89-8.24,2.1-11.09,.46Z"/>
            <path class="cls-42" d="M31.47,108.63l35.8-20.67c3.28-1.89,8.24-2.1,11.09-.46l37.4,21.59c.7,.41,1.21,.89,1.52,1.41,.82-1.52,.35-3.13-1.52-4.21l-37.4-21.59c-2.84-1.64-7.81-1.43-11.09,.46l-35.8,20.67c-2.47,1.43-3.28,3.4-2.32,4.99,.43-.79,1.2-1.55,2.32-2.19Z"/>
            <path class="cls-24" d="M68.39,139.75l-46.42-26.8c-3.53-2.04-4.37-5.03,.99-7.94l44.44-25.66c2-1.16,4.51-1.8,6.96-1.92-2.92-.13-6.09,.52-8.52,1.92l-44.44,25.66c-4.07,2.35-4.51,5.91-.99,7.94l46.42,26.8c1.79,1.03,4.27,1.47,6.8,1.35-1.97-.09-3.82-.53-5.24-1.35Z"/>
            <path class="cls-26" d="M125.03,117.39l-44.44,25.66c-4.07,2.35-10.23,2.61-13.76,.57l-46.42-26.8c-1.69-.98-2.46-2.31-2.36-3.69h-.02v1.9h.02c-.1,1.38,.67,2.71,2.36,3.69l46.42,26.8c3.53,2.04,9.69,1.78,13.76-.57l44.44-25.66c2.35-1.36,3.48-3.11,3.35-4.75v-1.9c.13,1.64-1,3.39-3.35,4.75Z"/>
            <g>
              <path class="cls-1" d="M116.97,114.86c.51,.29,.51,.77,0,1.06-.51,.29-1.33,.29-1.83,0-.51-.29-.51-.77,0-1.06,.51-.29,1.33-.29,1.83,0Z"/>
              <path class="cls-1" d="M119.83,113.22c.51,.29,.51,.77,0,1.06-.51,.29-1.33,.29-1.83,0-.51-.29-.51-.77,0-1.06,.51-.29,1.33-.29,1.83,0Z"/>
              <path class="cls-1" d="M122.69,111.57c.51,.29,.51,.77,0,1.06s-1.33,.29-1.83,0c-.51-.29-.51-.77,0-1.06,.51-.29,1.33-.29,1.83,0Z"/>
            </g>
          </g>
          <g>
            <path class="cls-25" d="M219.84,169.84l-41.91-24.2c-3.18-1.84-2.78-5.05,.89-7.17l40.12-23.16c3.68-2.12,9.24-2.35,12.42-.51l41.91,24.2c3.18,1.84,2.78,5.05-.89,7.17l-40.12,23.16c-3.68,2.12-9.24,2.35-12.42,.52Z"/>
            <path class="cls-52" d="M280.77,117.56v-8.66h-22.35l-26.43-15.26c-3.53-2.04-9.69-1.78-13.76,.57l-25.44,14.69h-22.37v9.16h.02c-.1,1.38,.67,2.71,2.36,3.69l46.42,26.8c3.53,2.04,9.69,1.78,13.76-.57l44.44-25.66c2.35-1.36,3.48-3.11,3.35-4.75Z"/>
            <path class="cls-18" d="M280.77,117.56v-8.66h-22.35l-26.43-15.26c-3.53-2.04-9.69-1.78-13.76,.57l-25.44,14.69h-22.37v9.16h.02c-.1,1.38,.67,2.71,2.36,3.69l46.42,26.8c3.53,2.04,9.69,1.78,13.76-.57l44.44-25.66c2.35-1.36,3.48-3.11,3.35-4.75Z"/>
            <path class="cls-48" d="M231.99,93.63c-1.7-.98-4-1.42-6.39-1.36v57.63c2.58-.06,5.26-.71,7.38-1.93l44.44-25.66c2.35-1.36,3.48-3.11,3.35-4.75v-8.66h-22.35l-26.43-15.26Z"/>
            <path class="cls-52" d="M219.22,139.38l-46.42-26.8c-3.53-2.04-3.08-5.59,.99-7.94l44.44-25.66c4.07-2.35,10.23-2.61,13.76-.57l46.42,26.8c3.53,2.04,3.08,5.59-.99,7.94l-44.44,25.66c-4.07,2.35-10.23,2.61-13.76,.57Z"/>
            <path class="cls-22" d="M219.22,139.38l-46.42-26.8c-3.53-2.04-3.08-5.59,.99-7.94l44.44-25.66c4.07-2.35,10.23-2.61,13.76-.57l46.42,26.8c3.53,2.04,3.08,5.59-.99,7.94l-44.44,25.66c-4.07,2.35-10.23,2.61-13.76,.57Z"/>
            <path class="cls-46" d="M220.46,133.45l-37.4-21.59c-2.84-1.64-2.49-4.51,.8-6.4l35.8-20.67c3.28-1.89,8.24-2.1,11.09-.46l37.4,21.59c2.84,1.64,2.49,4.51-.8,6.4l-35.8,20.67c-3.28,1.89-8.24,2.1-11.09,.46Z"/>
            <path class="cls-42" d="M183.86,108.26l35.8-20.67c3.28-1.89,8.24-2.1,11.09-.46l37.4,21.59c.7,.41,1.21,.89,1.52,1.41,.82-1.52,.35-3.13-1.52-4.21l-37.4-21.59c-2.84-1.64-7.81-1.43-11.09,.46l-35.8,20.67c-2.47,1.43-3.28,3.4-2.32,4.99,.43-.79,1.2-1.55,2.32-2.19Z"/>
            <path class="cls-23" d="M220.78,139.38l-46.42-26.8c-3.53-2.04-4.37-5.03,.99-7.94l44.44-25.66c2-1.16,4.51-1.8,6.96-1.92-2.92-.13-6.09,.52-8.52,1.92l-44.44,25.66c-4.07,2.35-4.51,5.91-.99,7.94l46.42,26.8c1.79,1.03,4.27,1.47,6.8,1.35-1.97-.09-3.82-.53-5.24-1.35Z"/>
            <path class="cls-14" d="M277.42,117.02l-44.44,25.66c-4.07,2.35-10.23,2.61-13.76,.57l-46.42-26.8c-1.69-.98-2.46-2.31-2.36-3.69h-.02v1.9h.02c-.1,1.38,.67,2.71,2.36,3.69l46.42,26.8c3.53,2.04,9.69,1.78,13.76-.57l44.44-25.66c2.35-1.36,3.48-3.11,3.35-4.75v-1.9c.13,1.64-1,3.39-3.35,4.75Z"/>
            <g>
              <path class="cls-1" d="M269.36,114.49c.51,.29,.51,.77,0,1.06-.51,.29-1.33,.29-1.83,0-.51-.29-.51-.77,0-1.06,.51-.29,1.33-.29,1.83,0Z"/>
              <path class="cls-1" d="M272.21,112.84c.51,.29,.51,.77,0,1.06-.51,.29-1.33,.29-1.83,0-.51-.29-.51-.77,0-1.06,.51-.29,1.33-.29,1.83,0Z"/>
              <path class="cls-1" d="M275.07,111.19c.51,.29,.51,.77,0,1.06-.51,.29-1.33,.29-1.83,0-.51-.29-.51-.77,0-1.06,.51-.29,1.33-.29,1.83,0Z"/>
            </g>
          </g>
          <g>
            <path class="cls-25" d="M145.38,84.55l-29.34-16.94c-2.23-1.29-1.95-3.53,.62-5.02l28.09-16.22c2.57-1.49,6.47-1.65,8.7-.36l29.34,16.94c2.23,1.29,1.95,3.53-.62,5.02l-28.09,16.22c-2.57,1.49-6.47,1.65-8.7,.36Z"/>
            <path class="cls-15" d="M204.58,65.2c.01-.16,.01-.33,0-.49v-24.2l-38.45,.17-10.33-5.96c-3.53-2.04-9.69-1.78-13.76,.57l-9.6,5.54-38.21,.17v24.2h.02c-.1,1.38,.67,2.71,2.36,3.69l46.42,26.8c3.53,2.04,9.69,1.78,13.76-.57l44.44-25.66c2.12-1.22,3.24-2.77,3.35-4.26h0Z"/>
            <path class="cls-52" d="M204.58,40.52v-8.66h-22.35l-26.43-15.26c-3.53-2.04-9.69-1.78-13.76,.57l-25.44,14.69h-22.37v9.16h.02c-.1,1.38,.67,2.71,2.36,3.69l46.42,26.8c3.53,2.04,9.69,1.78,13.76-.57l44.44-25.66c2.35-1.36,3.48-3.11,3.35-4.75Z"/>
            <path class="cls-11" d="M204.58,40.52v-8.66h-22.35l-26.43-15.26c-3.53-2.04-9.69-1.78-13.76,.57l-25.44,14.69h-22.37v9.16h.02c-.1,1.38,.67,2.71,2.36,3.69l46.42,26.8c3.53,2.04,9.69,1.78,13.76-.57l44.44-25.66c2.35-1.36,3.48-3.11,3.35-4.75Z"/>
            <path class="cls-40" d="M155.8,16.6c-1.7-.98-4-1.42-6.39-1.36v57.63c2.58-.06,5.26-.71,7.38-1.93l44.44-25.66c2.35-1.36,3.48-3.11,3.35-4.75v-8.66h-22.35l-26.43-15.26Z"/>
            <path class="cls-52" d="M143.03,62.34l-46.42-26.8c-3.53-2.04-3.08-5.59,.99-7.94L142.04,1.95c4.07-2.35,10.23-2.61,13.76-.57l46.42,26.8c3.53,2.04,3.08,5.59-.99,7.94l-44.44,25.66c-4.07,2.35-10.23,2.61-13.76,.57Z"/>
            <path class="cls-8" d="M143.03,62.34l-46.42-26.8c-3.53-2.04-3.08-5.59,.99-7.94L142.04,1.95c4.07-2.35,10.23-2.61,13.76-.57l46.42,26.8c3.53,2.04,3.08,5.59-.99,7.94l-44.44,25.66c-4.07,2.35-10.23,2.61-13.76,.57Z"/>
            <path class="cls-13" d="M144.59,62.34l-46.42-26.8c-3.53-2.04-4.37-5.03,.99-7.94L143.6,1.95c2-1.16,4.51-1.8,6.96-1.92-2.92-.13-6.09,.52-8.52,1.92l-44.44,25.66c-4.07,2.35-4.51,5.91-.99,7.94l46.42,26.8c1.79,1.03,4.27,1.47,6.8,1.35-1.97-.09-3.82-.53-5.24-1.35Z"/>
            <path class="cls-21" d="M201.22,39.99l-44.44,25.66c-4.07,2.35-10.23,2.61-13.76,.57l-46.42-26.8c-1.69-.98-2.46-2.31-2.36-3.69h-.02v1.9h.02c-.1,1.38,.67,2.71,2.36,3.69l46.42,26.8c3.53,2.04,9.69,1.78,13.76-.57l44.44-25.66c2.35-1.36,3.48-3.11,3.35-4.75v-1.9c.13,1.64-1,3.39-3.35,4.75Z"/>
          </g>
          <g>
            <path class="cls-25" d="M69.19,128.6l-29.34-16.94c-2.23-1.29-1.95-3.53,.62-5.02l28.09-16.22c2.57-1.49,6.47-1.65,8.7-.36l29.34,16.94c2.23,1.29,1.95,3.53-.62,5.02l-28.09,16.22c-2.57,1.49-6.47,1.65-8.7,.36Z"/>
            <path class="cls-15" d="M128.38,109.26c.01-.16,.01-.33,0-.49v-24.2l-38.45,.17-10.33-5.96c-3.53-2.04-9.69-1.78-13.76,.57l-9.6,5.54-38.21,.17v24.2h.02c-.1,1.38,.67,2.71,2.36,3.69l46.42,26.8c3.53,2.04,9.69,1.78,13.76-.57l44.44-25.66c2.12-1.22,3.24-2.77,3.35-4.26h0Z"/>
            <path class="cls-52" d="M128.38,84.57v-8.66h-22.35l-26.43-15.26c-3.53-2.04-9.69-1.78-13.76,.57l-25.44,14.69H18.04v9.16h.02c-.1,1.38,.67,2.71,2.36,3.69l46.42,26.8c3.53,2.04,9.69,1.78,13.76-.57l44.44-25.66c2.35-1.36,3.48-3.11,3.35-4.75Z"/>
            <path class="cls-16" d="M128.38,84.57v-8.66h-22.35l-26.43-15.26c-3.53-2.04-9.69-1.78-13.76,.57l-25.44,14.69H18.04v9.16h.02c-.1,1.38,.67,2.71,2.36,3.69l46.42,26.8c3.53,2.04,9.69,1.78,13.76-.57l44.44-25.66c2.35-1.36,3.48-3.11,3.35-4.75Z"/>
            <path class="cls-39" d="M79.61,60.65c-1.7-.98-4-1.42-6.39-1.36v57.63c2.58-.06,5.26-.71,7.38-1.93l44.44-25.66c2.35-1.36,3.48-3.11,3.35-4.75v-8.66h-22.35l-26.43-15.26Z"/>
            <path class="cls-52" d="M66.84,106.39l-46.42-26.8c-3.53-2.04-3.08-5.59,.99-7.94l44.44-25.66c4.07-2.35,10.23-2.61,13.76-.57l46.42,26.8c3.53,2.04,3.08,5.59-.99,7.94l-44.44,25.66c-4.07,2.35-10.23,2.61-13.76,.57Z"/>
            <path class="cls-4" d="M66.84,106.39l-46.42-26.8c-3.53-2.04-3.08-5.59,.99-7.94l44.44-25.66c4.07-2.35,10.23-2.61,13.76-.57l46.42,26.8c3.53,2.04,3.08,5.59-.99,7.94l-44.44,25.66c-4.07,2.35-10.23,2.61-13.76,.57Z"/>
            <path class="cls-46" d="M68.08,100.47l-37.4-21.59c-2.84-1.64-2.49-4.51,.8-6.4l35.8-20.67c3.28-1.89,8.24-2.1,11.09-.46l37.4,21.59c2.84,1.64,2.49,4.51-.8,6.4l-35.8,20.67c-3.28,1.89-8.24,2.1-11.09,.46Z"/>
            <path class="cls-42" d="M31.47,75.28l35.8-20.67c3.28-1.89,8.24-2.1,11.09-.46l37.4,21.59c.7,.41,1.21,.89,1.52,1.41,.82-1.52,.35-3.13-1.52-4.21l-37.4-21.59c-2.84-1.64-7.81-1.43-11.09,.46l-35.8,20.67c-2.47,1.43-3.28,3.4-2.32,4.99,.43-.79,1.2-1.55,2.32-2.19Z"/>
            <path class="cls-6" d="M68.39,106.39l-46.42-26.8c-3.53-2.04-4.37-5.03,.99-7.94l44.44-25.66c2-1.16,4.51-1.8,6.96-1.92-2.92-.13-6.09,.52-8.52,1.92l-44.44,25.66c-4.07,2.35-4.51,5.91-.99,7.94l46.42,26.8c1.79,1.03,4.27,1.47,6.8,1.35-1.97-.09-3.82-.53-5.24-1.35Z"/>
            <path class="cls-12" d="M125.03,84.03l-44.44,25.66c-4.07,2.35-10.23,2.61-13.76,.57l-46.42-26.8c-1.69-.98-2.46-2.31-2.36-3.69h-.02v1.9h.02c-.1,1.38,.67,2.71,2.36,3.69l46.42,26.8c3.53,2.04,9.69,1.78,13.76-.57l44.44-25.66c2.35-1.36,3.48-3.11,3.35-4.75v-1.9c.13,1.64-1,3.39-3.35,4.75Z"/>
            <g>
              <path class="cls-1" d="M116.97,81.51c.51,.29,.51,.77,0,1.06-.51,.29-1.33,.29-1.83,0-.51-.29-.51-.77,0-1.06,.51-.29,1.33-.29,1.83,0Z"/>
              <path class="cls-1" d="M119.83,79.86c.51,.29,.51,.77,0,1.06-.51,.29-1.33,.29-1.83,0-.51-.29-.51-.77,0-1.06,.51-.29,1.33-.29,1.83,0Z"/>
              <path class="cls-1" d="M122.69,78.21c.51,.29,.51,.77,0,1.06s-1.33,.29-1.83,0c-.51-.29-.51-.77,0-1.06,.51-.29,1.33-.29,1.83,0Z"/>
            </g>
          </g>
          <g>
            <path class="cls-25" d="M221.57,128.22l-29.34-16.94c-2.23-1.29-1.95-3.53,.62-5.02l28.09-16.22c2.57-1.49,6.47-1.65,8.7-.36l29.34,16.94c2.23,1.29,1.95,3.53-.62,5.02l-28.09,16.22c-2.57,1.49-6.47,1.65-8.7,.36Z"/>
            <path class="cls-15" d="M280.77,108.91c.01-.16,.01-.33,0-.49v-24.2l-38.45,.17-10.33-5.96c-3.53-2.04-9.69-1.78-13.76,.57l-9.6,5.54-38.21,.17v24.2h.02c-.1,1.38,.67,2.71,2.36,3.69l46.42,26.8c3.53,2.04,9.69,1.78,13.76-.57l44.44-25.66c2.12-1.22,3.24-2.77,3.35-4.26h0Z"/>
            <path class="cls-52" d="M280.77,84.2v-8.66h-22.35l-26.43-15.26c-3.53-2.04-9.69-1.78-13.76,.57l-25.44,14.69h-22.37v9.16h.02c-.1,1.38,.67,2.71,2.36,3.69l46.42,26.8c3.53,2.04,9.69,1.78,13.76-.57l44.44-25.66c2.35-1.36,3.48-3.11,3.35-4.75Z"/>
            <path class="cls-3" d="M280.77,84.2v-8.66h-22.35l-26.43-15.26c-3.53-2.04-9.69-1.78-13.76,.57l-25.44,14.69h-22.37v9.16h.02c-.1,1.38,.67,2.71,2.36,3.69l46.42,26.8c3.53,2.04,9.69,1.78,13.76-.57l44.44-25.66c2.35-1.36,3.48-3.11,3.35-4.75Z"/>
            <path class="cls-49" d="M231.99,60.28c-1.7-.98-4-1.42-6.39-1.36v57.63c2.58-.06,5.26-.71,7.38-1.93l44.44-25.66c2.35-1.36,3.48-3.11,3.35-4.75v-8.66h-22.35l-26.43-15.26Z"/>
            <path class="cls-52" d="M219.22,106.02l-46.42-26.8c-3.53-2.04-3.08-5.59,.99-7.94l44.44-25.66c4.07-2.35,10.23-2.61,13.76-.57l46.42,26.8c3.53,2.04,3.08,5.59-.99,7.94l-44.44,25.66c-4.07,2.35-10.23,2.61-13.76,.57Z"/>
            <path class="cls-7" d="M219.22,106.02l-46.42-26.8c-3.53-2.04-3.08-5.59,.99-7.94l44.44-25.66c4.07-2.35,10.23-2.61,13.76-.57l46.42,26.8c3.53,2.04,3.08,5.59-.99,7.94l-44.44,25.66c-4.07,2.35-10.23,2.61-13.76,.57Z"/>
            <path class="cls-17" d="M220.78,106.02l-46.42-26.8c-3.53-2.04-4.37-5.03,.99-7.94l44.44-25.66c2-1.16,4.51-1.8,6.96-1.92-2.92-.13-6.09,.52-8.52,1.92l-44.44,25.66c-4.07,2.35-4.51,5.91-.99,7.94l46.42,26.8c1.79,1.03,4.27,1.47,6.8,1.35-1.97-.09-3.82-.53-5.24-1.35Z"/>
            <path class="cls-19" d="M277.42,83.66l-44.44,25.66c-4.07,2.35-10.23,2.61-13.76,.57l-46.42-26.8c-1.69-.98-2.46-2.31-2.36-3.69h-.02v1.9h.02c-.1,1.38,.67,2.71,2.36,3.69l46.42,26.8c3.53,2.04,9.69,1.78,13.76-.57l44.44-25.66c2.35-1.36,3.48-3.11,3.35-4.75v-1.9c.13,1.64-1,3.39-3.35,4.75Z"/>
          </g>
          <path class="cls-25" d="M225.3,99.81c-1.72,0-3.37-.35-4.59-1.06l-34.32-19.81c-1.25-.72-1.94-1.73-1.94-2.85,0-1.33,.97-2.65,2.67-3.63l32.86-18.97c3.1-1.79,7.82-1.98,10.52-.42l34.32,19.81c1.25,.72,1.94,1.73,1.94,2.85,0,1.33-.97,2.65-2.67,3.62l-32.86,18.97c-1.69,.98-3.87,1.48-5.93,1.48Zm-4.24-1.66c2.51,1.45,6.92,1.26,9.83-.42l32.86-18.97c1.47-.85,2.32-1.95,2.32-3.02,0-.86-.56-1.66-1.58-2.25l-34.32-19.81c-2.51-1.45-6.91-1.26-9.82,.42l-32.86,18.97c-1.47,.85-2.32,1.95-2.32,3.02,0,.86,.56,1.66,1.58,2.25l34.32,19.81Z"/>
          <path class="cls-25" d="M149.11,55.91c-1.75,0-3.42-.35-4.67-1.07l-34.32-19.81c-1.3-.75-2.01-1.81-2.01-2.98,0-1.38,1-2.75,2.74-3.76l32.86-18.97c3.14-1.82,7.93-2.01,10.67-.42l34.32,19.81c1.3,.75,2.01,1.81,2.01,2.98,0,1.38-1,2.75-2.74,3.75l-32.86,18.97c-1.71,.99-3.91,1.5-6.01,1.5Zm-4.17-1.94c2.47,1.42,6.81,1.23,9.67-.42l32.86-18.97c1.42-.82,2.24-1.88,2.24-2.89,0-.8-.54-1.56-1.51-2.12l-34.32-19.81c-2.46-1.42-6.8-1.23-9.67,.42l-32.86,18.97c-1.42,.82-2.24,1.88-2.24,2.89,0,.8,.54,1.55,1.51,2.12l34.32,19.81Z"/>
          <path class="cls-25" d="M143.64,206.57l-41.91-24.2c-3.18-1.84-2.78-5.05,.89-7.17l40.12-23.16c3.68-2.12,9.24-2.35,12.42-.51l41.91,24.2c3.18,1.84,2.78,5.05-.89,7.17l-40.12,23.16c-3.68,2.12-9.24,2.35-12.42,.51Z"/>
        </g>
        <g>
          <polygon class="cls-44" points="99.52 79.63 68.51 61.72 70.74 60.44 101.74 78.34 99.52 79.63"/>
          <polygon class="cls-44" points="94.76 82.38 63.75 64.47 65.97 63.19 96.98 81.09 94.76 82.38"/>
          <polygon class="cls-44" points="89.99 85.13 58.99 67.22 61.21 65.94 92.22 83.84 89.99 85.13"/>
          <polygon class="cls-44" points="85.23 87.88 54.22 69.97 56.45 68.69 87.45 86.59 85.23 87.88"/>
          <polygon class="cls-44" points="80.47 90.62 49.46 72.72 51.69 71.44 82.69 89.34 80.47 90.62"/>
          <polygon class="cls-44" points="75.7 93.37 44.7 75.47 46.92 74.19 77.93 92.09 75.7 93.37"/>
        </g>
        <g>
          <path class="cls-47" d="M221.91,77.66c.96,.56,.96,1.46,0,2.02s-2.53,.56-3.49,0c-.96-.56-.96-1.46,0-2.02s2.53-.56,3.49,0Z"/>
          <path class="cls-45" d="M227.35,74.52c.96,.56,.96,1.46,0,2.02s-2.53,.56-3.49,0c-.96-.56-.96-1.46,0-2.02s2.53-.56,3.49,0Z"/>
          <path class="cls-46" d="M232.79,71.39c.96,.56,.96,1.46,0,2.02-.96,.56-2.53,.56-3.49,0-.96-.56-.96-1.46,0-2.02,.96-.56,2.53-.56,3.49,0Z"/>
        </g>
        <g>
          <path class="cls-47" d="M145.72,33.99c.96,.56,.96,1.46,0,2.02-.96,.56-2.53,.56-3.49,0-.96-.56-.96-1.46,0-2.02s2.53-.56,3.49,0Z"/>
          <path class="cls-45" d="M151.16,30.85c.96,.56,.96,1.46,0,2.02-.96,.56-2.53,.56-3.49,0-.96-.56-.96-1.46,0-2.02,.96-.56,2.53-.56,3.49,0Z"/>
          <path class="cls-46" d="M156.59,27.71c.96,.56,.96,1.46,0,2.02s-2.53,.56-3.49,0c-.96-.56-.96-1.46,0-2.02,.96-.56,2.53-.56,3.49,0Z"/>
        </g>
      </g>
      <g>
        <path class="cls-43" d="M225.13,101.82c-1.91,0-3.74-.39-5.1-1.17l-59.21-34.19c-1.35-.78-2.09-1.86-2.09-3.05,0-1.43,1.06-2.86,2.92-3.93l57.55-33.23c3.46-2,8.72-2.21,11.73-.48l59.21,34.19c1.35,.78,2.09,1.86,2.09,3.05,0,1.43-1.06,2.86-2.92,3.93l-57.55,33.23c-1.89,1.09-4.32,1.65-6.62,1.65Zm.69-76.86c-2.24,0-4.6,.54-6.45,1.61l-57.55,33.23c-1.74,1-2.74,2.32-2.74,3.62,0,1.06,.68,2.03,1.91,2.74l59.21,34.19c2.91,1.68,8.01,1.46,11.37-.48l57.55-33.23c1.74-1,2.74-2.32,2.74-3.62,0-1.06-.68-2.03-1.91-2.74l-59.21-34.19c-1.31-.76-3.08-1.13-4.92-1.13Z"/>
        <ellipse class="cls-34" cx="165.76" cy="55.94" rx="37.64" ry="21.73"/>
        <g>
          <circle class="cls-36" cx="210.82" cy="31.28" r="7.02"/>
          <path class="cls-43" d="M212.82,31.28c0,1.1-.9,2-2,2s-2-.9-2-2,.9-2,2-2,2,.9,2,2Z"/>
        </g>
        <g>
          <path class="cls-31" d="M172.77,57.35c0,3.88-3.14,7.02-7.02,7.02s-7.02-3.14-7.02-7.02,3.14-7.02,7.02-7.02,7.02,3.14,7.02,7.02Z"/>
          <path class="cls-43" d="M167.76,57.35c0,1.1-.9,2-2,2s-2-.9-2-2,.9-2,2-2,2,.9,2,2Z"/>
        </g>
        <g>
          <path class="cls-35" d="M265.86,84.36c0,3.88-3.14,7.02-7.02,7.02s-7.02-3.14-7.02-7.02,3.14-7.02,7.02-7.02,7.02,3.14,7.02,7.02Z"/>
          <path class="cls-43" d="M260.85,84.36c0,1.1-.9,2-2,2s-2-.9-2-2,.9-2,2-2,2,.9,2,2Z"/>
        </g>
        <g>
          <path class="cls-32" d="M278.87,76.69c0,3.88-3.14,7.02-7.02,7.02s-7.02-3.14-7.02-7.02,3.14-7.02,7.02-7.02,7.02,3.14,7.02,7.02Z"/>
          <path class="cls-43" d="M273.85,76.69c0,1.1-.9,2-2,2s-2-.9-2-2,.9-2,2-2,2,.9,2,2Z"/>
        </g>
        <g>
          <circle class="cls-28" cx="284.86" cy="69.14" r="7.02"/>
          <path class="cls-43" d="M286.86,69.14c0,1.1-.9,2-2,2s-2-.9-2-2,.9-2,2-2,2,.9,2,2Z"/>
        </g>
      </g>
    </g>
  </g>
</svg>