<?xml version="1.0" encoding="UTF-8"?>
<svg xmlns="http://www.w3.org/2000/svg" xmlns:xlink="http://www.w3.org/1999/xlink" viewBox="0 0 414.8 303.86">
  <defs>
    <style>
      .cls-1 {
        fill: url(#_Áåçûìÿííûé_ãðàäèåíò_107-12);
      }

      .cls-1, .cls-2, .cls-3, .cls-4, .cls-5, .cls-6, .cls-7, .cls-8, .cls-9, .cls-10, .cls-11, .cls-12, .cls-13, .cls-14, .cls-15, .cls-16, .cls-17, .cls-18, .cls-19, .cls-20, .cls-21, .cls-22, .cls-23, .cls-24, .cls-25, .cls-26, .cls-27, .cls-28, .cls-29, .cls-30, .cls-31, .cls-32, .cls-33, .cls-34 {
        opacity: .5;
      }

      .cls-2 {
        fill: url(#_Áåçûìÿííûé_ãðàäèåíò_107-10);
      }

      .cls-35 {
        fill: url(#_Áåçûìÿííûé_ãðàäèåíò_26-7);
      }

      .cls-35, .cls-36, .cls-37, .cls-38, .cls-39, .cls-40, .cls-41, .cls-42, .cls-43, .cls-44, .cls-45, .cls-46, .cls-47, .cls-48, .cls-49, .cls-50, .cls-51 {
        mix-blend-mode: lighten;
      }

      .cls-36 {
        fill: url(#_Áåçûìÿííûé_ãðàäèåíò_26-12);
      }

      .cls-52 {
        fill: url(#_Áåçûìÿííûé_ãðàäèåíò_59-7);
      }

      .cls-3 {
        fill: url(#_Áåçûìÿííûé_ãðàäèåíò_107-30);
      }

      .cls-4 {
        fill: url(#_Áåçûìÿííûé_ãðàäèåíò_107-25);
      }

      .cls-37 {
        fill: url(#_Áåçûìÿííûé_ãðàäèåíò_26-11);
      }

      .cls-37, .cls-38, .cls-40, .cls-43, .cls-45, .cls-47 {
        opacity: .3;
      }

      .cls-5 {
        fill: url(#_Áåçûìÿííûé_ãðàäèåíò_107-15);
      }

      .cls-38 {
        fill: url(#_Áåçûìÿííûé_ãðàäèåíò_26-3);
      }

      .cls-6 {
        fill: url(#_Áåçûìÿííûé_ãðàäèåíò_107-4);
      }

      .cls-7 {
        fill: #0b0244;
      }

      .cls-39 {
        fill: url(#_Áåçûìÿííûé_ãðàäèåíò_26-8);
      }

      .cls-8 {
        fill: url(#_Áåçûìÿííûé_ãðàäèåíò_107-31);
      }

      .cls-9 {
        fill: url(#_Áåçûìÿííûé_ãðàäèåíò_107-26);
      }

      .cls-10 {
        fill: url(#_Áåçûìÿííûé_ãðàäèåíò_107-2);
      }

      .cls-53 {
        isolation: isolate;
      }

      .cls-40 {
        fill: url(#_Áåçûìÿííûé_ãðàäèåíò_26);
      }

      .cls-11 {
        fill: url(#_Áåçûìÿííûé_ãðàäèåíò_107-19);
      }

      .cls-54, .cls-55, .cls-56, .cls-32 {
        fill: #5cfff3;
      }

      .cls-57 {
        fill: #6ee8fc;
      }

      .cls-41 {
        fill: url(#_Áåçûìÿííûé_ãðàäèåíò_26-6);
      }

      .cls-55 {
        opacity: .6;
      }

      .cls-58 {
        fill: url(#_Áåçûìÿííûé_ãðàäèåíò_59-2);
      }

      .cls-42 {
        fill: url(#_Áåçûìÿííûé_ãðàäèåíò_370);
        opacity: .4;
      }

      .cls-12 {
        fill: url(#_Áåçûìÿííûé_ãðàäèåíò_107-17);
      }

      .cls-43 {
        fill: url(#_Áåçûìÿííûé_ãðàäèåíò_26-10);
      }

      .cls-13 {
        fill: url(#_Áåçûìÿííûé_ãðàäèåíò_107-3);
      }

      .cls-14 {
        fill: url(#_Áåçûìÿííûé_ãðàäèåíò_107-16);
      }

      .cls-44 {
        fill: url(#_Áåçûìÿííûé_ãðàäèåíò_26-15);
      }

      .cls-59 {
        fill: url(#_Áåçûìÿííûé_ãðàäèåíò_59);
      }

      .cls-60 {
        fill: url(#_Áåçûìÿííûé_ãðàäèåíò_59-4);
      }

      .cls-15 {
        fill: url(#_Áåçûìÿííûé_ãðàäèåíò_107-14);
      }

      .cls-16 {
        fill: url(#_Áåçûìÿííûé_ãðàäèåíò_107-28);
      }

      .cls-61 {
        fill: url(#_Áåçûìÿííûé_ãðàäèåíò_59-8);
      }

      .cls-62 {
        fill: url(#_Áåçûìÿííûé_ãðàäèåíò_59-6);
      }

      .cls-45 {
        fill: url(#_Áåçûìÿííûé_ãðàäèåíò_26-2);
      }

      .cls-17 {
        fill: url(#_Áåçûìÿííûé_ãðàäèåíò_107-6);
      }

      .cls-18 {
        fill: url(#_Áåçûìÿííûé_ãðàäèåíò_107-32);
      }

      .cls-19 {
        fill: url(#_Áåçûìÿííûé_ãðàäèåíò_107-22);
      }

      .cls-20 {
        fill: url(#_Áåçûìÿííûé_ãðàäèåíò_107-24);
      }

      .cls-63 {
        fill: url(#_Áåçûìÿííûé_ãðàäèåíò_59-3);
      }

      .cls-21 {
        fill: url(#_Áåçûìÿííûé_ãðàäèåíò_107);
      }

      .cls-46 {
        fill: url(#_Áåçûìÿííûé_ãðàäèåíò_26-4);
      }

      .cls-22 {
        fill: url(#_Áåçûìÿííûé_ãðàäèåíò_107-29);
      }

      .cls-47 {
        fill: url(#_Áåçûìÿííûé_ãðàäèåíò_26-9);
      }

      .cls-48 {
        fill: url(#_Áåçûìÿííûé_ãðàäèåíò_26-13);
      }

      .cls-23 {
        fill: url(#_Áåçûìÿííûé_ãðàäèåíò_107-27);
      }

      .cls-24 {
        fill: url(#_Áåçûìÿííûé_ãðàäèåíò_107-8);
      }

      .cls-49 {
        fill: url(#_Áåçûìÿííûé_ãðàäèåíò_26-5);
      }

      .cls-25 {
        fill: url(#_Áåçûìÿííûé_ãðàäèåíò_107-5);
      }

      .cls-56 {
        opacity: .2;
      }

      .cls-26 {
        fill: url(#_Áåçûìÿííûé_ãðàäèåíò_107-21);
      }

      .cls-27 {
        fill: url(#_Áåçûìÿííûé_ãðàäèåíò_107-18);
      }

      .cls-64 {
        fill: #312a91;
      }

      .cls-28 {
        fill: url(#_Áåçûìÿííûé_ãðàäèåíò_107-13);
      }

      .cls-29 {
        fill: url(#_Áåçûìÿííûé_ãðàäèåíò_107-7);
      }

      .cls-65 {
        fill: #fccc6b;
      }

      .cls-66 {
        fill: #42e8e0;
      }

      .cls-30 {
        fill: url(#_Áåçûìÿííûé_ãðàäèåíò_107-20);
      }

      .cls-31 {
        fill: url(#_Áåçûìÿííûé_ãðàäèåíò_107-23);
      }

      .cls-50 {
        fill: url(#_Áåçûìÿííûé_ãðàäèåíò_26-16);
      }

      .cls-33 {
        fill: url(#_Áåçûìÿííûé_ãðàäèåíò_107-11);
      }

      .cls-51 {
        fill: url(#_Áåçûìÿííûé_ãðàäèåíò_26-14);
      }

      .cls-67 {
        fill: url(#_Áåçûìÿííûé_ãðàäèåíò_59-5);
      }

      .cls-34 {
        fill: url(#_Áåçûìÿííûé_ãðàäèåíò_107-9);
      }
    </style>
    <radialGradient id="_Áåçûìÿííûé_ãðàäèåíò_26" data-name="Áåçûìÿííûé ãðàäèåíò 26" cx="-1223.93" cy="317.42" fx="-1223.93" fy="317.42" r="90.06" gradientTransform="translate(1520.17 577.58) rotate(30) scale(1 .87) skewX(-26.56)" gradientUnits="userSpaceOnUse">
      <stop offset="0" stop-color="#42e8e0"/>
      <stop offset=".02" stop-color="#3fd8d6"/>
      <stop offset=".1" stop-color="#35a9b9"/>
      <stop offset=".18" stop-color="#2d7fa0"/>
      <stop offset=".26" stop-color="#275b8a"/>
      <stop offset=".35" stop-color="#213f79"/>
      <stop offset=".44" stop-color="#1d286b"/>
      <stop offset=".54" stop-color="#1a1962"/>
      <stop offset=".66" stop-color="#180f5c"/>
      <stop offset=".82" stop-color="#180d5b"/>
    </radialGradient>
    <radialGradient id="_Áåçûìÿííûé_ãðàäèåíò_26-2" data-name="Áåçûìÿííûé ãðàäèåíò 26" cx="-1039.29" cy="364.49" fx="-1039.29" fy="364.49" r="90.06" xlink:href="#_Áåçûìÿííûé_ãðàäèåíò_26"/>
    <radialGradient id="_Áåçûìÿííûé_ãðàäèåíò_26-3" data-name="Áåçûìÿííûé ãðàäèåíò 26" cx="-1224.14" cy="433.32" fx="-1224.14" fy="433.32" r="69.25" xlink:href="#_Áåçûìÿííûé_ãðàäèåíò_26"/>
    <radialGradient id="_Áåçûìÿííûé_ãðàäèåíò_26-4" data-name="Áåçûìÿííûé ãðàäèåíò 26" cx="186.34" cy="126.62" fx="186.34" fy="126.62" r="10.07" gradientTransform="translate(144.11 -94.68) rotate(45)" xlink:href="#_Áåçûìÿííûé_ãðàäèåíò_26"/>
    <radialGradient id="_Áåçûìÿííûé_ãðàäèåíò_26-5" data-name="Áåçûìÿííûé ãðàäèåíò 26" cx="84.81" cy="185.35" fx="84.81" fy="185.35" r="10.07" gradientTransform="translate(245.85 60.39) rotate(76.78)" xlink:href="#_Áåçûìÿííûé_ãðàäèåíò_26"/>
    <radialGradient id="_Áåçûìÿííûé_ãðàäèåíò_26-6" data-name="Áåçûìÿííûé ãðàäèåíò 26" cx="305.19" cy="239.98" fx="305.19" fy="239.98" r="10.07" gradientTransform="translate(259.08 -145.51) rotate(45)" xlink:href="#_Áåçûìÿííûé_ãðàäèåíò_26"/>
    <radialGradient id="_Áåçûìÿííûé_ãðàäèåíò_26-7" data-name="Áåçûìÿííûé ãðàäèåíò 26" cx="323.86" cy="228.98" fx="323.86" fy="228.98" r="10.07" gradientTransform="translate(472.3 -138.82) rotate(76.72)" xlink:href="#_Áåçûìÿííûé_ãðàäèåíò_26"/>
    <radialGradient id="_Áåçûìÿííûé_ãðàäèåíò_26-8" data-name="Áåçûìÿííûé ãðàäèåíò 26" cx="342.52" cy="218.15" fx="342.52" fy="218.15" r="10.07" gradientTransform="translate(476.14 -165.33) rotate(76.72)" xlink:href="#_Áåçûìÿííûé_ãðàäèåíò_26"/>
    <linearGradient id="_Áåçûìÿííûé_ãðàäèåíò_107" data-name="Áåçûìÿííûé ãðàäèåíò 107" x1="138.96" y1="133.4" x2="249.32" y2="133.4" gradientUnits="userSpaceOnUse">
      <stop offset="0" stop-color="#42e8e0"/>
      <stop offset=".1" stop-color="#3cc9cd"/>
      <stop offset=".34" stop-color="#2f87a5"/>
      <stop offset=".56" stop-color="#255285"/>
      <stop offset=".75" stop-color="#1e2c6e"/>
      <stop offset=".91" stop-color="#191560"/>
      <stop offset="1" stop-color="#180d5b"/>
    </linearGradient>
    <linearGradient id="_Áåçûìÿííûé_ãðàäèåíò_59" data-name="Áåçûìÿííûé ãðàäèåíò 59" x1="218.53" y1="133.39" x2="273.71" y2="133.39" gradientUnits="userSpaceOnUse">
      <stop offset="0" stop-color="#2b237c"/>
      <stop offset="1" stop-color="#180d5b"/>
    </linearGradient>
    <linearGradient id="_Áåçûìÿííûé_ãðàäèåíò_107-2" data-name="Áåçûìÿííûé ãðàäèåíò 107" x1="163.35" y1="121.21" x2="273.72" y2="121.21" xlink:href="#_Áåçûìÿííûé_ãðàäèåíò_107"/>
    <linearGradient id="_Áåçûìÿííûé_ãðàäèåíò_107-3" data-name="Áåçûìÿííûé ãðàäèåíò 107" x1="163.35" y1="121.21" x2="219.68" y2="121.21" xlink:href="#_Áåçûìÿííûé_ãðàäèåíò_107"/>
    <linearGradient id="_Áåçûìÿííûé_ãðàäèåíò_107-4" data-name="Áåçûìÿííûé ãðàäèåíò 107" x1="178.36" y1="153.32" x2="270.74" y2="92.94" xlink:href="#_Áåçûìÿííûé_ãðàäèåíò_107"/>
    <linearGradient id="_Áåçûìÿííûé_ãðàäèåíò_107-5" data-name="Áåçûìÿííûé ãðàäèåíò 107" x1="62.77" y1="177.45" x2="173.12" y2="177.45" xlink:href="#_Áåçûìÿííûé_ãðàäèåíò_107"/>
    <linearGradient id="_Áåçûìÿííûé_ãðàäèåíò_59-2" data-name="Áåçûìÿííûé ãðàäèåíò 59" x1="142.34" y1="177.44" x2="197.52" y2="177.44" xlink:href="#_Áåçûìÿííûé_ãðàäèåíò_59"/>
    <linearGradient id="_Áåçûìÿííûé_ãðàäèåíò_107-6" data-name="Áåçûìÿííûé ãðàäèåíò 107" x1="87.16" y1="165.25" x2="197.53" y2="165.25" xlink:href="#_Áåçûìÿííûé_ãðàäèåíò_107"/>
    <linearGradient id="_Áåçûìÿííûé_ãðàäèåíò_107-7" data-name="Áåçûìÿííûé ãðàäèåíò 107" x1="87.16" y1="165.26" x2="143.49" y2="165.26" xlink:href="#_Áåçûìÿííûé_ãðàäèåíò_107"/>
    <linearGradient id="_Áåçûìÿííûé_ãðàäèåíò_107-8" data-name="Áåçûìÿííûé ãðàäèåíò 107" x1="102.17" y1="197.37" x2="194.55" y2="136.99" xlink:href="#_Áåçûìÿííûé_ãðàäèåíò_107"/>
    <linearGradient id="_Áåçûìÿííûé_ãðàäèåíò_107-9" data-name="Áåçûìÿííûé ãðàäèåíò 107" x1="215.15" y1="177.07" x2="325.51" y2="177.07" xlink:href="#_Áåçûìÿííûé_ãðàäèåíò_107"/>
    <linearGradient id="_Áåçûìÿííûé_ãðàäèåíò_59-3" data-name="Áåçûìÿííûé ãðàäèåíò 59" x1="294.72" y1="177.07" x2="349.9" y2="177.07" xlink:href="#_Áåçûìÿííûé_ãðàäèåíò_59"/>
    <linearGradient id="_Áåçûìÿííûé_ãðàäèåíò_107-10" data-name="Áåçûìÿííûé ãðàäèåíò 107" x1="239.55" y1="164.88" x2="349.91" y2="164.88" xlink:href="#_Áåçûìÿííûé_ãðàäèåíò_107"/>
    <linearGradient id="_Áåçûìÿííûé_ãðàäèåíò_107-11" data-name="Áåçûìÿííûé ãðàäèåíò 107" x1="239.55" y1="164.88" x2="295.87" y2="164.88" xlink:href="#_Áåçûìÿííûé_ãðàäèåíò_107"/>
    <linearGradient id="_Áåçûìÿííûé_ãðàäèåíò_107-12" data-name="Áåçûìÿííûé ãðàäèåíò 107" x1="254.56" y1="197" x2="346.93" y2="136.62" xlink:href="#_Áåçûìÿííûé_ãðàäèåíò_107"/>
    <linearGradient id="_Áåçûìÿííûé_ãðàäèåíò_107-13" data-name="Áåçûìÿííûé ãðàäèåíò 107" y1="100.04" y2="100.04" xlink:href="#_Áåçûìÿííûé_ãðàäèåíò_107"/>
    <linearGradient id="_Áåçûìÿííûé_ãðàäèåíò_59-4" data-name="Áåçûìÿííûé ãðàäèåíò 59" y1="100.04" y2="100.04" xlink:href="#_Áåçûìÿííûé_ãðàäèåíò_59"/>
    <linearGradient id="_Áåçûìÿííûé_ãðàäèåíò_107-14" data-name="Áåçûìÿííûé ãðàäèåíò 107" x1="163.35" y1="87.85" x2="273.72" y2="87.85" xlink:href="#_Áåçûìÿííûé_ãðàäèåíò_107"/>
    <linearGradient id="_Áåçûìÿííûé_ãðàäèåíò_107-15" data-name="Áåçûìÿííûé ãðàäèåíò 107" x1="163.35" y1="87.85" x2="219.68" y2="87.85" xlink:href="#_Áåçûìÿííûé_ãðàäèåíò_107"/>
    <linearGradient id="_Áåçûìÿííûé_ãðàäèåíò_107-16" data-name="Áåçûìÿííûé ãðàäèåíò 107" x1="178.36" y1="119.96" x2="270.74" y2="59.58" xlink:href="#_Áåçûìÿííûé_ãðàäèåíò_107"/>
    <linearGradient id="_Áåçûìÿííûé_ãðàäèåíò_107-17" data-name="Áåçûìÿííûé ãðàäèåíò 107" x1="62.77" y1="144.09" x2="173.12" y2="144.09" xlink:href="#_Áåçûìÿííûé_ãðàäèåíò_107"/>
    <linearGradient id="_Áåçûìÿííûé_ãðàäèåíò_59-5" data-name="Áåçûìÿííûé ãðàäèåíò 59" x1="142.34" y1="144.09" x2="197.52" y2="144.09" xlink:href="#_Áåçûìÿííûé_ãðàäèåíò_59"/>
    <linearGradient id="_Áåçûìÿííûé_ãðàäèåíò_107-18" data-name="Áåçûìÿííûé ãðàäèåíò 107" x1="87.16" y1="131.9" x2="197.53" y2="131.9" xlink:href="#_Áåçûìÿííûé_ãðàäèåíò_107"/>
    <linearGradient id="_Áåçûìÿííûé_ãðàäèåíò_107-19" data-name="Áåçûìÿííûé ãðàäèåíò 107" x1="87.16" y1="131.9" x2="143.49" y2="131.9" xlink:href="#_Áåçûìÿííûé_ãðàäèåíò_107"/>
    <linearGradient id="_Áåçûìÿííûé_ãðàäèåíò_107-20" data-name="Áåçûìÿííûé ãðàäèåíò 107" x1="102.17" y1="164.01" x2="194.55" y2="103.63" xlink:href="#_Áåçûìÿííûé_ãðàäèåíò_107"/>
    <linearGradient id="_Áåçûìÿííûé_ãðàäèåíò_107-21" data-name="Áåçûìÿííûé ãðàäèåíò 107" x1="215.15" y1="143.72" x2="325.51" y2="143.72" xlink:href="#_Áåçûìÿííûé_ãðàäèåíò_107"/>
    <linearGradient id="_Áåçûìÿííûé_ãðàäèåíò_59-6" data-name="Áåçûìÿííûé ãðàäèåíò 59" x1="294.72" y1="143.71" x2="349.9" y2="143.71" xlink:href="#_Áåçûìÿííûé_ãðàäèåíò_59"/>
    <linearGradient id="_Áåçûìÿííûé_ãðàäèåíò_107-22" data-name="Áåçûìÿííûé ãðàäèåíò 107" x1="239.55" y1="131.53" x2="349.91" y2="131.53" xlink:href="#_Áåçûìÿííûé_ãðàäèåíò_107"/>
    <linearGradient id="_Áåçûìÿííûé_ãðàäèåíò_107-23" data-name="Áåçûìÿííûé ãðàäèåíò 107" x1="239.55" y1="131.53" x2="295.87" y2="131.53" xlink:href="#_Áåçûìÿííûé_ãðàäèåíò_107"/>
    <linearGradient id="_Áåçûìÿííûé_ãðàäèåíò_107-24" data-name="Áåçûìÿííûé ãðàäèåíò 107" x1="254.56" y1="163.64" x2="346.93" y2="103.26" xlink:href="#_Áåçûìÿííûé_ãðàäèåíò_107"/>
    <linearGradient id="_Áåçûìÿííûé_ãðàäèåíò_107-25" data-name="Áåçûìÿííûé ãðàäèåíò 107" y1="221.12" y2="221.12" xlink:href="#_Áåçûìÿííûé_ãðàäèåíò_107"/>
    <linearGradient id="_Áåçûìÿííûé_ãðàäèåíò_59-7" data-name="Áåçûìÿííûé ãðàäèåíò 59" y1="221.12" y2="221.12" xlink:href="#_Áåçûìÿííûé_ãðàäèåíò_59"/>
    <linearGradient id="_Áåçûìÿííûé_ãðàäèåíò_107-26" data-name="Áåçûìÿííûé ãðàäèåíò 107" x1="163.35" y1="208.93" x2="273.72" y2="208.93" xlink:href="#_Áåçûìÿííûé_ãðàäèåíò_107"/>
    <linearGradient id="_Áåçûìÿííûé_ãðàäèåíò_107-27" data-name="Áåçûìÿííûé ãðàäèåíò 107" x1="163.35" y1="208.93" x2="219.68" y2="208.93" xlink:href="#_Áåçûìÿííûé_ãðàäèåíò_107"/>
    <linearGradient id="_Áåçûìÿííûé_ãðàäèåíò_107-28" data-name="Áåçûìÿííûé ãðàäèåíò 107" x1="178.36" y1="241.04" x2="270.74" y2="180.67" xlink:href="#_Áåçûìÿííûé_ãðàäèåíò_107"/>
    <linearGradient id="_Áåçûìÿííûé_ãðàäèåíò_107-29" data-name="Áåçûìÿííûé ãðàäèåíò 107" y1="187.76" y2="187.76" xlink:href="#_Áåçûìÿííûé_ãðàäèåíò_107"/>
    <linearGradient id="_Áåçûìÿííûé_ãðàäèåíò_59-8" data-name="Áåçûìÿííûé ãðàäèåíò 59" y1="187.76" y2="187.76" xlink:href="#_Áåçûìÿííûé_ãðàäèåíò_59"/>
    <linearGradient id="_Áåçûìÿííûé_ãðàäèåíò_107-30" data-name="Áåçûìÿííûé ãðàäèåíò 107" x1="163.35" y1="175.57" x2="273.72" y2="175.57" xlink:href="#_Áåçûìÿííûé_ãðàäèåíò_107"/>
    <linearGradient id="_Áåçûìÿííûé_ãðàäèåíò_107-31" data-name="Áåçûìÿííûé ãðàäèåíò 107" x1="163.35" y1="175.57" x2="219.68" y2="175.57" xlink:href="#_Áåçûìÿííûé_ãðàäèåíò_107"/>
    <linearGradient id="_Áåçûìÿííûé_ãðàäèåíò_107-32" data-name="Áåçûìÿííûé ãðàäèåíò 107" x1="178.36" y1="207.69" x2="270.74" y2="147.31" xlink:href="#_Áåçûìÿííûé_ãðàäèåíò_107"/>
    <linearGradient id="_Áåçûìÿííûé_ãðàäèåíò_370" data-name="Áåçûìÿííûé ãðàäèåíò 370" x1="142.35" y1="157.57" x2="142.35" y2="0" gradientUnits="userSpaceOnUse">
      <stop offset=".01" stop-color="#25bfec"/>
      <stop offset=".05" stop-color="#23b4e1"/>
      <stop offset=".22" stop-color="#1e82af"/>
      <stop offset=".39" stop-color="#1a5986"/>
      <stop offset=".56" stop-color="#173a66"/>
      <stop offset=".72" stop-color="#14234f"/>
      <stop offset=".87" stop-color="#131541"/>
      <stop offset="1" stop-color="#13113d"/>
    </linearGradient>
    <radialGradient id="_Áåçûìÿííûé_ãðàäèåíò_26-9" data-name="Áåçûìÿííûé ãðàäèåíò 26" cx="-1207.65" cy="224.99" fx="-1207.65" fy="224.99" r="39.97" xlink:href="#_Áåçûìÿííûé_ãðàäèåíò_26"/>
    <radialGradient id="_Áåçûìÿííûé_ãðàäèåíò_26-10" data-name="Áåçûìÿííûé ãðàäèåíò 26" cx="-1125.7" cy="245.88" fx="-1125.7" fy="245.88" r="39.97" xlink:href="#_Áåçûìÿííûé_ãðàäèåíò_26"/>
    <radialGradient id="_Áåçûìÿííûé_ãðàäèåíò_26-11" data-name="Áåçûìÿííûé ãðàäèåíò 26" cx="-1207.74" cy="276.43" fx="-1207.74" fy="276.43" r="30.73" xlink:href="#_Áåçûìÿííûé_ãðàäèåíò_26"/>
    <radialGradient id="_Áåçûìÿííûé_ãðàäèåíò_26-12" data-name="Áåçûìÿííûé ãðàäèåíò 26" cx="279.94" cy="87.27" fx="279.94" fy="87.27" r="7.02" gradientTransform="matrix(1, 0, 0, 1, 0, 0)" xlink:href="#_Áåçûìÿííûé_ãðàäèåíò_26"/>
    <radialGradient id="_Áåçûìÿííûé_ãðàäèåíò_26-13" data-name="Áåçûìÿííûé ãðàäèåíò 26" cx="234.88" cy="113.34" fx="234.88" fy="113.34" r="7.02" gradientTransform="matrix(1, 0, 0, 1, 0, 0)" xlink:href="#_Áåçûìÿííûé_ãðàäèåíò_26"/>
    <radialGradient id="_Áåçûìÿííûé_ãðàäèåíò_26-14" data-name="Áåçûìÿííûé ãðàäèåíò 26" cx="327.97" cy="140.35" fx="327.97" fy="140.35" r="7.02" gradientTransform="matrix(1, 0, 0, 1, 0, 0)" xlink:href="#_Áåçûìÿííûé_ãðàäèåíò_26"/>
    <radialGradient id="_Áåçûìÿííûé_ãðàäèåíò_26-15" data-name="Áåçûìÿííûé ãðàäèåíò 26" cx="340.98" cy="132.68" fx="340.98" fy="132.68" r="7.02" gradientTransform="matrix(1, 0, 0, 1, 0, 0)" xlink:href="#_Áåçûìÿííûé_ãðàäèåíò_26"/>
    <radialGradient id="_Áåçûìÿííûé_ãðàäèåíò_26-16" data-name="Áåçûìÿííûé ãðàäèåíò 26" cx="353.98" cy="125.13" fx="353.98" fy="125.13" r="7.02" gradientTransform="matrix(1, 0, 0, 1, 0, 0)" xlink:href="#_Áåçûìÿííûé_ãðàäèåíò_26"/>
  </defs>
  <g class="cls-53">
    <g id="_Ñëîé_1" data-name="Ñëîé 1">
      <g>
        <path class="cls-57" d="M218.59,285.4c-4.28,0-8.37-.86-11.42-2.62L73.75,205.75c-2.98-1.72-4.63-4.12-4.63-6.74,0-3.16,2.37-6.33,6.5-8.72L205.29,115.43c7.76-4.48,19.54-4.96,26.27-1.08l133.41,77.03c2.98,1.72,4.63,4.12,4.63,6.74,0,3.15-2.37,6.33-6.5,8.72l-129.67,74.87c-4.24,2.45-9.68,3.7-14.85,3.7Zm-11.17-3.06c6.59,3.8,18.15,3.32,25.77-1.08l129.67-74.87c3.97-2.29,6.25-5.31,6.25-8.28,0-2.44-1.55-4.68-4.38-6.31L231.31,114.78c-6.59-3.81-18.15-3.32-25.77,1.08L75.87,190.72c-3.97,2.29-6.25,5.31-6.25,8.28,0,2.44,1.55,4.68,4.38,6.31l133.41,77.03Z"/>
        <ellipse class="cls-40" cx="185.36" cy="124.33" rx="110.3" ry="63.68"/>
        <ellipse class="cls-45" cx="304.5" cy="240.18" rx="110.3" ry="63.68"/>
        <ellipse class="cls-38" cx="84.81" cy="182.17" rx="84.81" ry="48.96"/>
        <g>
          <circle class="cls-46" cx="186.34" cy="126.62" r="10.07" transform="translate(-34.96 168.85) rotate(-45)"/>
          <circle class="cls-57" cx="186.34" cy="126.62" r="2.87"/>
        </g>
        <g>
          <circle class="cls-49" cx="84.81" cy="185.35" r="10.07" transform="translate(-115.03 225.51) rotate(-76.78)"/>
          <path class="cls-57" d="M87.68,185.35c0,1.59-1.29,2.87-2.87,2.87s-2.87-1.29-2.87-2.87,1.29-2.87,2.87-2.87,2.87,1.29,2.87,2.87Z"/>
        </g>
        <g>
          <circle class="cls-41" cx="305.19" cy="239.98" r="10.07" transform="translate(-80.31 286.09) rotate(-45)"/>
          <circle class="cls-57" cx="305.19" cy="239.98" r="2.87"/>
        </g>
        <g>
          <circle class="cls-35" cx="323.86" cy="228.98" r="10.07" transform="translate(26.59 491.56) rotate(-76.72)"/>
          <circle class="cls-57" cx="323.86" cy="228.98" r="2.87"/>
        </g>
        <g>
          <circle class="cls-39" cx="342.52" cy="218.15" r="10.07" transform="translate(51.51 501.39) rotate(-76.72)"/>
          <path class="cls-57" d="M345.39,218.15c0,1.59-1.29,2.87-2.87,2.87s-2.87-1.29-2.87-2.87,1.29-2.87,2.87-2.87,2.87,1.29,2.87,2.87Z"/>
        </g>
      </g>
      <g>
        <g>
          <g>
            <path class="cls-7" d="M212.77,182.15l-41.91-24.2c-3.18-1.84-2.78-5.05,.89-7.17l40.12-23.16c3.68-2.12,9.24-2.35,12.42-.51l41.91,24.2c3.18,1.84,2.78,5.05-.89,7.17l-40.12,23.16c-3.68,2.12-9.24,2.35-12.42,.51Z"/>
            <path class="cls-64" d="M273.7,129.87v-8.66h-22.35l-26.43-15.26c-3.53-2.04-9.69-1.78-13.76,.57l-25.44,14.69h-22.37v9.16h.02c-.1,1.38,.67,2.71,2.36,3.69l46.42,26.8c3.53,2.04,9.69,1.78,13.76-.57l44.44-25.66c2.35-1.36,3.48-3.11,3.35-4.75Z"/>
            <path class="cls-21" d="M273.7,129.87v-8.66h-22.35l-26.43-15.26c-3.53-2.04-9.69-1.78-13.76,.57l-25.44,14.69h-22.37v9.16h.02c-.1,1.38,.67,2.71,2.36,3.69l46.42,26.8c3.53,2.04,9.69,1.78,13.76-.57l44.44-25.66c2.35-1.36,3.48-3.11,3.35-4.75Z"/>
            <path class="cls-59" d="M224.92,105.95c-1.7-.98-4-1.42-6.39-1.36v57.63c2.58-.06,5.26-.71,7.38-1.93l44.44-25.66c2.35-1.36,3.48-3.11,3.35-4.75v-8.66h-22.35l-26.43-15.26Z"/>
            <path class="cls-64" d="M212.15,151.69l-46.42-26.8c-3.53-2.04-3.08-5.59,.99-7.94l44.44-25.66c4.07-2.35,10.23-2.61,13.76-.57l46.42,26.8c3.53,2.04,3.08,5.59-.99,7.94l-44.44,25.66c-4.07,2.35-10.23,2.61-13.76,.57Z"/>
            <path class="cls-10" d="M212.15,151.69l-46.42-26.8c-3.53-2.04-3.08-5.59,.99-7.94l44.44-25.66c4.07-2.35,10.23-2.61,13.76-.57l46.42,26.8c3.53,2.04,3.08,5.59-.99,7.94l-44.44,25.66c-4.07,2.35-10.23,2.61-13.76,.57Z"/>
            <path class="cls-54" d="M213.39,145.77l-37.4-21.59c-2.84-1.64-2.49-4.51,.8-6.4l35.8-20.67c3.28-1.89,8.24-2.1,11.09-.46l37.4,21.59c2.84,1.64,2.49,4.51-.8,6.4l-35.8,20.67c-3.28,1.89-8.24,2.1-11.09,.46Z"/>
            <path class="cls-66" d="M176.79,120.58l35.8-20.67c3.28-1.89,8.24-2.1,11.09-.46l37.4,21.59c.7,.41,1.21,.89,1.52,1.41,.82-1.52,.35-3.13-1.52-4.21l-37.4-21.59c-2.84-1.64-7.81-1.43-11.09,.46l-35.8,20.67c-2.47,1.43-3.28,3.4-2.32,4.99,.43-.79,1.2-1.55,2.32-2.19Z"/>
            <path class="cls-13" d="M213.71,151.69l-46.42-26.8c-3.53-2.04-4.37-5.03,.99-7.94l44.44-25.66c2-1.16,4.51-1.8,6.96-1.92-2.92-.13-6.09,.52-8.52,1.92l-44.44,25.66c-4.07,2.35-4.51,5.91-.99,7.94l46.42,26.8c1.79,1.03,4.27,1.47,6.8,1.35-1.97-.09-3.82-.53-5.24-1.35Z"/>
            <path class="cls-6" d="M270.35,129.33l-44.44,25.66c-4.07,2.35-10.23,2.61-13.76,.57l-46.42-26.8c-1.69-.98-2.46-2.31-2.36-3.69h-.02v1.9h.02c-.1,1.38,.67,2.71,2.36,3.69l46.42,26.8c3.53,2.04,9.69,1.78,13.76-.57l44.44-25.66c2.35-1.36,3.48-3.11,3.35-4.75v-1.9c.13,1.64-1,3.39-3.35,4.75Z"/>
            <g>
              <path class="cls-65" d="M262.29,126.81c.51,.29,.51,.77,0,1.06-.51,.29-1.33,.29-1.83,0-.51-.29-.51-.77,0-1.06,.51-.29,1.33-.29,1.83,0Z"/>
              <path class="cls-65" d="M265.15,125.16c.51,.29,.51,.77,0,1.06-.51,.29-1.33,.29-1.83,0-.51-.29-.51-.77,0-1.06,.51-.29,1.33-.29,1.83,0Z"/>
              <path class="cls-65" d="M268,123.51c.51,.29,.51,.77,0,1.06-.51,.29-1.33,.29-1.83,0-.51-.29-.51-.77,0-1.06,.51-.29,1.33-.29,1.83,0Z"/>
            </g>
          </g>
          <g>
            <path class="cls-7" d="M136.58,226.2l-41.91-24.2c-3.18-1.84-2.78-5.05,.89-7.17l40.12-23.16c3.68-2.12,9.24-2.35,12.42-.51l41.91,24.2c3.18,1.84,2.78,5.05-.89,7.17l-40.12,23.16c-3.68,2.12-9.24,2.35-12.42,.51Z"/>
            <path class="cls-64" d="M197.51,173.92v-8.66h-22.35l-26.43-15.26c-3.53-2.04-9.69-1.78-13.76,.57l-25.44,14.69h-22.37v9.16h.02c-.1,1.38,.67,2.71,2.36,3.69l46.42,26.8c3.53,2.04,9.69,1.78,13.76-.57l44.44-25.66c2.35-1.36,3.48-3.11,3.35-4.75Z"/>
            <path class="cls-25" d="M197.51,173.92v-8.66h-22.35l-26.43-15.26c-3.53-2.04-9.69-1.78-13.76,.57l-25.44,14.69h-22.37v9.16h.02c-.1,1.38,.67,2.71,2.36,3.69l46.42,26.8c3.53,2.04,9.69,1.78,13.76-.57l44.44-25.66c2.35-1.36,3.48-3.11,3.35-4.75Z"/>
            <path class="cls-58" d="M148.73,150c-1.7-.98-4-1.42-6.39-1.36v57.63c2.58-.06,5.26-.71,7.38-1.93l44.44-25.66c2.35-1.36,3.48-3.11,3.35-4.75v-8.66h-22.35l-26.43-15.26Z"/>
            <path class="cls-64" d="M135.96,195.74l-46.42-26.8c-3.53-2.04-3.08-5.59,.99-7.94l44.44-25.66c4.07-2.35,10.23-2.61,13.76-.57l46.42,26.8c3.53,2.04,3.08,5.59-.99,7.94l-44.44,25.66c-4.07,2.35-10.23,2.61-13.76,.57Z"/>
            <path class="cls-17" d="M135.96,195.74l-46.42-26.8c-3.53-2.04-3.08-5.59,.99-7.94l44.44-25.66c4.07-2.35,10.23-2.61,13.76-.57l46.42,26.8c3.53,2.04,3.08,5.59-.99,7.94l-44.44,25.66c-4.07,2.35-10.23,2.61-13.76,.57Z"/>
            <path class="cls-54" d="M137.2,189.82l-37.4-21.59c-2.84-1.64-2.49-4.51,.8-6.4l35.8-20.67c3.28-1.89,8.24-2.1,11.09-.46l37.4,21.59c2.84,1.64,2.49,4.51-.8,6.4l-35.8,20.67c-3.28,1.89-8.24,2.1-11.09,.46Z"/>
            <path class="cls-66" d="M100.6,164.62l35.8-20.67c3.28-1.89,8.24-2.1,11.09-.46l37.4,21.59c.7,.41,1.21,.89,1.52,1.41,.82-1.52,.35-3.13-1.52-4.21l-37.4-21.59c-2.84-1.64-7.81-1.43-11.09,.46l-35.8,20.67c-2.47,1.43-3.28,3.4-2.32,4.99,.43-.79,1.2-1.55,2.32-2.19Z"/>
            <path class="cls-29" d="M137.52,195.74l-46.42-26.8c-3.53-2.04-4.37-5.03,.99-7.94l44.44-25.66c2-1.16,4.51-1.8,6.96-1.92-2.92-.13-6.09,.52-8.52,1.92l-44.44,25.66c-4.07,2.35-4.51,5.91-.99,7.94l46.42,26.8c1.79,1.03,4.27,1.47,6.8,1.35-1.97-.09-3.82-.53-5.24-1.35Z"/>
            <path class="cls-24" d="M194.16,173.38l-44.44,25.66c-4.07,2.35-10.23,2.61-13.76,.57l-46.42-26.8c-1.69-.98-2.46-2.31-2.36-3.69h-.02v1.9h.02c-.1,1.38,.67,2.71,2.36,3.69l46.42,26.8c3.53,2.04,9.69,1.78,13.76-.57l44.44-25.66c2.35-1.36,3.48-3.11,3.35-4.75v-1.9c.13,1.64-1,3.39-3.35,4.75Z"/>
            <g>
              <path class="cls-65" d="M186.1,170.85c.51,.29,.51,.77,0,1.06-.51,.29-1.33,.29-1.83,0-.51-.29-.51-.77,0-1.06,.51-.29,1.33-.29,1.83,0Z"/>
              <path class="cls-65" d="M188.95,169.21c.51,.29,.51,.77,0,1.06-.51,.29-1.33,.29-1.83,0-.51-.29-.51-.77,0-1.06,.51-.29,1.33-.29,1.83,0Z"/>
              <path class="cls-65" d="M191.81,167.56c.51,.29,.51,.77,0,1.06s-1.33,.29-1.83,0c-.51-.29-.51-.77,0-1.06,.51-.29,1.33-.29,1.83,0Z"/>
            </g>
          </g>
          <g>
            <path class="cls-7" d="M288.96,225.83l-41.91-24.2c-3.18-1.84-2.78-5.05,.89-7.17l40.12-23.16c3.68-2.12,9.24-2.35,12.42-.51l41.91,24.2c3.18,1.84,2.78,5.05-.89,7.17l-40.12,23.16c-3.68,2.12-9.24,2.35-12.42,.52Z"/>
            <path class="cls-64" d="M349.89,173.55v-8.66h-22.35l-26.43-15.26c-3.53-2.04-9.69-1.78-13.76,.57l-25.44,14.69h-22.37v9.16h.02c-.1,1.38,.67,2.71,2.36,3.69l46.42,26.8c3.53,2.04,9.69,1.78,13.76-.57l44.44-25.66c2.35-1.36,3.48-3.11,3.35-4.75Z"/>
            <path class="cls-34" d="M349.89,173.55v-8.66h-22.35l-26.43-15.26c-3.53-2.04-9.69-1.78-13.76,.57l-25.44,14.69h-22.37v9.16h.02c-.1,1.38,.67,2.71,2.36,3.69l46.42,26.8c3.53,2.04,9.69,1.78,13.76-.57l44.44-25.66c2.35-1.36,3.48-3.11,3.35-4.75Z"/>
            <path class="cls-63" d="M301.11,149.62c-1.7-.98-4-1.42-6.39-1.36v57.63c2.58-.06,5.26-.71,7.38-1.93l44.44-25.66c2.35-1.36,3.48-3.11,3.35-4.75v-8.66h-22.35l-26.43-15.26Z"/>
            <path class="cls-64" d="M288.34,195.37l-46.42-26.8c-3.53-2.04-3.08-5.59,.99-7.94l44.44-25.66c4.07-2.35,10.23-2.61,13.76-.57l46.42,26.8c3.53,2.04,3.08,5.59-.99,7.94l-44.44,25.66c-4.07,2.35-10.23,2.61-13.76,.57Z"/>
            <path class="cls-2" d="M288.34,195.37l-46.42-26.8c-3.53-2.04-3.08-5.59,.99-7.94l44.44-25.66c4.07-2.35,10.23-2.61,13.76-.57l46.42,26.8c3.53,2.04,3.08,5.59-.99,7.94l-44.44,25.66c-4.07,2.35-10.23,2.61-13.76,.57Z"/>
            <path class="cls-54" d="M289.58,189.44l-37.4-21.59c-2.84-1.64-2.49-4.51,.8-6.4l35.8-20.67c3.28-1.89,8.24-2.1,11.09-.46l37.4,21.59c2.84,1.64,2.49,4.51-.8,6.4l-35.8,20.67c-3.28,1.89-8.24,2.1-11.09,.46Z"/>
            <path class="cls-66" d="M252.98,164.25l35.8-20.67c3.28-1.89,8.24-2.1,11.09-.46l37.4,21.59c.7,.41,1.21,.89,1.52,1.41,.82-1.52,.35-3.13-1.52-4.21l-37.4-21.59c-2.84-1.64-7.81-1.43-11.09,.46l-35.8,20.67c-2.47,1.43-3.28,3.4-2.32,4.99,.43-.79,1.2-1.55,2.32-2.19Z"/>
            <path class="cls-33" d="M289.9,195.37l-46.42-26.8c-3.53-2.04-4.37-5.03,.99-7.94l44.44-25.66c2-1.16,4.51-1.8,6.96-1.92-2.92-.13-6.09,.52-8.52,1.92l-44.44,25.66c-4.07,2.35-4.51,5.91-.99,7.94l46.42,26.8c1.79,1.03,4.27,1.47,6.8,1.35-1.97-.09-3.82-.53-5.24-1.35Z"/>
            <path class="cls-1" d="M346.54,173.01l-44.44,25.66c-4.07,2.35-10.23,2.61-13.76,.57l-46.42-26.8c-1.69-.98-2.46-2.31-2.36-3.69h-.02v1.9h.02c-.1,1.38,.67,2.71,2.36,3.69l46.42,26.8c3.53,2.04,9.69,1.78,13.76-.57l44.44-25.66c2.35-1.36,3.48-3.11,3.35-4.75v-1.9c.13,1.64-1,3.39-3.35,4.75Z"/>
            <g>
              <path class="cls-65" d="M338.48,170.48c.51,.29,.51,.77,0,1.06-.51,.29-1.33,.29-1.83,0-.51-.29-.51-.77,0-1.06,.51-.29,1.33-.29,1.83,0Z"/>
              <path class="cls-65" d="M341.34,168.83c.51,.29,.51,.77,0,1.06-.51,.29-1.33,.29-1.83,0-.51-.29-.51-.77,0-1.06,.51-.29,1.33-.29,1.83,0Z"/>
              <path class="cls-65" d="M344.19,167.18c.51,.29,.51,.77,0,1.06-.51,.29-1.33,.29-1.83,0-.51-.29-.51-.77,0-1.06,.51-.29,1.33-.29,1.83,0Z"/>
            </g>
          </g>
          <g>
            <path class="cls-7" d="M214.5,140.54l-29.34-16.94c-2.23-1.29-1.95-3.53,.62-5.02l28.09-16.22c2.57-1.49,6.47-1.65,8.7-.36l29.34,16.94c2.23,1.29,1.95,3.53-.62,5.02l-28.09,16.22c-2.57,1.49-6.47,1.65-8.7,.36Z"/>
            <path class="cls-32" d="M273.7,121.19c.01-.16,.01-.33,0-.49v-24.2l-38.45,.17-10.33-5.96c-3.53-2.04-9.69-1.78-13.76,.57l-9.6,5.54-38.21,.17v24.2h.02c-.1,1.38,.67,2.71,2.36,3.69l46.42,26.8c3.53,2.04,9.69,1.78,13.76-.57l44.44-25.66c2.12-1.22,3.24-2.77,3.35-4.26h0Z"/>
            <path class="cls-64" d="M273.7,96.51v-8.66h-22.35l-26.43-15.26c-3.53-2.04-9.69-1.78-13.76,.57l-25.44,14.69h-22.37v9.16h.02c-.1,1.38,.67,2.71,2.36,3.69l46.42,26.8c3.53,2.04,9.69,1.78,13.76-.57l44.44-25.66c2.35-1.36,3.48-3.11,3.35-4.75Z"/>
            <path class="cls-28" d="M273.7,96.51v-8.66h-22.35l-26.43-15.26c-3.53-2.04-9.69-1.78-13.76,.57l-25.44,14.69h-22.37v9.16h.02c-.1,1.38,.67,2.71,2.36,3.69l46.42,26.8c3.53,2.04,9.69,1.78,13.76-.57l44.44-25.66c2.35-1.36,3.48-3.11,3.35-4.75Z"/>
            <path class="cls-60" d="M224.92,72.59c-1.7-.98-4-1.42-6.39-1.36v57.63c2.58-.06,5.26-.71,7.38-1.93l44.44-25.66c2.35-1.36,3.48-3.11,3.35-4.75v-8.66h-22.35l-26.43-15.26Z"/>
            <path class="cls-64" d="M212.15,118.33l-46.42-26.8c-3.53-2.04-3.08-5.59,.99-7.94l44.44-25.66c4.07-2.35,10.23-2.61,13.76-.57l46.42,26.8c3.53,2.04,3.08,5.59-.99,7.94l-44.44,25.66c-4.07,2.35-10.23,2.61-13.76,.57Z"/>
            <path class="cls-15" d="M212.15,118.33l-46.42-26.8c-3.53-2.04-3.08-5.59,.99-7.94l44.44-25.66c4.07-2.35,10.23-2.61,13.76-.57l46.42,26.8c3.53,2.04,3.08,5.59-.99,7.94l-44.44,25.66c-4.07,2.35-10.23,2.61-13.76,.57Z"/>
            <path class="cls-5" d="M213.71,118.33l-46.42-26.8c-3.53-2.04-4.37-5.03,.99-7.94l44.44-25.66c2-1.16,4.51-1.8,6.96-1.92-2.92-.13-6.09,.52-8.52,1.92l-44.44,25.66c-4.07,2.35-4.51,5.91-.99,7.94l46.42,26.8c1.79,1.03,4.27,1.47,6.8,1.35-1.97-.09-3.82-.53-5.24-1.35Z"/>
            <path class="cls-14" d="M270.35,95.98l-44.44,25.66c-4.07,2.35-10.23,2.61-13.76,.57l-46.42-26.8c-1.69-.98-2.46-2.31-2.36-3.69h-.02v1.9h.02c-.1,1.38,.67,2.71,2.36,3.69l46.42,26.8c3.53,2.04,9.69,1.78,13.76-.57l44.44-25.66c2.35-1.36,3.48-3.11,3.35-4.75v-1.9c.13,1.64-1,3.39-3.35,4.75Z"/>
          </g>
          <g>
            <path class="cls-7" d="M138.31,184.59l-29.34-16.94c-2.23-1.29-1.95-3.53,.62-5.02l28.09-16.22c2.57-1.49,6.47-1.65,8.7-.36l29.34,16.94c2.23,1.29,1.95,3.53-.62,5.02l-28.09,16.22c-2.57,1.49-6.47,1.65-8.7,.36Z"/>
            <path class="cls-32" d="M197.51,165.25c.01-.16,.01-.33,0-.49v-24.2l-38.45,.17-10.33-5.96c-3.53-2.04-9.69-1.78-13.76,.57l-9.6,5.54-38.21,.17v24.2h.02c-.1,1.38,.67,2.71,2.36,3.69l46.42,26.8c3.53,2.04,9.69,1.78,13.76-.57l44.44-25.66c2.12-1.22,3.24-2.77,3.35-4.26h0Z"/>
            <path class="cls-64" d="M197.51,140.56v-8.66h-22.35l-26.43-15.26c-3.53-2.04-9.69-1.78-13.76,.57l-25.44,14.69h-22.37v9.16h.02c-.1,1.38,.67,2.71,2.36,3.69l46.42,26.8c3.53,2.04,9.69,1.78,13.76-.57l44.44-25.66c2.35-1.36,3.48-3.11,3.35-4.75Z"/>
            <path class="cls-12" d="M197.51,140.56v-8.66h-22.35l-26.43-15.26c-3.53-2.04-9.69-1.78-13.76,.57l-25.44,14.69h-22.37v9.16h.02c-.1,1.38,.67,2.71,2.36,3.69l46.42,26.8c3.53,2.04,9.69,1.78,13.76-.57l44.44-25.66c2.35-1.36,3.48-3.11,3.35-4.75Z"/>
            <path class="cls-67" d="M148.73,116.64c-1.7-.98-4-1.42-6.39-1.36v57.63c2.58-.06,5.26-.71,7.38-1.93l44.44-25.66c2.35-1.36,3.48-3.11,3.35-4.75v-8.66h-22.35l-26.43-15.26Z"/>
            <path class="cls-64" d="M135.96,162.38l-46.42-26.8c-3.53-2.04-3.08-5.59,.99-7.94l44.44-25.66c4.07-2.35,10.23-2.61,13.76-.57l46.42,26.8c3.53,2.04,3.08,5.59-.99,7.94l-44.44,25.66c-4.07,2.35-10.23,2.61-13.76,.57Z"/>
            <path class="cls-27" d="M135.96,162.38l-46.42-26.8c-3.53-2.04-3.08-5.59,.99-7.94l44.44-25.66c4.07-2.35,10.23-2.61,13.76-.57l46.42,26.8c3.53,2.04,3.08,5.59-.99,7.94l-44.44,25.66c-4.07,2.35-10.23,2.61-13.76,.57Z"/>
            <path class="cls-54" d="M137.2,156.46l-37.4-21.59c-2.84-1.64-2.49-4.51,.8-6.4l35.8-20.67c3.28-1.89,8.24-2.1,11.09-.46l37.4,21.59c2.84,1.64,2.49,4.51-.8,6.4l-35.8,20.67c-3.28,1.89-8.24,2.1-11.09,.46Z"/>
            <path class="cls-66" d="M100.6,131.27l35.8-20.67c3.28-1.89,8.24-2.1,11.09-.46l37.4,21.59c.7,.41,1.21,.89,1.52,1.41,.82-1.52,.35-3.13-1.52-4.21l-37.4-21.59c-2.84-1.64-7.81-1.43-11.09,.46l-35.8,20.67c-2.47,1.43-3.28,3.4-2.32,4.99,.43-.79,1.2-1.55,2.32-2.19Z"/>
            <path class="cls-11" d="M137.52,162.38l-46.42-26.8c-3.53-2.04-4.37-5.03,.99-7.94l44.44-25.66c2-1.16,4.51-1.8,6.96-1.92-2.92-.13-6.09,.52-8.52,1.92l-44.44,25.66c-4.07,2.35-4.51,5.91-.99,7.94l46.42,26.8c1.79,1.03,4.27,1.47,6.8,1.35-1.97-.09-3.82-.53-5.24-1.35Z"/>
            <path class="cls-30" d="M194.16,140.02l-44.44,25.66c-4.07,2.35-10.23,2.61-13.76,.57l-46.42-26.8c-1.69-.98-2.46-2.31-2.36-3.69h-.02v1.9h.02c-.1,1.38,.67,2.71,2.36,3.69l46.42,26.8c3.53,2.04,9.69,1.78,13.76-.57l44.44-25.66c2.35-1.36,3.48-3.11,3.35-4.75v-1.9c.13,1.64-1,3.39-3.35,4.75Z"/>
            <g>
              <path class="cls-65" d="M186.1,137.5c.51,.29,.51,.77,0,1.06-.51,.29-1.33,.29-1.83,0-.51-.29-.51-.77,0-1.06,.51-.29,1.33-.29,1.83,0Z"/>
              <path class="cls-65" d="M188.95,135.85c.51,.29,.51,.77,0,1.06-.51,.29-1.33,.29-1.83,0-.51-.29-.51-.77,0-1.06,.51-.29,1.33-.29,1.83,0Z"/>
              <path class="cls-65" d="M191.81,134.2c.51,.29,.51,.77,0,1.06s-1.33,.29-1.83,0c-.51-.29-.51-.77,0-1.06,.51-.29,1.33-.29,1.83,0Z"/>
            </g>
          </g>
          <g>
            <path class="cls-7" d="M290.69,184.21l-29.34-16.94c-2.23-1.29-1.95-3.53,.62-5.02l28.09-16.22c2.57-1.49,6.47-1.65,8.7-.36l29.34,16.94c2.23,1.29,1.95,3.53-.62,5.02l-28.09,16.22c-2.57,1.49-6.47,1.65-8.7,.36Z"/>
            <path class="cls-32" d="M349.89,164.9c.01-.16,.01-.33,0-.49v-24.2l-38.45,.17-10.33-5.96c-3.53-2.04-9.69-1.78-13.76,.57l-9.6,5.54-38.21,.17v24.2h.02c-.1,1.38,.67,2.71,2.36,3.69l46.42,26.8c3.53,2.04,9.69,1.78,13.76-.57l44.44-25.66c2.12-1.22,3.24-2.77,3.35-4.26h0Z"/>
            <path class="cls-64" d="M349.89,140.19v-8.66h-22.35l-26.43-15.26c-3.53-2.04-9.69-1.78-13.76,.57l-25.44,14.69h-22.37v9.16h.02c-.1,1.38,.67,2.71,2.36,3.69l46.42,26.8c3.53,2.04,9.69,1.78,13.76-.57l44.44-25.66c2.35-1.36,3.48-3.11,3.35-4.75Z"/>
            <path class="cls-26" d="M349.89,140.19v-8.66h-22.35l-26.43-15.26c-3.53-2.04-9.69-1.78-13.76,.57l-25.44,14.69h-22.37v9.16h.02c-.1,1.38,.67,2.71,2.36,3.69l46.42,26.8c3.53,2.04,9.69,1.78,13.76-.57l44.44-25.66c2.35-1.36,3.48-3.11,3.35-4.75Z"/>
            <path class="cls-62" d="M301.11,116.27c-1.7-.98-4-1.42-6.39-1.36v57.63c2.58-.06,5.26-.71,7.38-1.93l44.44-25.66c2.35-1.36,3.48-3.11,3.35-4.75v-8.66h-22.35l-26.43-15.26Z"/>
            <path class="cls-64" d="M288.34,162.01l-46.42-26.8c-3.53-2.04-3.08-5.59,.99-7.94l44.44-25.66c4.07-2.35,10.23-2.61,13.76-.57l46.42,26.8c3.53,2.04,3.08,5.59-.99,7.94l-44.44,25.66c-4.07,2.35-10.23,2.61-13.76,.57Z"/>
            <path class="cls-19" d="M288.34,162.01l-46.42-26.8c-3.53-2.04-3.08-5.59,.99-7.94l44.44-25.66c4.07-2.35,10.23-2.61,13.76-.57l46.42,26.8c3.53,2.04,3.08,5.59-.99,7.94l-44.44,25.66c-4.07,2.35-10.23,2.61-13.76,.57Z"/>
            <path class="cls-31" d="M289.9,162.01l-46.42-26.8c-3.53-2.04-4.37-5.03,.99-7.94l44.44-25.66c2-1.16,4.51-1.8,6.96-1.92-2.92-.13-6.09,.52-8.52,1.92l-44.44,25.66c-4.07,2.35-4.51,5.91-.99,7.94l46.42,26.8c1.79,1.03,4.27,1.47,6.8,1.35-1.97-.09-3.82-.53-5.24-1.35Z"/>
            <path class="cls-20" d="M346.54,139.65l-44.44,25.66c-4.07,2.35-10.23,2.61-13.76,.57l-46.42-26.8c-1.69-.98-2.46-2.31-2.36-3.69h-.02v1.9h.02c-.1,1.38,.67,2.71,2.36,3.69l46.42,26.8c3.53,2.04,9.69,1.78,13.76-.57l44.44-25.66c2.35-1.36,3.48-3.11,3.35-4.75v-1.9c.13,1.64-1,3.39-3.35,4.75Z"/>
          </g>
          <g>
            <g>
              <path class="cls-7" d="M212.77,269.88l-41.91-24.2c-3.18-1.84-2.78-5.05,.89-7.17l40.12-23.16c3.68-2.12,9.24-2.35,12.42-.51l41.91,24.2c3.18,1.84,2.78,5.05-.89,7.17l-40.12,23.16c-3.68,2.12-9.24,2.35-12.42,.51Z"/>
              <path class="cls-64" d="M273.7,217.59v-8.66h-22.35l-26.43-15.26c-3.53-2.04-9.69-1.78-13.76,.57l-25.44,14.69h-22.37v9.16h.02c-.1,1.38,.67,2.71,2.36,3.69l46.42,26.8c3.53,2.04,9.69,1.78,13.76-.57l44.44-25.66c2.35-1.36,3.48-3.11,3.35-4.75Z"/>
              <path class="cls-4" d="M273.7,217.59v-8.66h-22.35l-26.43-15.26c-3.53-2.04-9.69-1.78-13.76,.57l-25.44,14.69h-22.37v9.16h.02c-.1,1.38,.67,2.71,2.36,3.69l46.42,26.8c3.53,2.04,9.69,1.78,13.76-.57l44.44-25.66c2.35-1.36,3.48-3.11,3.35-4.75Z"/>
              <path class="cls-52" d="M224.92,193.67c-1.7-.98-4-1.42-6.39-1.36v57.63c2.58-.06,5.26-.71,7.38-1.93l44.44-25.66c2.35-1.36,3.48-3.11,3.35-4.75v-8.66h-22.35l-26.43-15.26Z"/>
              <path class="cls-64" d="M212.15,239.41l-46.42-26.8c-3.53-2.04-3.08-5.59,.99-7.94l44.44-25.66c4.07-2.35,10.23-2.61,13.76-.57l46.42,26.8c3.53,2.04,3.08,5.59-.99,7.94l-44.44,25.66c-4.07,2.35-10.23,2.61-13.76,.57Z"/>
              <path class="cls-9" d="M212.15,239.41l-46.42-26.8c-3.53-2.04-3.08-5.59,.99-7.94l44.44-25.66c4.07-2.35,10.23-2.61,13.76-.57l46.42,26.8c3.53,2.04,3.08,5.59-.99,7.94l-44.44,25.66c-4.07,2.35-10.23,2.61-13.76,.57Z"/>
              <path class="cls-54" d="M213.39,233.49l-37.4-21.59c-2.84-1.64-2.49-4.51,.8-6.4l35.8-20.67c3.28-1.89,8.24-2.1,11.09-.46l37.4,21.59c2.84,1.64,2.49,4.51-.8,6.4l-35.8,20.67c-3.28,1.89-8.24,2.1-11.09,.46Z"/>
              <path class="cls-66" d="M176.79,208.3l35.8-20.67c3.28-1.89,8.24-2.1,11.09-.46l37.4,21.59c.7,.41,1.21,.89,1.52,1.41,.82-1.52,.35-3.13-1.52-4.21l-37.4-21.59c-2.84-1.64-7.81-1.43-11.09,.46l-35.8,20.67c-2.47,1.43-3.28,3.4-2.32,4.99,.43-.79,1.2-1.55,2.32-2.19Z"/>
              <path class="cls-23" d="M213.71,239.41l-46.42-26.8c-3.53-2.04-4.37-5.03,.99-7.94l44.44-25.66c2-1.16,4.51-1.8,6.96-1.92-2.92-.13-6.09,.52-8.52,1.92l-44.44,25.66c-4.07,2.35-4.51,5.91-.99,7.94l46.42,26.8c1.79,1.03,4.27,1.47,6.8,1.35-1.97-.09-3.82-.53-5.24-1.35Z"/>
              <path class="cls-16" d="M270.35,217.06l-44.44,25.66c-4.07,2.35-10.23,2.61-13.76,.57l-46.42-26.8c-1.69-.98-2.46-2.31-2.36-3.69h-.02v1.9h.02c-.1,1.38,.67,2.71,2.36,3.69l46.42,26.8c3.53,2.04,9.69,1.78,13.76-.57l44.44-25.66c2.35-1.36,3.48-3.11,3.35-4.75v-1.9c.13,1.64-1,3.39-3.35,4.75Z"/>
              <g>
                <path class="cls-65" d="M262.29,214.53c.51,.29,.51,.77,0,1.06-.51,.29-1.33,.29-1.83,0-.51-.29-.51-.77,0-1.06,.51-.29,1.33-.29,1.83,0Z"/>
                <path class="cls-65" d="M265.15,212.88c.51,.29,.51,.77,0,1.06-.51,.29-1.33,.29-1.83,0-.51-.29-.51-.77,0-1.06,.51-.29,1.33-.29,1.83,0Z"/>
                <path class="cls-65" d="M268,211.23c.51,.29,.51,.77,0,1.06-.51,.29-1.33,.29-1.83,0-.51-.29-.51-.77,0-1.06,.51-.29,1.33-.29,1.83,0Z"/>
              </g>
            </g>
            <g>
              <path class="cls-7" d="M214.5,228.26l-29.34-16.94c-2.23-1.29-1.95-3.53,.62-5.02l28.09-16.22c2.57-1.49,6.47-1.65,8.7-.36l29.34,16.94c2.23,1.29,1.95,3.53-.62,5.02l-28.09,16.22c-2.57,1.49-6.47,1.65-8.7,.36Z"/>
              <path class="cls-32" d="M273.7,208.93c.01-.16,.01-.33,0-.49v-24.2l-38.45,.17-10.33-5.96c-3.53-2.04-9.69-1.78-13.76,.57l-9.6,5.54-38.21,.17v24.2h.02c-.1,1.38,.67,2.71,2.36,3.69l46.42,26.8c3.53,2.04,9.69,1.78,13.76-.57l44.44-25.66c2.12-1.22,3.24-2.77,3.35-4.26h0Z"/>
              <path class="cls-64" d="M273.7,184.24v-8.66h-22.35l-26.43-15.26c-3.53-2.04-9.69-1.78-13.76,.57l-25.44,14.69h-22.37v9.16h.02c-.1,1.38,.67,2.71,2.36,3.69l46.42,26.8c3.53,2.04,9.69,1.78,13.76-.57l44.44-25.66c2.35-1.36,3.48-3.11,3.35-4.75Z"/>
              <path class="cls-22" d="M273.7,184.24v-8.66h-22.35l-26.43-15.26c-3.53-2.04-9.69-1.78-13.76,.57l-25.44,14.69h-22.37v9.16h.02c-.1,1.38,.67,2.71,2.36,3.69l46.42,26.8c3.53,2.04,9.69,1.78,13.76-.57l44.44-25.66c2.35-1.36,3.48-3.11,3.35-4.75Z"/>
              <path class="cls-61" d="M224.92,160.32c-1.7-.98-4-1.42-6.39-1.36v57.63c2.58-.06,5.26-.71,7.38-1.93l44.44-25.66c2.35-1.36,3.48-3.11,3.35-4.75v-8.66h-22.35l-26.43-15.26Z"/>
              <path class="cls-64" d="M212.15,206.06l-46.42-26.8c-3.53-2.04-3.08-5.59,.99-7.94l44.44-25.66c4.07-2.35,10.23-2.61,13.76-.57l46.42,26.8c3.53,2.04,3.08,5.59-.99,7.94l-44.44,25.66c-4.07,2.35-10.23,2.61-13.76,.57Z"/>
              <path class="cls-3" d="M212.15,206.06l-46.42-26.8c-3.53-2.04-3.08-5.59,.99-7.94l44.44-25.66c4.07-2.35,10.23-2.61,13.76-.57l46.42,26.8c3.53,2.04,3.08,5.59-.99,7.94l-44.44,25.66c-4.07,2.35-10.23,2.61-13.76,.57Z"/>
              <path class="cls-8" d="M213.71,206.06l-46.42-26.8c-3.53-2.04-4.37-5.03,.99-7.94l44.44-25.66c2-1.16,4.51-1.8,6.96-1.92-2.92-.13-6.09,.52-8.52,1.92l-44.44,25.66c-4.07,2.35-4.51,5.91-.99,7.94l46.42,26.8c1.79,1.03,4.27,1.47,6.8,1.35-1.97-.09-3.82-.53-5.24-1.35Z"/>
              <path class="cls-18" d="M270.35,183.7l-44.44,25.66c-4.07,2.35-10.23,2.61-13.76,.57l-46.42-26.8c-1.69-.98-2.46-2.31-2.36-3.69h-.02v1.9h.02c-.1,1.38,.67,2.71,2.36,3.69l46.42,26.8c3.53,2.04,9.69,1.78,13.76-.57l44.44-25.66c2.35-1.36,3.48-3.11,3.35-4.75v-1.9c.13,1.64-1,3.39-3.35,4.75Z"/>
            </g>
            <g>
              <path class="cls-56" d="M214.84,177.51c.96,.56,.96,1.46,0,2.02s-2.53,.56-3.49,0c-.96-.56-.96-1.46,0-2.02s2.53-.56,3.49,0Z"/>
              <path class="cls-55" d="M220.28,174.37c.96,.56,.96,1.46,0,2.02s-2.53,.56-3.49,0c-.96-.56-.96-1.46,0-2.02s2.53-.56,3.49,0Z"/>
              <path class="cls-54" d="M225.72,171.24c.96,.56,.96,1.46,0,2.02s-2.53,.56-3.49,0c-.96-.56-.96-1.46,0-2.02,.96-.56,2.53-.56,3.49,0Z"/>
            </g>
            <path class="cls-7" d="M218.23,199.47c-1.72,0-3.37-.35-4.59-1.06l-34.32-19.81c-1.25-.72-1.94-1.73-1.94-2.85,0-1.33,.97-2.65,2.67-3.62l32.86-18.97c3.1-1.79,7.83-1.98,10.52-.42l34.32,19.81c1.25,.72,1.94,1.73,1.94,2.85,0,1.33-.97,2.65-2.67,3.62l-32.86,18.97c-1.69,.98-3.87,1.48-5.93,1.48Zm-4.24-1.66c2.51,1.44,6.91,1.26,9.83-.42l32.86-18.97c1.47-.85,2.32-1.95,2.32-3.02,0-.86-.56-1.66-1.59-2.25l-34.32-19.81c-2.51-1.45-6.92-1.26-9.82,.42l-32.86,18.97c-1.47,.85-2.32,1.95-2.32,3.02,0,.86,.56,1.66,1.58,2.25l34.32,19.81Z"/>
          </g>
          <path class="cls-7" d="M294.42,155.8c-1.72,0-3.37-.35-4.59-1.06l-34.32-19.81c-1.25-.72-1.94-1.73-1.94-2.85,0-1.33,.97-2.65,2.67-3.63l32.86-18.97c3.1-1.79,7.82-1.98,10.52-.42l34.32,19.81c1.25,.72,1.94,1.73,1.94,2.85,0,1.33-.97,2.65-2.67,3.62l-32.86,18.97c-1.69,.98-3.87,1.48-5.93,1.48Zm-4.24-1.66c2.51,1.45,6.92,1.26,9.83-.42l32.86-18.97c1.47-.85,2.32-1.95,2.32-3.02,0-.86-.56-1.66-1.59-2.25l-34.32-19.81c-2.51-1.45-6.91-1.26-9.82,.42l-32.86,18.97c-1.47,.85-2.32,1.95-2.32,3.02,0,.86,.56,1.66,1.58,2.25l34.32,19.81Z"/>
          <path class="cls-7" d="M218.23,111.9c-1.75,0-3.42-.35-4.67-1.07l-34.32-19.81c-1.3-.75-2.01-1.81-2.01-2.98,0-1.38,1-2.75,2.74-3.76l32.86-18.97c3.14-1.82,7.93-2.01,10.67-.42l34.32,19.81c1.3,.75,2.01,1.81,2.01,2.98,0,1.38-1,2.75-2.74,3.75l-32.86,18.97c-1.71,.99-3.91,1.5-6.01,1.5Zm-4.17-1.94c2.47,1.42,6.81,1.23,9.67-.42l32.86-18.97c1.42-.82,2.24-1.88,2.24-2.89,0-.8-.54-1.56-1.51-2.12l-34.32-19.81c-2.46-1.42-6.8-1.23-9.67,.42l-32.86,18.97c-1.42,.82-2.24,1.88-2.24,2.89,0,.8,.54,1.55,1.51,2.12l34.32,19.81Z"/>
        </g>
        <g>
          <polygon class="cls-66" points="168.64 135.62 137.64 117.71 139.86 116.43 170.87 134.33 168.64 135.62"/>
          <polygon class="cls-66" points="163.88 138.37 132.87 120.46 135.1 119.18 166.1 137.08 163.88 138.37"/>
          <polygon class="cls-66" points="159.12 141.12 128.11 123.21 130.33 121.93 161.34 139.83 159.12 141.12"/>
          <polygon class="cls-66" points="154.35 143.86 123.35 125.96 125.57 124.68 156.58 142.58 154.35 143.86"/>
          <polygon class="cls-66" points="149.59 146.61 118.58 128.71 120.81 127.43 151.82 145.33 149.59 146.61"/>
          <polygon class="cls-66" points="144.83 149.36 113.82 131.46 116.05 130.18 147.05 148.08 144.83 149.36"/>
        </g>
        <g>
          <path class="cls-56" d="M291.04,133.65c.96,.56,.96,1.46,0,2.02s-2.53,.56-3.49,0c-.96-.56-.96-1.46,0-2.02s2.53-.56,3.49,0Z"/>
          <path class="cls-55" d="M296.47,130.51c.96,.56,.96,1.46,0,2.02s-2.53,.56-3.49,0c-.96-.56-.96-1.46,0-2.02s2.53-.56,3.49,0Z"/>
          <path class="cls-54" d="M301.91,127.38c.96,.56,.96,1.46,0,2.02-.96,.56-2.53,.56-3.49,0-.96-.56-.96-1.46,0-2.02,.96-.56,2.53-.56,3.49,0Z"/>
        </g>
        <g>
          <path class="cls-56" d="M214.84,89.98c.96,.56,.96,1.46,0,2.02-.96,.56-2.53,.56-3.49,0-.96-.56-.96-1.46,0-2.02s2.53-.56,3.49,0Z"/>
          <path class="cls-55" d="M220.28,86.84c.96,.56,.96,1.46,0,2.02-.96,.56-2.53,.56-3.49,0-.96-.56-.96-1.46,0-2.02,.96-.56,2.53-.56,3.49,0Z"/>
          <path class="cls-54" d="M225.72,83.7c.96,.56,.96,1.46,0,2.02s-2.53,.56-3.49,0c-.96-.56-.96-1.46,0-2.02,.96-.56,2.53-.56,3.49,0Z"/>
        </g>
        <path class="cls-42" d="M186.74,131.15V0H97.89V132.1s0,.08,0,.12h0s0,0,0,0c.05,.99,.68,1.93,1.91,2.64l37.4,21.59c2.84,1.64,7.81,1.43,11.09-.46l35.8-20.67c2.06-1.19,2.97-2.77,2.65-4.18Z"/>
      </g>
      <g>
        <path class="cls-57" d="M294.26,157.81c-1.91,0-3.74-.39-5.1-1.17l-59.21-34.19c-1.35-.78-2.09-1.86-2.09-3.05,0-1.43,1.06-2.86,2.92-3.93l57.55-33.23c3.46-2,8.72-2.21,11.73-.48l59.21,34.19c1.35,.78,2.09,1.86,2.09,3.05,0,1.43-1.06,2.86-2.92,3.93l-57.55,33.23c-1.89,1.09-4.32,1.65-6.62,1.65Zm.69-76.86c-2.24,0-4.6,.54-6.45,1.61l-57.55,33.23c-1.74,1-2.74,2.32-2.74,3.62,0,1.06,.68,2.03,1.91,2.74l59.21,34.19c2.91,1.68,8.01,1.46,11.37-.48l57.55-33.23c1.74-1,2.74-2.32,2.74-3.62,0-1.06-.68-2.03-1.91-2.74l-59.21-34.19c-1.31-.76-3.08-1.13-4.92-1.13Z"/>
        <ellipse class="cls-47" cx="279.51" cy="86.25" rx="48.96" ry="28.26"/>
        <ellipse class="cls-43" cx="332.39" cy="137.67" rx="48.96" ry="28.26"/>
        <ellipse class="cls-37" cx="234.88" cy="111.93" rx="37.64" ry="21.73"/>
        <g>
          <circle class="cls-36" cx="279.94" cy="87.27" r="7.02"/>
          <path class="cls-57" d="M281.94,87.27c0,1.1-.9,2-2,2s-2-.9-2-2,.9-2,2-2,2,.9,2,2Z"/>
        </g>
        <g>
          <path class="cls-48" d="M241.9,113.34c0,3.88-3.14,7.02-7.02,7.02s-7.02-3.14-7.02-7.02,3.14-7.02,7.02-7.02,7.02,3.14,7.02,7.02Z"/>
          <path class="cls-57" d="M236.88,113.34c0,1.1-.9,2-2,2s-2-.9-2-2,.9-2,2-2,2,.9,2,2Z"/>
        </g>
        <g>
          <path class="cls-51" d="M334.99,140.35c0,3.88-3.14,7.02-7.02,7.02s-7.02-3.14-7.02-7.02,3.14-7.02,7.02-7.02,7.02,3.14,7.02,7.02Z"/>
          <path class="cls-57" d="M329.97,140.35c0,1.1-.9,2-2,2s-2-.9-2-2,.9-2,2-2,2,.9,2,2Z"/>
        </g>
        <g>
          <path class="cls-44" d="M347.99,132.68c0,3.88-3.14,7.02-7.02,7.02s-7.02-3.14-7.02-7.02,3.14-7.02,7.02-7.02,7.02,3.14,7.02,7.02Z"/>
          <path class="cls-57" d="M342.98,132.68c0,1.1-.9,2-2,2s-2-.9-2-2,.9-2,2-2,2,.9,2,2Z"/>
        </g>
        <g>
          <circle class="cls-50" cx="353.98" cy="125.13" r="7.02"/>
          <path class="cls-57" d="M355.98,125.13c0,1.1-.9,2-2,2s-2-.9-2-2,.9-2,2-2,2,.9,2,2Z"/>
        </g>
      </g>
    </g>
  </g>
</svg>