<?xml version="1.0" encoding="UTF-8"?>
<svg id="Layer_1" data-name="Layer 1" xmlns="http://www.w3.org/2000/svg" xmlns:xlink="http://www.w3.org/1999/xlink" viewBox="0 0 383.25 383.34">
  <defs>
    <style>
      .cls-1 {
        fill: url(#linear-gradient);
      }
    </style>
    <linearGradient id="linear-gradient" x1="0" y1="191.67" x2="383.25" y2="191.67" gradientUnits="userSpaceOnUse">
      <stop offset="0" stop-color="#8200ff"/>
      <stop offset="1" stop-color="#de00ff"/>
    </linearGradient>
  </defs>
  <path class="cls-1" d="M103.3,0c1.25,0,2.5,0,3.74,0,1.65,.5,3.29,1.05,4.96,1.49,16.77,4.44,31.87,12.03,44.8,23.73,19.5,17.65,30.37,40.11,36.25,65.28,1.64,7,2.63,14.15,3.96,21.46,.79-.53,1.52-.96,2.17-1.47,38.11-29.38,81.58-42.95,129.34-43.82,6.01-.11,7.76,1.66,7.77,7.73,.02,10.23,.13,20.46-.07,30.68-.06,2.93,.98,4.11,3.64,4.95,4.74,1.5,9.43,3.24,13.98,5.23,1.69,.74,3.87,2.29,4.21,3.82,.71,3.27,2.56,3.42,5.1,3.26,1.74-.11,3.49-.03,5.24-.02,9.68,.05,14.85,5.15,14.85,14.73,0,77.08,0,154.17,0,231.25,0,9.77-5.19,14.9-15.07,14.9-53.26,0-106.52-.02-159.78,.05-3.22,0-5.62-.86-7.9-3.27-4.89-5.17-12.83-5.21-17.69-.04-2.39,2.54-4.93,3.32-8.26,3.32-52.39-.06-104.77-.16-157.16,.07-8.1,.04-14.03-2.23-17.39-9.82v-34.43c2.02-2.54,4.53-3.96,7.77-2.79,3.34,1.2,3.5,4.11,3.47,7.12-.06,7.98,.14,15.97-.09,23.95-.1,3.6,1.03,4.71,4.66,4.7,51.9-.1,103.79-.05,155.69-.15,1.78,0,3.86-.79,5.29-1.88,8.62-6.57,20.65-6.66,29.3-.31,1.72,1.27,4.18,2.17,6.3,2.18,51.27,.12,102.55,.09,153.82,.09q5.81,0,5.81-5.66c0-75.72,0-151.45,0-227.17,0-1,.27-2.11-.08-2.96-.4-.97-1.3-2.39-2.07-2.45-3.56-.26-7.14-.12-11.11-.12,0,2.04,0,3.63,0,5.22,0,70.73,0,141.47,0,212.2,0,7.59-1.34,8.93-8.89,8.93-105.42,0-210.83,0-316.25,0-7.86,0-9.12-1.25-9.12-9.07,0-70.73,0-141.47,0-212.2v-5.15c-2.97,0-5.43,0-7.89,0q-5.37,0-5.38,5.35c0,55.39,0,110.78,.02,166.17,0,3.01-.17,5.87-3.57,7.03-3.33,1.14-5.76-.34-7.67-2.98V132.49c2.88-7.77,8.61-10.82,16.65-10.18,1.86,.15,3.76,.19,5.6-.07,.84-.12,2.06-.97,2.24-1.71,.77-3.21,3-4.82,5.82-5.77,8.96-3.01,17.87-6.2,26.96-8.74,3.68-1.03,4.8-2.38,4.76-6.22-.21-23.56-.12-47.12-.09-70.68,0-6.05,2.68-8.22,8.5-6.76,6.27,1.57,12.49,3.36,18.69,5.18,3.28,.96,6.48,2.2,10.22,3.48,0-8.27,.07-15.97-.04-23.67-.05-3.3,.91-5.85,3.98-7.36Zm221.79,78.06c-1.69,0-2.79-.05-3.89,0-14.85,.76-29.52,2.74-43.92,6.55-28.61,7.56-54.53,20.35-77.1,39.66-1.89,1.62-2.98,3.27-2.98,5.99,.08,68.23,.06,136.46,.08,204.7,0,1.12,.18,2.25,.32,3.89,37.78-29.35,80.29-43.23,127.49-44.98,0-1.8,0-3.38,0-4.96,0-38.67,0-77.34,0-116.01,0-5.8,1.71-8.46,5.49-8.58,3.96-.13,5.73,2.52,5.73,8.61,0,41.04,0,82.08,0,123.12,0,7.88-1.15,9.07-9.11,9.15-24.67,.27-48.55,4.76-71.59,13.58-1.93,.74-3.82,1.6-5.73,2.41,33.09-5.41,65.38-2.08,97.64,7.86v-5c0-64.99,0-129.98,0-194.97,0-1,.15-2.04-.08-2.98-.18-.72-.72-1.64-1.33-1.9-3.06-1.25-6.19-2.31-9.87-3.65,0,5.55,.11,10.4-.04,15.24-.1,3.03-1.93,4.84-4.96,5.09-3.21,.26-5.24-1.36-5.92-4.48-.26-1.2-.23-2.48-.23-3.72-.01-13.35,0-26.69,0-40.04v-14.59Zm-139.06,214.31c0-.68,0-1.9,0-3.12,0-53.76-.02-107.51,.01-161.27,0-13.29-1.51-26.38-4.94-39.21-6.48-24.21-17.8-45.43-38.37-60.73-9.57-7.12-20.18-12.11-32.14-15.21,0,1.59,0,2.82,0,4.05,0,69.22,.02,138.44-.06,207.67,0,2.83,.74,4.02,3.63,4.82,21.76,6.04,40.3,17.39,54.1,35.38,6.69,8.72,11.98,18.52,17.77,27.62ZM61.92,115.93c-8.05,2.61-15.21,5.06-22.45,7.22-3.04,.91-3.83,2.54-3.82,5.61,.09,65.24,.07,130.47,.07,195.71,0,1.34,0,2.69,0,4.57,47.15-14.28,93.34-14.88,139.45,6.18-1.16-1.85-1.64-2.71-2.21-3.5-26.08-36.11-60.08-60.65-103.79-71.01-6.68-1.58-7.25-2.3-7.25-9.08,0-43.41,0-86.82,0-130.22,0-1.48,0-2.95,0-5.48Zm11.43-81.98c-.1,2.08-.2,3.18-.2,4.29,0,69.46,0,138.93-.05,208.39,0,2.49,.54,3.63,3.22,4.33,36.29,9.39,66.6,28.6,91.52,56.44,5.3,5.92,10.13,12.26,15.17,18.4-1.62-8.01-3.55-15.97-6.39-23.58-12.29-33.02-34.96-54.79-69.64-63.21-7.19-1.75-7.64-2.26-7.64-9.51,0-60.24,0-120.47,0-180.71,0-1,.27-2.11-.07-2.97-.48-1.19-1.18-2.8-2.19-3.19-7.64-2.96-15.38-5.66-23.73-8.67Zm101.41,314.68c.09-.22,.18-.43,.27-.65-2.41-1.21-4.78-2.48-7.22-3.62-17.25-8.05-35.44-12.47-54.38-13.87-25.84-1.91-50.97,1.82-75.53,9.81-.85,.28-1.94,1.27-2.05,2.06-.29,2.01-.1,4.1-.1,6.26H174.77Zm32.62-.11h140.14c0-1.83-.12-3.44,.03-5.03,.19-1.99-.69-2.82-2.52-3.4-35.49-11.18-71.29-13.98-107.54-3.93-10.19,2.83-19.97,6.7-30.12,12.36Z"/>
</svg>