<?xml version="1.0" encoding="UTF-8"?>
<svg xmlns="http://www.w3.org/2000/svg" viewBox="0 0 100.59 99.02">
  <defs>
    <style>
      .cls-1 {
        fill: #65459e;
      }

      .cls-2 {
        mix-blend-mode: screen;
        opacity: .79;
      }

      .cls-2, .cls-3, .cls-4 {
        fill: #3077c9;
      }

      .cls-5 {
        isolation: isolate;
      }

      .cls-6 {
        fill: #00081a;
        opacity: .5;
      }

      .cls-6, .cls-4 {
        mix-blend-mode: multiply;
      }

      .cls-7 {
        fill: #7e56c6;
      }

      .cls-4 {
        opacity: .35;
      }

      .cls-8 {
        fill: #7398d4;
      }
    </style>
  </defs>
  <g class="cls-5">
    <g id="Layer_1" data-name="Layer 1">
      <g>
        <circle class="cls-6" cx="52.59" cy="51.02" r="48"/>
        <g>
          <g>
            <path class="cls-8" d="M86.21,18.96c-2.43-3.19-5.25-6.07-8.39-8.56-10.17,4.8-34,12.94-58.8-.65-1.31,.99-2.55,2.05-3.75,3.17,35.76,15.61,62.76,8.83,70.95,6.04Z"/>
            <path class="cls-7" d="M77.81,10.4C69.62,3.89,59.27,0,48,0S27.07,3.63,19.01,9.75c24.8,13.59,48.63,5.45,58.8,.65Z"/>
            <path class="cls-3" d="M91.8,28.37c-1.51-3.36-3.39-6.52-5.59-9.41-8.19,2.78-35.18,9.56-70.95-6.04-4.8,4.48-8.69,9.94-11.33,16.05,42.1,21.13,78.22,4.67,87.87-.59Z"/>
            <path class="cls-7" d="M94.32,35.4c-.66-2.43-1.5-4.77-2.52-7.03-9.65,5.26-45.77,21.72-87.87,.59-1.05,2.42-1.9,4.95-2.54,7.55,45.94,20.97,81.74,5.12,92.92-1.12Z"/>
            <path class="cls-1" d="M5.61,70.52c3.4,6.38,8.19,11.9,13.97,16.15,21.22,4.42,44.65,1.8,57.22-.27,6.32-4.75,11.43-11.03,14.78-18.28-10.47,5.14-39.45,15.45-85.97,2.4Z"/>
            <path class="cls-3" d="M95.32,39.96C83.45,46.36,48.75,61.35,.06,50.21c.33,7.32,2.3,14.2,5.55,20.31,46.52,13.05,75.5,2.75,85.97-2.4,2.83-6.12,4.42-12.94,4.42-20.12,0-2.74-.24-5.43-.68-8.04Z"/>
            <path class="cls-8" d="M19.58,86.67c7.96,5.86,17.78,9.33,28.42,9.33s20.77-3.57,28.79-9.59c-12.57,2.07-36,4.69-57.22,.27Z"/>
            <path class="cls-1" d="M95.32,39.96c-.26-1.55-.59-3.06-1-4.56-11.18,6.23-46.99,22.09-92.92,1.12-.9,3.68-1.39,7.52-1.39,11.48,0,.74,.02,1.48,.06,2.21,48.7,11.14,83.39-3.85,95.26-10.26Z"/>
          </g>
          <path class="cls-2" d="M24.66,30.07c-5.26,5.26-11.27,7.78-13.41,5.64-2.15-2.15,.38-8.15,5.64-13.41,5.26-5.26,11.27-7.78,13.41-5.64s-.38,8.15-5.64,13.41Z"/>
          <path class="cls-4" d="M70.74,5.72c5.36,7.75,8.51,17.14,8.51,27.28,0,26.51-21.49,48-48,48-8.23,0-15.97-2.07-22.74-5.72,8.66,12.52,23.11,20.72,39.49,20.72,26.51,0,48-21.49,48-48,0-18.28-10.22-34.17-25.26-42.28Z"/>
        </g>
      </g>
    </g>
  </g>
</svg>