<?xml version="1.0" encoding="UTF-8"?>
<svg xmlns="http://www.w3.org/2000/svg" viewBox="0 0 148.76 108.44">
  <defs>
    <style>
      .cls-1 {
        mix-blend-mode: screen;
        opacity: .79;
      }

      .cls-1, .cls-2 {
        fill: #c5135d;
      }

      .cls-3 {
        isolation: isolate;
      }

      .cls-4 {
        fill: #00081a;
        opacity: .5;
      }

      .cls-4, .cls-5 {
        mix-blend-mode: multiply;
      }

      .cls-6 {
        fill: #ff6144;
      }

      .cls-7 {
        fill: #fe2b4c;
      }

      .cls-8 {
        fill: #d6634e;
      }

      .cls-5 {
        opacity: .37;
      }

      .cls-5, .cls-9 {
        fill: #952265;
      }

      .cls-10 {
        fill: #833f66;
      }

      .cls-11 {
        fill: #730545;
      }
    </style>
  </defs>
  <g class="cls-3">
    <g id="Layer_1" data-name="Layer 1">
      <g>
        <circle class="cls-4" cx="75.73" cy="57.15" r="48"/>
        <g>
          <path class="cls-11" d="M.93,2.47c.52-.93,1.51-1.59,2.51-1.92C4.45,.21,5.49,.06,6.52,.01c2.06-.07,4.08,.15,6.05,.51,1.98,.35,3.92,.83,5.82,1.4,1.91,.57,3.8,1.17,5.64,1.88,1.85,.7,3.69,1.42,5.51,2.19,1.81,.79,3.6,1.61,5.38,2.45,3.57,1.66,7.02,3.55,10.39,5.57,6.73,4.06,13.03,8.76,19.54,13.06,6.51,4.31,13.13,8.45,19.79,12.56,3.31,2.08,6.65,4.15,9.88,6.35,3.25,2.19,6.42,4.49,9.57,6.83,6.29,4.68,12.48,9.52,18.31,14.8,2.91,2.64,5.76,5.36,8.5,8.2,2.75,2.83,5.41,5.74,7.92,8.81,2.5,3.07,4.89,6.26,6.88,9.74,1,1.74,1.89,3.56,2.52,5.52,.3,.98,.52,2.01,.54,3.06,.03,1.05-.24,2.19-.93,3l-.41-.29c.43-.81,.42-1.72,.23-2.6-.19-.88-.55-1.74-.97-2.56-.85-1.66-1.96-3.2-3.11-4.71-2.35-2.99-4.98-5.8-7.68-8.53-5.43-5.44-11.19-10.59-17.03-15.65-5.83-5.07-11.68-10.15-17.68-15.07l-18.12-14.67c-6.08-4.86-12.42-9.41-19.08-13.44-6.66-4.04-13.75-7.33-20.68-10.78-3.47-1.73-6.92-3.47-10.34-5.25-1.72-.88-3.45-1.74-5.18-2.56-1.73-.85-3.46-1.68-5.22-2.47-1.76-.78-3.5-1.57-5.28-2.29-1.78-.71-3.56-1.4-5.36-1.99-1.81-.57-3.63-1.1-5.47-1.35-.92-.12-1.84-.18-2.73-.07-.88,.11-1.75,.39-2.38,1.06l-.41-.29Z"/>
          <g>
            <path class="cls-10" d="M24.92,47.21c-.31,2.22-.49,4.48-.49,6.78,0,4.53,.64,8.91,1.82,13.07,8.17,10.29,23.82,25.41,50,34.77,5.05-.4,9.88-1.57,14.37-3.41-34.56-4.39-58.82-39.94-65.7-51.21Z"/>
            <path class="cls-2" d="M26.25,67.06c5.69,20.16,24.21,34.93,46.18,34.93,1.29,0,2.56-.07,3.82-.16-26.18-9.35-41.83-24.48-50-34.77Z"/>
            <path class="cls-6" d="M32.07,28.03c-1.96,3.04-3.59,6.3-4.83,9.76,7.61,12.73,30.55,46.31,66.97,58.98,4.01-2.04,7.69-4.63,10.94-7.67C61.58,73.97,38.78,39.7,32.07,28.03Z"/>
            <path class="cls-8" d="M27.24,37.79c-1.08,3.01-1.87,6.17-2.33,9.43,6.88,11.26,31.14,46.81,65.7,51.21,1.23-.5,2.42-1.06,3.59-1.65-36.42-12.67-59.35-46.25-66.97-58.98Z"/>
            <path class="cls-9" d="M118.12,39.25c-5.71-17.7-21.4-30.9-40.45-32.97,3.67,5.55,14.82,19.55,40.45,32.97Z"/>
            <path class="cls-2" d="M119.84,46.48c-.39-2.48-.97-4.89-1.73-7.23-25.63-13.42-36.77-27.42-40.45-32.97-1.72-.19-3.47-.29-5.24-.29-.83,0-1.65,.02-2.47,.06,4.76,7.67,18.07,24.51,49.88,40.43Z"/>
            <path class="cls-6" d="M64.28,6.7c-2.12,.36-4.19,.85-6.21,1.48,5.03,7.42,23.95,32.13,62.29,48.26,.04-.81,.06-1.62,.06-2.44,0-1.12-.05-2.22-.13-3.32C85.19,33.41,69.29,13.91,64.28,6.7Z"/>
            <path class="cls-7" d="M69.96,6.06c-1.93,.1-3.82,.32-5.68,.64,5.01,7.22,20.91,26.72,56.02,43.97-.1-1.41-.24-2.81-.46-4.19C88.03,30.56,74.72,13.73,69.96,6.06Z"/>
            <path class="cls-8" d="M58.08,8.18c-3.2,1-6.25,2.34-9.12,3.95,6.22,9.53,27.2,37.43,69.6,55.13,.99-3.46,1.62-7.08,1.81-10.82C82.03,40.31,63.1,15.6,58.08,8.18Z"/>
            <path class="cls-10" d="M48.96,12.13c-2.06,1.16-4.02,2.46-5.88,3.9,8.4,10.62,36.07,42.88,73.04,57.83,.97-2.12,1.78-4.33,2.44-6.6C76.16,49.56,55.18,21.66,48.96,12.13Z"/>
            <path class="cls-2" d="M43.08,16.03c-2.06,1.6-3.99,3.36-5.77,5.27,7.2,10.85,28.83,38.24,74.86,59.63,1.51-2.23,2.83-4.59,3.95-7.06C79.15,58.91,51.48,26.65,43.08,16.03Z"/>
            <path class="cls-7" d="M37.31,21.29c-1.94,2.08-3.69,4.34-5.24,6.74,6.71,11.67,29.51,45.94,73.08,61.07,2.63-2.45,4.99-5.19,7.02-8.18C66.14,59.53,44.51,32.14,37.31,21.29Z"/>
          </g>
          <path class="cls-5" d="M76.25,74.3c-23.93,0-43.76-17.51-47.4-40.42-2.83,6.12-4.42,12.93-4.42,20.11,0,26.51,21.49,48,48,48s48-21.49,48-48c0-2.58-.21-5.11-.6-7.58-7.61,16.46-24.26,27.89-43.58,27.89Z"/>
          <ellipse class="cls-1" cx="74.69" cy="17.68" rx="5.5" ry="13.47" transform="translate(52.43 91.14) rotate(-86.46)"/>
          <path class="cls-11" d="M147.83,105.97c-.52,.93-1.51,1.59-2.51,1.92-1.01,.34-2.05,.49-3.08,.54-2.06,.07-4.08-.15-6.05-.51-1.98-.35-3.92-.83-5.82-1.4-1.91-.57-3.8-1.17-5.64-1.88-1.85-.7-3.69-1.42-5.51-2.19-1.81-.79-3.6-1.61-5.38-2.45-3.57-1.66-7.02-3.55-10.39-5.57-6.73-4.06-13.03-8.76-19.54-13.06-6.51-4.31-13.13-8.45-19.79-12.56-3.31-2.08-6.65-4.15-9.88-6.36-3.25-2.19-6.42-4.49-9.57-6.83-6.29-4.68-12.48-9.52-18.31-14.8-2.91-2.64-5.76-5.36-8.5-8.2-2.75-2.83-5.41-5.74-7.91-8.81-2.5-3.07-4.89-6.26-6.88-9.74-1-1.74-1.89-3.56-2.52-5.52C.24,7.55,.03,6.53,0,5.47c-.03-1.05,.24-2.19,.93-3l.41,.29c-.43,.81-.42,1.72-.23,2.6,.19,.88,.55,1.74,.97,2.56,.85,1.66,1.96,3.2,3.11,4.71,2.35,2.99,4.98,5.8,7.68,8.53,5.43,5.44,11.19,10.59,17.03,15.65,5.83,5.07,11.68,10.15,17.68,15.07l18.12,14.67c6.08,4.86,12.42,9.41,19.08,13.44,6.66,4.04,13.75,7.33,20.68,10.78,3.47,1.73,6.92,3.47,10.34,5.25,1.72,.88,3.45,1.74,5.18,2.56,1.73,.85,3.46,1.68,5.22,2.47,1.76,.78,3.5,1.57,5.28,2.29,1.78,.71,3.56,1.4,5.36,1.99,1.81,.57,3.63,1.1,5.47,1.35,.92,.12,1.84,.18,2.73,.07,.88-.11,1.75-.39,2.38-1.06l.41,.29Z"/>
        </g>
      </g>
    </g>
  </g>
</svg>