<?xml version="1.0" encoding="UTF-8"?>
<svg xmlns="http://www.w3.org/2000/svg" xmlns:xlink="http://www.w3.org/1999/xlink" viewBox="0 0 102.67 103.44">
  <defs>
    <style>
      .cls-1 {
        mix-blend-mode: screen;
        opacity: .79;
      }

      .cls-1, .cls-2, .cls-3 {
        fill: #c23700;
      }

      .cls-4 {
        isolation: isolate;
      }

      .cls-5 {
        fill: #00081a;
        opacity: .5;
      }

      .cls-5, .cls-2 {
        mix-blend-mode: multiply;
      }

      .cls-2 {
        opacity: .26;
      }

      .cls-6 {
        clip-path: url(#clippath);
      }

      .cls-7 {
        fill: none;
      }

      .cls-8 {
        fill: #8c160a;
      }
    </style>
    <clipPath id="clippath">
      <circle class="cls-7" cx="50.67" cy="50.66" r="48"/>
    </clipPath>
  </defs>
  <g class="cls-4">
    <g id="Layer_1" data-name="Layer 1">
      <g>
        <circle class="cls-5" cx="54.67" cy="54.66" r="48"/>
        <g class="cls-6">
          <circle class="cls-3" cx="50.67" cy="50.66" r="48"/>
          <path class="cls-8" d="M61.62,.22s-.27,9.5-10.94,10c-10.67,.5-29.92,3.27-30.92,9.14s.5,7.87-5.5,9.87c-6,2-14.25,6.75-14.25,6.75C0,35.97,8.99-3.28,61.62,.22Z"/>
          <path class="cls-8" d="M74.25,4.22s-3.75,9.5-18,11.25c-14.25,1.75-21,.02-18,3.89s36.5,2.37,35,6.49-20.45,5.87-17.35,8.87c3.1,3,27.36,3.94,33.6-12.28,6.25-16.22-15.25-18.22-15.25-18.22Z"/>
          <path class="cls-8" d="M32.5,24.47s-8.25-3.5-7.25,1.38,18.45,6.13,7.25-1.38Z"/>
          <path class="cls-8" d="M3.42,68.72s10.83-7,13.58-5.5-9.25,13.75-9.25,13.75l-4.33-8.25Z"/>
          <path class="cls-8" d="M92.5,76.97s3.5-7.75-3.25-4.75-18,11.5-20.5,6.5,10.5-15.07,1.75-21.03c-8.75-5.97-16-6.22-17.25,1.03s1.6,16.25-2.58,18.25-6.67,1.25-6.17,6-1.28,9.75-8.26,8c-6.99-1.75-8.26-1.28-9.74-7.25-1.33-5.38-10.43-5.18-9.09,4.04,1.34,9.21,52.34,35.21,75.09-10.79Z"/>
          <path class="cls-8" d="M97.5,29.22s-10-.5-11.5,13.25-7,20.58,0,20.54c7-.04,2.6-9.08,7.41-14.04,4.81-4.96,11.09-5.7,4.09-19.75Z"/>
          <path class="cls-1" d="M28.48,33.11c-5.26,5.26-11.27,7.78-13.41,5.64-2.15-2.15,.38-8.15,5.64-13.41,5.26-5.26,11.27-7.78,13.41-5.64,2.15,2.15-.38,8.15-5.64,13.41Z"/>
          <ellipse class="cls-8" cx="33.75" cy="70.1" rx="7.25" ry="3.63"/>
          <path class="cls-8" d="M30.97,59.92c0,1.24-2,2.24-4.47,2.24s-4.47-1-4.47-2.24,2-2.24,4.47-2.24,4.47,1,4.47,2.24Z"/>
          <path class="cls-2" d="M78.02,11.22c2.4,5.71,3.73,11.99,3.73,18.58,0,26.51-21.49,48-48,48-10.17,0-19.59-3.17-27.35-8.56,7.26,17.28,24.35,29.42,44.27,29.42,26.51,0,48-21.49,48-48,0-16.34-8.18-30.77-20.65-39.44Z"/>
        </g>
      </g>
    </g>
  </g>
</svg>