<?xml version="1.0" encoding="UTF-8"?>
<svg id="Layer_1" data-name="Layer 1" xmlns="http://www.w3.org/2000/svg" xmlns:xlink="http://www.w3.org/1999/xlink" viewBox="0 0 383.26 292.54">
  <defs>
    <style>
      .cls-1 {
        fill: url(#linear-gradient-2);
      }

      .cls-2 {
        fill: url(#linear-gradient-3);
      }

      .cls-3 {
        fill: url(#linear-gradient);
      }

      .cls-4 {
        fill: url(#linear-gradient-4);
      }
    </style>
    <linearGradient id="linear-gradient" x1="0" y1="119.09" x2="383.26" y2="119.09" gradientUnits="userSpaceOnUse">
      <stop offset="0" stop-color="#8200ff"/>
      <stop offset="1" stop-color="#de00ff"/>
    </linearGradient>
    <linearGradient id="linear-gradient-2" x1="172.65" y1="246.62" x2="228.48" y2="246.62" xlink:href="#linear-gradient"/>
    <linearGradient id="linear-gradient-3" x1="109.47" y1="266.88" x2="160.71" y2="266.88" xlink:href="#linear-gradient"/>
    <linearGradient id="linear-gradient-4" x1="242.61" y1="266.88" x2="293.71" y2="266.88" xlink:href="#linear-gradient"/>
  </defs>
  <path class="cls-3" d="M0,128.86c.88-4.11,1.58-8.28,2.68-12.33,13.07-48.22,65.3-71.9,110.3-50.05,.67,.32,1.34,.62,2.04,.94C128.51,25.12,156.48,.21,201.55,0c38.05-.18,64.19,20.41,80.19,54.32,5.76-.91,11.59-2.16,17.49-2.7,16.95-1.55,32.64,2.52,47.11,11.4,3.86,2.37,4.95,5.29,3.2,8.31-1.84,3.18-5.09,3.66-9.07,1.25-17.28-10.49-35.59-12.61-54.53-7.25,.72,10.07,1.42,19.8,2.04,28.54,6.41-.81,13.26-2.59,20.04-2.38,19.09,.61,34.34,16.73,35.37,36.42,.96,18.49-13.07,36.03-31.33,39.13-3.56,.6-7.23,.77-10.69,1.72-14.26,3.9-23.9,12.92-28.79,26.88-1.15,3.28-1.96,6.69-2.79,10.08-2,8.17,2.29,15.63,10.15,17.78,7.52,2.06,14.97-2.28,17.4-10.2,.77-2.5,1.36-5.05,2.1-7.56,1.74-5.92,5.34-8.91,11.48-9.58,30.58-3.32,54.19-24.65,59.96-54.67,3.4-17.71-.39-34.17-10.2-49.26-3.26-5.01-3.29-8.28,.03-10.35,3.23-2.01,6.03-.77,9.31,4.12,32.16,47.97,2.64,113.25-54.71,120.77-3.7,.49-5.54,1.79-6.06,5.42-.3,2.08-.97,4.13-1.68,6.11-4.51,12.66-18.22,19.65-31.14,15.92-12.9-3.73-20.66-16.99-17.78-30.12,2.91-13.27,7.59-25.55,18.25-34.75,8.57-7.4,18.4-11.75,29.69-12.82,14.25-1.35,24.6-11.77,25.59-25.74,.89-12.57-7.94-24.66-20.64-27.61-10.11-2.34-19.02,.33-26.29,7.85-1,1.03-1.77,2.42-2.26,3.79-9.22,25.31-26.13,43.22-51.24,53.18-2.53,1-3.28,2.43-3.29,5.03-.03,4.59,.12,9.32-.88,13.74-2.99,13.21-15.67,22.35-28.74,21.27-14.33-1.19-25.3-12.07-26.05-26.17-.6-11.38-.44-22.72,4.23-33.45,6.76-15.55,18.09-26.22,33.93-32.33,14.41-5.56,22.01-18.23,20.44-33.3-1.55-14.84-14.81-26.83-30.04-27.16-15.37-.33-29.33,11.21-31.41,26.07-.5,3.58-.43,7.25-1.13,10.77-1.68,8.49-5.51,13.16-16.03,20.26,3.06,10.67,4.66,21.6,2.94,32.74-.79,5.15-1.95,10.27-3.31,15.31-1.13,4.19-4.11,5.82-7.52,4.7-3.13-1.03-4.44-4.07-3.15-8.06,4-12.42,4.44-24.92,1.35-37.61-.81-3.32-1.84-4.99-5.83-5.55-14.45-2-24.2-14-23.52-28.96,.21-4.7-1.49-6.75-5.34-8.67-24.7-12.34-54.76-8.37-74.96,10.1-20.94,19.15-27.8,48.62-17.37,74.56,3.5,8.7,11.23,12.55,19.07,9.5,7.81-3.04,10.91-11.12,7.6-19.87-9.68-25.6,8.11-52.52,34.87-52.77,15.73-.15,29.73,8.91,35.81,23.14,6.09,14.26,3.18,30.81-7.91,41.89-7.71,7.7-12.78,16.46-13.82,27.41-1.09,11.36,2.82,21.43,8.62,30.73,3.64,5.84,11.59,7.15,17.72,3.98,6.1-3.15,9.14-10.22,7.02-16.81-.91-2.83-2.22-5.55-3.41-8.28-2.5-5.77-1.81-10.9,2.82-15.38,1.79-1.73,3.37-3.68,5.14-5.43,2.49-2.45,5.71-2.57,8.02-.41,2.19,2.05,2.35,5.1,.37,7.76-.52,.7-1.02,1.48-1.72,1.96-5.14,3.56-4.38,7.52-2.01,12.67,6.36,13.84,.7,28.73-12.51,34.55-13.41,5.91-27.88-.24-34.27-14.28-4.6-10.11-8.09-20.35-7.01-31.7,1.26-13.21,6.66-24.36,16.12-33.64,7.89-7.74,10.52-17.09,7.47-27.73-4.08-14.24-19.22-22.38-33.41-18.21-14.33,4.22-22.58,19.38-18.43,33.68,1.24,4.28,2.9,8.61,3.08,12.98,.53,12.33-7.91,22.65-20,25.4-11.57,2.63-23.95-3.36-28.52-14.63-2.69-6.64-4.07-13.8-6.02-20.73-.3-1.06-.5-2.16-.74-3.24,0-4.99,0-9.98,0-14.97ZM200.83,10.57c-4.58,.51-9.19,.82-13.73,1.57-35.44,5.84-62.78,38.56-62.34,74.49,.12,9.31,7.07,16.59,16.08,16.82,9.37,.24,16.62-6.48,17.28-15.99,.14-1.99,.28-3.98,.49-5.97,2.48-23.49,24.93-40.13,49.16-36.47,22.72,3.43,39.08,26.81,34.4,49.36-3.24,15.59-12.34,26.45-27.23,32.18-14.29,5.5-23.97,15.3-28.89,29.79-2.75,8.1-2.45,16.49-2.06,24.83,.42,8.98,8.05,15.86,16.85,15.68,8.88-.18,15.99-7.18,16.39-16.2,.1-2.24,.05-4.49,.05-6.74,.01-9.89,2.11-13,11.23-16.62,33.54-13.32,53.51-49.33,46.73-84.29-7-36.11-37.95-61.98-74.4-62.44Z"/>
  <path class="cls-1" d="M200.54,218.56c15.62-.01,27.98,12.39,27.94,28.06-.03,15.57-12.64,28.18-28.06,28.07-15.32-.11-27.68-12.57-27.77-27.99-.09-15.62,12.3-28.11,27.89-28.13Zm0,11.23c-9.4,.01-16.73,7.44-16.66,16.9,.07,9.21,7.41,16.65,16.54,16.77,9.21,.12,16.8-7.48,16.83-16.83,.03-9.48-7.28-16.84-16.71-16.83Z"/>
  <path class="cls-2" d="M135.15,241.22c14.04,.05,25.75,11.92,25.56,25.93-.19,14.02-11.74,25.45-25.68,25.39-14.05-.06-25.72-11.89-25.56-25.93,.15-13.98,11.74-25.43,25.68-25.38Zm-.14,11.23c-7.72,.02-14.26,6.55-14.31,14.3-.05,7.88,6.63,14.59,14.48,14.55,7.79-.05,14.26-6.52,14.31-14.29,.04-7.87-6.63-14.58-14.47-14.56Z"/>
  <path class="cls-4" d="M293.71,266.76c0,14.13-11.3,25.67-25.23,25.76-14.17,.1-25.85-11.43-25.87-25.54-.02-14.13,11.65-25.83,25.68-25.75,14.08,.08,25.42,11.47,25.42,25.53Zm-11.23-.1c-.06-7.85-6.46-14.21-14.29-14.21-7.84,0-14.43,6.72-14.35,14.64,.08,7.75,6.64,14.24,14.37,14.21,7.93-.03,14.34-6.6,14.27-14.65Z"/>
</svg>