<?xml version="1.0" encoding="UTF-8"?>
<svg xmlns="http://www.w3.org/2000/svg" xmlns:xlink="http://www.w3.org/1999/xlink" viewBox="0 0 614.55 358">
  <defs>
    <style>
      .cls-1 {
        fill: #8e5058;
      }

      .cls-2 {
        fill: #475a85;
      }

      .cls-3 {
        fill: #504984;
      }

      .cls-4 {
        fill: #3f5075;
      }

      .cls-5, .cls-6 {
        fill: #fff;
      }

      .cls-7 {
        fill: #963c35;
      }

      .cls-8 {
        fill: #7f74d1;
      }

      .cls-9 {
        fill: #b6dbe8;
      }

      .cls-10 {
        fill: #b4c5df;
      }

      .cls-11 {
        fill: #4d6088;
      }

      .cls-12 {
        fill: #ba5646;
      }

      .cls-13 {
        isolation: isolate;
      }

      .cls-14, .cls-15 {
        fill: #98cae3;
      }

      .cls-14, .cls-16 {
        mix-blend-mode: color-burn;
      }

      .cls-17 {
        fill: #d65863;
      }

      .cls-18, .cls-16 {
        fill: #586d9c;
      }

      .cls-19 {
        fill: #bddac3;
      }

      .cls-20 {
        fill: #a1bab0;
      }

      .cls-21 {
        fill: #f4da7f;
      }

      .cls-6 {
        mix-blend-mode: soft-light;
      }

      .cls-22, .cls-23, .cls-24 {
        fill: #87a9a2;
      }

      .cls-25 {
        fill: #e0ad2c;
      }

      .cls-26 {
        fill: #5470d3;
      }

      .cls-27 {
        fill: #8833c4;
      }

      .cls-28 {
        fill: #64364a;
      }

      .cls-29 {
        fill: #372d5b;
      }

      .cls-30 {
        fill: #3f1751;
      }

      .cls-31 {
        fill: #282142;
      }

      .cls-23, .cls-32 {
        mix-blend-mode: screen;
        opacity: .79;
      }

      .cls-33 {
        fill: #384967;
      }

      .cls-24, .cls-34, .cls-35, .cls-36 {
        mix-blend-mode: multiply;
      }

      .cls-24, .cls-36 {
        opacity: .35;
      }

      .cls-37 {
        fill: #c3987c;
      }

      .cls-38 {
        fill: #cfbcdd;
      }

      .cls-39 {
        fill: #df7662;
      }

      .cls-34 {
        fill: #09111f;
        opacity: .5;
      }

      .cls-40 {
        clip-path: url(#clippath);
      }

      .cls-41 {
        fill: #d0b359;
      }

      .cls-42 {
        fill: none;
      }

      .cls-43 {
        fill: #c5e9f7;
      }

      .cls-44 {
        fill: #6f86b8;
      }

      .cls-45 {
        fill: #7cabc1;
      }

      .cls-46 {
        fill: #f6a397;
      }

      .cls-32, .cls-47, .cls-36 {
        fill: #7b361a;
      }

      .cls-48 {
        fill: #a6c8b2;
      }

      .cls-35 {
        fill: #c7caca;
      }

      .cls-49 {
        fill: #8b54d1;
      }

      .cls-50 {
        fill: #314ec6;
      }

      .cls-51 {
        fill: #8aa0cd;
      }

      .cls-52 {
        fill: #874438;
      }

      .cls-53 {
        fill: #32405a;
      }

      .cls-54 {
        fill: #c1331f;
      }

      .cls-55 {
        fill: #d9f0f7;
      }
    </style>
    <clipPath id="clippath">
      <circle class="cls-42" cx="43" cy="220.02" r="28.08" transform="translate(-180.94 209.6) rotate(-76.28)"/>
    </clipPath>
  </defs>
  <g class="cls-13">
    <g id="OBJECTS">
      <path class="cls-38" d="M603.96,288.23c-26.01,39.46-70.61,62.65-117.87,62.65H93.84c-78.84,0-123.05-92.18-71.92-144.09,51.13-51.91,5.97-96.24,84.84-137.86,76.41-40.33,102.49,45.63,172.88-10.61,70.39-56.24,172.87-50.94,195.38,6.37,22.52,57.31,17.21,77.47,64.96,90.2,47.75,12.73,94.45,84.89,65.79,130.53-.6,.95-1.2,1.89-1.81,2.82Z"/>
      <g>
        <g>
          <path class="cls-46" d="M341.92,272.04c-5.68,6.75-10.83,17.94-14.03,19.72-3.2,1.78-8.59,2.39-13.68,18.79s20.62,14.15,20.62,14.15c0,0,11-6.32,15.44-21.58l11.01-9.77-19.36-21.31Z"/>
          <path class="cls-17" d="M322.03,322.9s8.32-2.71,15.38-10.17c7.09-7.49,8-20.8,8-20.8l3.39,6.34,6.79-7.26,3.27-.32,2.41,2.66-11.01,9.77c-4.44,15.26-15.44,21.58-15.44,21.58,0,0-7.09,.61-13.09-1.17,.15-.39,.28-.63,.28-.63Z"/>
          <path class="cls-26" d="M380.48,213.31c-7.88,5.76-12.58,9.94-16.5,17.77-3.92,7.83-28.46,35.98-30.03,38.49-1.57,2.51,13.8,29.15,26.09,35.67,0,0,18.56-21.41,29.27-29.51,10.71-8.1,7.05-36.82,2.09-46.48-4.96-9.66-10.92-15.94-10.92-15.94Z"/>
          <path class="cls-50" d="M380.19,265.14v-15.99s2.08-.83,3.71,4.56c.65,2.16,.6,4.43,.31,6.38l11.95-8.99c.49,10.06-1.12,20.3-6.85,24.63-10.71,8.1-29.27,29.51-29.27,29.51-3.17-1.68-6.55-4.71-9.78-8.31,7.56-7.53,21.9-22.05,29.93-31.79Z"/>
          <path class="cls-46" d="M303.83,318.38c-2.04,.64-3.55,1.61-3.55,4.19s.44,6.66,1.42,8.26c.98,1.6,6.02,2.56,6.02,2.56,0,0-.34-10.64-1.4-12.59-1.07-1.95-2.48-2.41-2.48-2.41Z"/>
          <path class="cls-17" d="M301.69,330.83c-.27-.45-.5-1.11-.7-1.86,1.09,1.08,1.46,1.08,2.8,1.23l3.83,1.19c.06,1.2,.08,2,.08,2,0,0-5.04-.96-6.02-2.56Z"/>
          <path class="cls-46" d="M308.71,314.49c-2.49,.27-4.97,2.13-4.97,4.71s-.89,9.77,0,10.92c.89,1.15,5.24,4.44,6.75,4.71,1.51,.27,4.07-.18,3.72-.98s-5.5-19.36-5.5-19.36Z"/>
          <path class="cls-17" d="M303.36,328.19c1.89,2.13,6.71,1.94,6.71,1.94,0,0,2.12,2.26,2.38,2.99,.16,.44,1.03,1.02,1.14,1.46-.8,.3-2.16,.42-3.1,.25-1.48-.26-5.68-3.42-6.68-4.63l-.44-2s0,0,0,0Z"/>
          <path class="cls-46" d="M318.03,310.24c-7.63,.43-9.05,1.14-9.32,4.25-.27,3.11-.09,12.17,.89,14.48,.98,2.31,1.51,4.35,2.75,5.6,1.24,1.24,3.1,1.25,3.1,1.25,0,0,4.18-6.13,4.36-11.28,.18-5.15-1.78-14.28-1.78-14.28Z"/>
          <path class="cls-17" d="M313.64,330.71c.39-2.11,1.25-4.36,1.35-11.42,.04-2.65,2.5,11.2,1.4,15-.55,.94-.94,1.52-.94,1.52,0,0-1.86,0-3.1-1.25-1.24-1.24-1.78-3.29-2.75-5.59-.06-.15-.12-.33-.18-.54,.5,1.3,2.08,2.15,4.22,2.28Z"/>
          <path class="cls-46" d="M334.73,325.86c-.48,4.24-6.04,5.77-6.66,7.9-.62,2.13-.18,4.09-1.24,4.62-1.07,.53-5.51-1.95-5.33-4.8,0,0-1.15,2.4-3.73,2.84-2.58,.44-3.2-1.44-2.75-4.27,.44-2.83,.36-4.34,.27-7.72-.09-3.37-.89-6.48,.62-10.21,1.51-3.73,3.55-7.02,7.64-6.39,4.09,.62,6.57,5.77,8.79,7.55,2.22,1.78,2.93,5.77,2.4,10.48Z"/>
          <path class="cls-17" d="M321.5,333.58c.25-5.4,.53-9.81,.53-10.68s-.28-6.6,1.75-6.95c.31-.05,4.79,2.79,4.87,4.7,.09,1.91,0,5.35-1.39,6.33-1.39,.98-5.77,6.6-5.77,6.6Z"/>
        </g>
        <g>
          <path class="cls-49" d="M506.57,224.81c-8.1-10.27-10.88-11.32-19.24-16.19-8.36-4.87-40.04-17.24-46.57-18.8-6.53-1.57-32.86,10.71-41.5,14.62-8.64,3.92-19.63,7.77-21.51,11.59-6.27,12.78,6.15,30.89,6.21,68.84,.03,19.88,4.56,64.58,4.56,64.58,0,0,99.49,.19,100.89-1.9,1.39-2.09,4.87-73.47,6.62-88.09,1.74-14.62,10.53-34.64,10.53-34.64Z"/>
          <path class="cls-50" d="M378.12,236.04c-.75-2.4-1.19-4.85-1.56-7.31-.34-2.46-.61-4.93-.57-7.45,.75,2.4,1.19,4.85,1.56,7.31,.34,2.46,.61,4.93,.57,7.45Z"/>
          <path class="cls-50" d="M415.33,221.09c-3.84-1.44-12.95,1.06-14.62,1.64-1.66,.58,.98-6.54,1.96-7.42,.98-.88,2.55-2.93,5.55-2.01,3,.93,5.53,4.37,5.96,5.5,.44,1.13,1.15,2.28,1.15,2.28Z"/>
          <path class="cls-50" d="M447.36,227.03c-1.37-.07-9.37-3.74-11.28-4.66s-10.59-1.34-16.42,.29c0,0,11.21-7.58,17.74-7.51,6.53,.07,9.01,2.42,9.53,4.5,.52,2.09,.42,7.38,.42,7.38Z"/>
          <path class="cls-27" d="M404.59,333.45c1.07-1.04,66.05,1.04,67.35-5.75s2.2-19.14,2.2-19.14c-7.82,4.18-19.18,2.44-19.18,2.44,7.57-2.47,18.54-14.9,19.06-18.55,1.61-11.26-4.41-42.31-4.41-42.31l4.41-8.87,5.16-2.87s9.78,4.87,18.14,13.83c-.56,2.48-1.02,4.92-1.29,7.23-1.64,13.79-4.83,78.01-6.36,87.07-20.13,.74-56.61,2.08-81.02,2.92-11.83,.03-20.13,.01-20.13,.01,0,0-.15-5.88-.51-14.31,6.81-.4,15.9-1.05,16.56-1.69Z"/>
          <path class="cls-26" d="M417.78,222.99c7.01-.85,18.28-6.92,22.72-4.83,4.44,2.09,5.48,7.44,6.4,8.36s4.83-3.66,4.83-14.89,.34-22.73-7.92-24.29c-8.27-1.56-29.68,6.53-33.99,9.8-4.31,3.26-6.14,6.57-7.31,9.75-1.18,3.18-4.31,15.97-2.87,16.1,1.44,.13,5.48-8.23,8.49-8.49,3-.26,7.76,8.72,9.66,8.49Z"/>
          <path class="cls-50" d="M413.79,212.93c-1.79-4.24-3.75-7.96-3.68-10.9,.07-2.94,.72-4.96,3.98-5.88s4.64,.85,4.83,5.29c.2,4.44-5.13,11.49-5.13,11.49Z"/>
          <path class="cls-50" d="M439.39,205.02c6.83-6.19,7.6-13.11,6.96-14.55-.64-1.44-3.46-2.48-3.46-2.48,0,0-1.11,4.5-.46,5.61,.65,1.11-3.04,11.41-3.04,11.41Z"/>
          <path class="cls-50" d="M428.53,219.99c1.66-.75,3.4-1.33,5.17-1.81,1.78-.43,3.61-.78,5.5-.65,.94,.07,1.94,.27,2.78,.94,.74,.7,1.3,1.33,1.93,2.04,1.24,1.41,2.1,3.13,2.89,4.74,.18,.37,.45,.81,.57,.85,.01,0,0,.03,.15-.06,.12-.08,.25-.22,.38-.38,.51-.65,.92-1.46,1.33-2.26,.82-1.56,1.26-3.29,1.61-5.06,.34-1.77,.54-3.57,.66-5.37,.16-1.81,.21-3.62,.23-5.44,.36,3.63,.36,7.3-.14,10.95-.24,1.82-.7,3.66-1.52,5.35-.41,.83-.82,1.65-1.42,2.45-.16,.2-.33,.4-.58,.58-.12,.09-.29,.18-.49,.22-.21,.05-.46,.02-.64-.07-.37-.19-.53-.44-.68-.65-.15-.22-.26-.43-.37-.64-.79-1.65-1.57-3.23-2.72-4.58-.55-.67-1.19-1.41-1.76-1.97-.59-.49-1.44-.74-2.3-.85-1.74-.21-3.55,.04-5.32,.37-1.78,.31-3.53,.8-5.27,1.33Z"/>
          <path class="cls-50" d="M412.45,217.64c-.76-.67-1.51-1.34-2.33-1.89-.41-.28-.82-.54-1.25-.73-.22-.08-.42-.15-.62-.17-.09,0-.18,0-.25,.02-.06,.04-.1,.03-.22,.12-1.68,1.04-2.99,2.46-4.11,4.1-.57,.79-1.06,1.69-1.73,2.51-.33,.4-.69,.8-1.14,1.15-.24,.16-.47,.35-.89,.4-.2,.03-.48-.05-.65-.21-.17-.16-.26-.33-.31-.48-.18-.62-.12-1.13-.08-1.66,.06-.52,.16-1.02,.27-1.52,.25-.99,.53-1.96,.88-2.91-.14,1-.32,1.99-.4,2.99-.06,.5-.09,.99-.1,1.48,0,.47,0,.99,.15,1.33,.03,.09,.08,.13,.1,.14,.02,0,0,0,.05,0,.08,0,.28-.12,.44-.26,.33-.28,.65-.65,.93-1.04,.59-.76,1.06-1.63,1.65-2.49,.59-.84,1.24-1.65,2-2.38,.75-.72,1.63-1.34,2.53-1.82,.08-.06,.29-.13,.46-.18,.17-.03,.34-.01,.5,0,.3,.06,.57,.17,.81,.3,.47,.27,.88,.59,1.27,.93,.75,.71,1.43,1.45,2.03,2.28Z"/>
          <path class="cls-46" d="M412.83,187.43c.02,2.76,.13,5.51,.41,8.25,.7,6.73,.01,15.61,.55,17.25,.59,1.83,4.12,8.36,4.12,8.36,0,0,6.27-2.87,8.88-6.01,2.61-3.13,6.01-3.29,10.58-7.91,4.57-4.62,7.68-11.96,6.66-18.07-.13-.78-.93-8.6-1.11-16.7-.18-8.1-8.68-14.25-16.78-14.25s-12.94,12.01-13.19,20.11c-.1,3.32-.12,6.44-.11,8.96Z"/>
          <path class="cls-17" d="M442.92,172.6c.18,8.1,.98,15.92,1.11,16.7,.31,1.89,.23,3.89-.16,5.9-1.79,.33-24.85,.89-30.82-1.89-.14-1.96-.2-3.92-.21-5.88-.01-2.52,0-5.64,.11-8.96,.11-3.43,1.04-7.57,2.7-11.19l18.97-6.72c4.65,2.48,8.2,6.86,8.31,12.05Z"/>
        </g>
        <g>
          <path class="cls-3" d="M398.63,138.89c-12.25,0-16.83,9.41-16.83,16.46,0,6.33,2.03,16.46,16.83,16.46,7.4,0,12.41-7.37,12.41-16.46s-5.01-16.46-12.41-16.46Z"/>
          <path class="cls-29" d="M398.09,142.92c-9.25,0-12.71,7.11-12.71,12.43,0,4.78,1.53,12.43,12.71,12.43,5.59,0,9.37-5.57,9.37-12.43s-3.78-12.43-9.37-12.43Z"/>
          <path class="cls-46" d="M383.18,144.45c.72,4.29,2.85,5.93,3.8,11.72,.95,5.79-1.58,14.19,2.19,21.52,3.77,7.32,9.88,16.95,13.4,17.36,3.53,.41,31.77-4.36,41.3-23.31,2.73-5.44,8.58-26.77,3.58-39.79-5-13.02-13.14-24.96-31.94-25.32-18.81-.36-36.16,15.08-32.32,37.83Z"/>
          <path class="cls-7" d="M432.17,144.45c-.72-4.46-3.7-7.04-3.7-7.04,0,0-7.19-2.98-12.75-3.53-5.56-.54-11.26-2.17-11.26-2.17,0,0,1.76,4.46,4.75,6.37,0,0-13.29-.67-17.49-4.61,0,0,.81,3.24,1.63,5.42,0,0-6.51-.67-8.54-3.25,0,0-1.63,5.67-1.63,8.8,0,0-7.82-10.7-5.83-19.2,1.99-8.5,4.7-11.75,4.7-11.75,0,0-5.61,.54-8.68,0,0,0,7.23-6.33,12.66-10.49,5.42-4.16,21.7-4.34,21.7-4.34,0,0-1.27-4.34,.18-11.21,0,0,6.96,10.22,14.33,13.34,7.37,3.12,6.38,2.85,14.19,4.83,7.81,1.97,15.24,6.97,18.36,11.18s6.51,8.54,8.54,9.22c0,0-4.88-.68-7.32-2.71,0,0,4.07,9.25-1.31,21.15s-18.86,8.38-21.47,5.75c-2.61-2.63-1.05-5.75-1.05-5.75Z"/>
          <path class="cls-52" d="M433.22,150.2c-2.61-2.63-1.05-5.75-1.05-5.75-.43-2.7-1.69-4.7-2.62-5.87,1.96-11.86,1.16-24.17-2.32-35.68,2.03,.82,3.24,1.19,6.17,1.95,3.61,5.43,6.31,11.53,8.16,17.72,2.37,7.88,3.51,16.38,1.3,24.31-.57,2.03-1.39,4.01-2.43,5.87-3.34-.28-6.17-1.48-7.22-2.54Z"/>
          <path class="cls-3" d="M436.9,140.03s.93-29.74-14.67-39.24c0,0,12.07-1.36,18.99,10.71,6.92,12.07,6.45,22.42,6.27,28.22-.17,5.8-10.59,.3-10.59,.3Z"/>
          <path class="cls-3" d="M441.66,138.89c12.25,0,16.83,9.41,16.83,16.46,0,6.33-2.03,16.46-16.83,16.46-7.4,0-12.41-7.37-12.41-16.46s5.01-16.46,12.41-16.46Z"/>
          <path class="cls-29" d="M435.05,155.35c0-8.07,5.33-14.61,11.9-14.61s11.54,6.54,11.54,14.61-4.97,14.61-11.54,14.61-11.9-6.54-11.9-14.61Z"/>
          <ellipse class="cls-3" cx="448.52" cy="155.35" rx="8.1" ry="9.95"/>
          <path class="cls-30" d="M418.39,141.61c-1.13-.62-2.34-1.05-3.59-1.41-1.25-.34-2.55-.53-3.87-.58-1.31-.07-2.69-.1-3.96,.39-1.27,.44-2.42,1.24-3.27,2.29l.1,.16c1.36-.15,2.49-.48,3.68-.64,1.16-.17,2.29-.6,3.5-.7,2.4-.2,4.92-.01,7.34,.66l.08-.17Z"/>
          <path class="cls-30" d="M385.5,145.12c.59-.23,1.21-.37,1.82-.44,.61-.08,1.23-.11,1.84-.12,.61,0,1.22,.21,1.82,.06,.3-.07,.61-.13,.92-.26,.32-.11,.64-.25,.99-.49l.02-.19c-.59-.58-1.26-.82-1.94-.95-.69-.13-1.36,.15-2.02,.33-.66,.17-1.31,.4-1.92,.72-.6,.33-1.18,.68-1.65,1.19l.12,.15Z"/>
        </g>
        <g>
          <path class="cls-3" d="M404.59,339.88c0,.42-.58,1.03-2.02,1.03h-45.29c-5.22,0-6.44-2.07-4.87-4.68,1.57-2.61,8.18-8.36,24.55-12.36,16.36-4,24.97,5.36,27.63,9.58,1.95,3.09,0,6.43,0,6.43Z"/>
          <path class="cls-29" d="M352.02,337.02c.9,3,35.46,1.43,35.46,1.43,0,0-3.5-4.73-7.38-4.87-3.87-.14-5.76,1.21-10.95,2.1-5.19,.89-1.34-2.11-1.34-2.11,0,0-3.67-.81-5.16-1.97,0,0,8.56-2.53,12.15-3.12s12.73-.2,13.91,0c.83,.14,5.05-2.31,10.15-1.08,2.84,2.08,4.73,4.43,5.74,6.04,1.95,3.09,0,6.43,0,6.43,0,.42-.58,1.03-2.02,1.03h-45.29c-4.69,0-6.14-1.66-5.26-3.89Z"/>
          <path class="cls-46" d="M499.82,311.57s-32.21,4.98-49.66,8.1c-16.54,2.96-30.81,4.24-34.86,3.46s-17.89-5.88-22.33-7.7-13.32-2.87-17.89-1.44c-4.57,1.44-8.31,3-10.14,3s-1.48,2.96,.96,3.57c2.44,.61,4.61,.52,4.61,.52,0,0-8.27,4.53-9.75,4.96s.27,3.13,2.28,2.96c0,0-1.75,1.04-1.14,2.09,.61,1.04,4.96,1.04,4.96,1.04,0,0-5.31,2.61-.87,3.66,4.44,1.04,9.75-3.92,11.93-4.35,2.18-.44,7.22-.17,9.66,1.65s12.88,10.27,27.16,5.22c0,0,96.9,3.93,106.56,3.93s15.5-8.54,12.4-24.99c-3.1-16.45-9.1-28.73-9.1-28.73l-33.43,2.35,8.66,20.69Z"/>
          <g>
            <path class="cls-17" d="M378.14,318.47c.85-.2,1.53-.32,1.96-.34,0,0-.83,.14-1.96,.34Z"/>
            <path class="cls-17" d="M370.52,321.09s-2.18,.09-4.61-.52c-.69-.17-1.2-.53-1.55-.96,2.71,1.2,6.05,.43,7.87,0,1.15-.27,3.98-.79,5.92-1.14-1.94,.46-4.78,1.35-7.63,2.62Z"/>
          </g>
          <g>
            <path class="cls-17" d="M370.94,325.01c.21-.09,.39-.17,.5-.2,0,0-.19,.08-.5,.2Z"/>
            <path class="cls-17" d="M360.78,327.99s.99,.87,3,0c1.68-.73,5.74-2.4,7.16-2.98-1.78,.81-6.61,3.54-7.9,4-.89,.08-1.73-.41-2.26-1.02Z"/>
          </g>
          <path class="cls-17" d="M365.78,331.19c1.48-.44,4.57-2.31,6.46-3.2,1.89-.89,4.31-1,4.31-1,0,0-.72,.07-2.61,1-1.89,.93-7.08,4.16-7.08,4.16,0,0-2.79,0-4.22-.54,.01,0,1.67,.01,3.14-.42Z"/>
          <path class="cls-17" d="M393.33,333.32c2.74,1.7,10.84,3.92,15.67,3s5.88-4.96,5.88-4.96l1.35,4.35s67.2,1.92,80.87,1.3c13.51-.61,34.58-.91,37.33-9.03-.75,9.42-5.86,14.27-13.13,14.27-9.66,0-106.56-3.93-106.56-3.93-14.28,5.05-24.72-3.39-27.16-5.22-2.03-1.52-5.85-1.95-8.34-1.81,0,0,0,0,0,0,3.71-1.3,11.35,.33,14.09,2.03Z"/>
          <path class="cls-17" d="M499.82,311.57s12.59-1.71,15.11-1.97l-1.91-7.83-15.93,3.22,2.73,6.59Z"/>
          <path class="cls-26" d="M533.47,289.64c.47,1.23,.17,2.61-.77,3.52-5.85,5.71-13.53,13.5-21.43,14.69-8.62,1.31-22.98,1.83-23.76,0s-3.66-25.07-8.88-36.82c-5.22-11.75-8.62-17.76-9.92-24.55s10.45-22.72,15.67-24.03c5.22-1.31,17.24-2.09,22.2,2.35s8.62,21.41,14.36,34.21c4.64,10.33,10.46,25.24,12.54,30.62Z"/>
          <path class="cls-50" d="M501.15,222.24c-1.6-.18-3.2-.32-4.8-.35-1.6-.06-3.2-.06-4.79,.03-1.59,.1-3.17,.26-4.73,.54-.78,.12-1.55,.31-2.32,.48-.72,.26-1.46,.45-2.12,.86-.7,.31-1.31,.81-1.96,1.24-.59,.52-1.21,.99-1.75,1.57-1.15,1.08-2.11,2.35-3.1,3.59-.96,1.27-1.82,2.62-2.65,3.99-.85,1.36-1.6,2.77-2.34,4.21,1.08-3.04,2.57-5.93,4.36-8.64,.91-1.34,1.9-2.65,3.05-3.82,.54-.62,1.21-1.12,1.82-1.67,.68-.47,1.33-1,2.09-1.36,.72-.43,1.55-.65,2.35-.93,.8-.17,1.6-.36,2.4-.46,1.61-.23,3.24-.38,4.86-.37,3.24,0,6.48,.31,9.61,1.08Z"/>
          <path class="cls-50" d="M526.95,294.45c-.04-4.17-8.85-42.42-16.64-63.75h0c3.31,7.28,6.4,18.92,10.62,28.32,4.64,10.33,10.46,25.24,12.54,30.62,.47,1.23,.17,2.61-.77,3.52-2.24,2.19-4.75,4.68-7.44,6.99,.2-.2,1.73-1.8,1.69-5.7Z"/>
        </g>
      </g>
      <g>
        <g>
          <path class="cls-31" d="M324.29,333.12h-96.43c-.97,0-1.76,.79-1.76,1.76v4.27c0,.97,.79,1.76,1.76,1.76h96.43v-7.79Z"/>
          <path class="cls-3" d="M349.1,338.5v1.74c0,.38-.3,.68-.68,.68h-24.29c-.76,0-1.37-.61-1.37-1.37v-5.06c0-.82,.71-1.45,1.52-1.36l24.21,4.7c.34,.04,.6,.33,.6,.68Z"/>
        </g>
        <g>
          <g>
            <path class="cls-3" d="M155.76,169.23h180.23c3.65,0,6.9,2.29,8.14,5.72l39.42,109.46c1.65,5.65-2.48,9.88-9.12,10.59-1.02,.11-5.86-2.07-13.46-5.64H199.84c-3.65,0-6.9-2.29-8.14-5.72l-35.61-98.88c-6.02-3.14-9.45-4.94-9.45-4.94,0,0-2.23-10.59,9.12-10.59Z"/>
            <path class="cls-29" d="M330.35,174.87H150.12c-2.56,0-4.34,2.54-3.48,4.95l39.42,109.46c1.24,3.43,4.49,5.72,8.14,5.72h180.23c2.56,0,4.34-2.54,3.48-4.95l-39.42-109.46c-1.24-3.43-4.49-5.72-8.14-5.72Z"/>
            <polygon class="cls-31" points="289.66 294.99 281.66 265.32 251.34 294.99 289.66 294.99"/>
            <path class="cls-3" d="M245.78,213.31c.79,4.89,3.96,6.87,7.75,6.87s6.64-3.13,5.98-6.87c-.66-3.73-3.96-6.87-7.75-6.87s-6.59,3.12-5.98,6.87Z"/>
            <g>
              <polygon class="cls-31" points="330.48 276.78 328.16 270.34 331.08 270.34 333.39 276.78 330.48 276.78"/>
              <polygon class="cls-31" points="324.35 276.78 322.03 270.34 324.94 270.34 327.26 276.78 324.35 276.78"/>
              <polygon class="cls-31" points="318.21 276.78 315.89 270.34 318.81 270.34 321.12 276.78 318.21 276.78"/>
              <polygon class="cls-31" points="312.08 276.78 309.76 270.34 312.67 270.34 314.99 276.78 312.08 276.78"/>
            </g>
            <g>
              <polygon class="cls-31" points="224.94 276.78 222.62 270.34 225.54 270.34 227.86 276.78 224.94 276.78"/>
              <polygon class="cls-31" points="218.81 276.78 216.49 270.34 219.4 270.34 221.72 276.78 218.81 276.78"/>
              <polygon class="cls-31" points="212.67 276.78 210.36 270.34 213.27 270.34 215.59 276.78 212.67 276.78"/>
              <polygon class="cls-31" points="206.54 276.78 204.22 270.34 207.13 270.34 209.45 276.78 206.54 276.78"/>
            </g>
          </g>
          <g>
            <path class="cls-29" d="M228.8,330.33c1.78-5.11,23.35-74.7,23.35-74.7h27.68l1.83,9.69s-18.56,59.9-20.34,65.01c-.14,.39-.26,.78-.39,1.17h0c-1.63,5,2.66,4.98,7.5,4.98h48.82v4.43h-81.34c-9.78,0-8.89-5.46-7.11-10.58Z"/>
            <path class="cls-3" d="M279.83,255.63s-21.57,69.59-23.35,74.7c-1.78,5.11-2.67,10.58,7.11,10.58h-32.52c-9.78,0-8.89-5.46-7.11-10.58s23.35-74.7,23.35-74.7h32.52Z"/>
            <path class="cls-8" d="M273.05,255.63c-2.14-.1-4.29-.15-6.43-.22-2.14-.07-4.29-.09-6.43-.14-2.14-.03-4.29-.1-6.43-.1l-6.43-.04h-.36s-.11,.35-.11,.35c-.9,2.8-1.78,5.61-2.62,8.43l-2.57,8.45c-1.65,5.65-3.3,11.3-4.81,16.99,1.98-5.55,3.82-11.14,5.66-16.73l2.67-8.41c.9-2.8,1.76-5.61,2.61-8.43l-.47,.35,6.43-.04c2.14,0,4.29-.06,6.43-.1,2.14-.05,4.29-.06,6.43-.14,2.14-.07,4.29-.12,6.43-.22Z"/>
          </g>
        </g>
      </g>
      <g>
        <path class="cls-1" d="M84.45,358h477.34c4.72,0,8.54-3.82,8.54-8.54h0c0-4.72-3.82-8.54-8.54-8.54H84.45c-4.72,0-8.54,3.82-8.54,8.54h0c0,4.72,3.82,8.54,8.54,8.54Z"/>
        <path class="cls-28" d="M84.45,358h477.34c4.72,0,8.54-3.82,8.54-8.54H75.91c0,4.72,3.82,8.54,8.54,8.54Z"/>
      </g>
      <g>
        <circle class="cls-34" cx="45.71" cy="220.24" r="28.45"/>
        <g class="cls-40">
          <circle class="cls-47" cx="43" cy="220.02" r="28.08" transform="translate(-180.94 209.6) rotate(-76.28)"/>
          <path class="cls-37" d="M51.5,191.05s-.38,7.61,1.88,11.28,9.48,0,11.48,6.11c2,6.1,.12,13.92,5.58,12.51,5.47-1.41,5.51-10,5.51-10l-10.34-16.47-14.12-3.43Z"/>
          <path class="cls-37" d="M12.89,211.7s3.27,1.25,8.04-2.26c4.77-3.51,2.02-6.1,7.12-10.29,5.1-4.2,4.73-7.26,4.73-7.26,0,0-16.45,6.29-19.89,19.81Z"/>
          <path class="cls-37" d="M59.5,210.89c-5.22-3.74-10.96,.2-13.66-6.62s-7.13-11.99-9.57-5.98c0,0-4.49,6.2-11.75,14.13-7.26,7.93,.82,11.07,4.83,6.75s11.67-8.9,14.48,2.02c2.81,10.93,7.76,18.86,12.51,12s8.37-18.57,3.15-22.3Zm-16.39-1.02c-2.48,.86-11.42,2.89-10.58-.26,0,0,5.33-10.37,7.26-7.93s5.8,7.33,3.32,8.19Z"/>
          <path class="cls-37" d="M44.61,239.45c-5.99-2.77-7.9-10.78-15.24-12.64s-16.09,3.23-16.09,3.23c8.52,32.26,41.51,20.31,44.69,14.57s-7.36-2.39-13.35-5.16Zm-12.06,2.76c-2.26-1.97-4.95-2.77-6.85-3.76-2.49-1.31-2.05-4.99,.68-5.69,1.55-.4,3.39-.42,4.7,1.04,2.69,2.99,4.27,5.69,6.64,7.09,2.36,1.41-.8,5.13-5.16,1.33Z"/>
          <path class="cls-32" d="M25.3,216.73c-.72,4.35-2.74,7.64-4.52,7.34-1.78-.29-2.63-4.06-1.91-8.41,.72-4.35,2.74-7.64,4.52-7.34,1.78,.29,2.63,4.06,1.91,8.41Z"/>
          <path class="cls-36" d="M40.57,192.05c3.84,1.97,7.29,4.86,9.98,8.62,9.03,12.61,6.12,30.15-6.48,39.17-4.25,3.04-9.06,4.73-13.92,5.14,9.06,4.65,20.34,4.21,29.19-2.13,12.61-9.03,15.51-26.57,6.48-39.17-5.98-8.36-15.71-12.44-25.25-11.62Z"/>
        </g>
      </g>
      <g>
        <circle class="cls-34" cx="159.12" cy="69.44" r="63.71"/>
        <g>
          <g>
            <path class="cls-20" d="M214.12,38.3c-6.42-14.75-18.38-27.09-34.45-33.62-13.99-5.67-28.8-6.01-42.22-1.99,11.57,8.55,39.13,26.53,76.67,35.61Z"/>
            <path class="cls-19" d="M217.53,48.37c-.86-3.45-2-6.82-3.42-10.07C176.57,29.23,149.02,11.25,137.45,2.69c-8.56,2.57-16.55,6.92-23.38,12.81,47.07,23.22,86.69,30.62,103.46,32.86Z"/>
            <path class="cls-48" d="M219.15,57.87c-.3-3.22-.84-6.39-1.61-9.51-16.77-2.24-56.4-9.65-103.46-32.86-1.35,1.16-2.65,2.38-3.9,3.65,41.29,31.63,90.43,37.6,108.98,38.72Z"/>
            <path class="cls-19" d="M108.58,106.62c6.22,6.84,14.03,12.44,23.18,16.15,13.38,5.43,27.53,5.98,40.48,2.49-10.85-4.75-32.76-13.07-63.65-18.64Z"/>
            <path class="cls-22" d="M108.58,106.62c30.89,5.57,52.81,13.89,63.65,18.64,5.76-1.55,11.29-3.9,16.4-6.98-17.85-8.31-76.76-35.73-95.79-44.16,2.01,12.07,7.46,23.39,15.73,32.5Z"/>
            <path class="cls-48" d="M92.31,57.39c-.57,5.64-.38,11.26,.53,16.73,19.03,8.43,77.94,35.84,95.79,44.16,7.94-4.78,14.88-11.32,20.18-19.33-14.49-2.95-67.45-14.97-116.51-41.55Z"/>
            <path class="cls-19" d="M208.82,98.94c2.26-3.41,4.22-7.1,5.83-11.02-18.13-6.38-84-30.49-114.88-54.68-1.14,2.1-2.18,4.27-3.1,6.53-2.35,5.78-3.77,11.71-4.36,17.62,49.06,26.58,102.02,38.6,116.51,41.55Z"/>
            <path class="cls-20" d="M214.64,87.92c.03-.08,.07-.16,.1-.24,1.14-2.8,2.04-5.63,2.76-8.48-14.62-3.89-76.86-21.85-112.22-54.42-2.04,2.64-3.89,5.46-5.52,8.46,30.87,24.18,96.75,48.3,114.88,54.68Z"/>
            <path class="cls-22" d="M217.51,79.2c1.79-7.11,2.3-14.31,1.64-21.33-18.55-1.12-67.69-7.09-108.98-38.72-1.73,1.76-3.35,3.64-4.88,5.62,35.36,32.57,97.6,50.53,112.22,54.42Z"/>
          </g>
          <path class="cls-24" d="M202.69,20.67c4.24,13.59,3.98,28.68-1.79,42.9-13.23,32.61-50.39,48.32-82.99,35.09-9.07-3.68-16.83-9.22-23.02-15.99,5.48,17.57,18.49,32.64,36.88,40.1,32.61,13.23,69.76-2.48,82.99-35.09,9.55-23.54,4.02-49.44-12.06-67.01Z"/>
          <path class="cls-23" d="M137.48,30.31c-9.1,3.85-17.74,3.95-19.31,.24s4.53-9.84,13.63-13.69c9.1-3.85,17.74-3.95,19.31-.24,1.57,3.71-4.53,9.84-13.63,13.69Z"/>
        </g>
      </g>
      <g>
        <g>
          <path class="cls-54" d="M52.1,39.62c-.02,.1-.04,.2-.05,.3-1.89-1.18-3.89-1.82-5.74-1.85-.38,1.8-.22,3.88,.49,5.99-.09,0-.18-.01-.26-.01-.43,2.01,.25,4.59,1.99,6.78s4.09,3.44,6.15,3.48c.06-.3,.1-.62,.12-.95,1.54,.77,3.12,1.19,4.61,1.22,.31-1.46,.26-3.11-.15-4.8,.33,.06,.67,.1,.99,.11,.43-2.01-.25-4.59-1.99-6.78s-4.09-3.44-6.15-3.48Z"/>
          <path class="cls-25" d="M52.28,41.17c-.02,.07-.03,.15-.04,.23-1.45-.9-2.99-1.4-4.41-1.42-.3,1.38-.17,2.98,.38,4.6-.07,0-.14,0-.2-.01-.33,1.54,.19,3.52,1.53,5.21s3.14,2.64,4.72,2.67c.05-.23,.08-.48,.09-.73,1.19,.59,2.4,.92,3.54,.94,.24-1.12,.2-2.39-.12-3.68,.26,.05,.51,.08,.76,.09,.33-1.54-.19-3.52-1.53-5.21s-3.14-2.64-4.72-2.67Z"/>
          <path class="cls-21" d="M51.13,40.86c-.01,.06-.02,.11-.03,.17-1.08-.67-2.21-1.03-3.26-1.05-.22,1.02-.12,2.21,.28,3.4-.05,0-.1,0-.15,0-.24,1.14,.14,2.61,1.13,3.86s2.33,1.96,3.5,1.98c.04-.17,.06-.35,.07-.54,.88,.44,1.78,.68,2.62,.7,.18-.83,.15-1.77-.09-2.73,.19,.04,.38,.06,.56,.06,.24-1.14-.14-2.61-1.13-3.86s-2.33-1.96-3.5-1.98Z"/>
        </g>
        <path class="cls-51" d="M66.14,21.07L25.77,10.48c-.99-.26-1.87,.44-1.85,1.46l1.12,41.72c.04,1.38,1.63,2.25,2.65,1.45l39.25-31.13c1.02-.81,.53-2.56-.8-2.91Z"/>
        <path class="cls-18" d="M24.47,10.73c-.34,.27-.56,.7-.54,1.21l1.12,41.72c.04,1.38,1.63,2.25,2.65,1.45l19.62-15.56L24.47,10.73Z"/>
        <path class="cls-21" d="M39.24,40.2s-6.11,6.08-10.16,2.35l-2.58,2.05,16.31,12.17,2.88-2.28s-4.82-7.63-2.45-10.61l-4-3.67Z"/>
        <polygon class="cls-41" points="26.5 44.6 42.81 56.77 44.18 55.68 27.87 43.51 26.5 44.6"/>
        <path class="cls-21" d="M49.81,31.82s7.31-4.56,4.6-9.36l2.58-2.05,8.14,18.65-2.88,2.28s-6.33-6.43-9.78-4.8l-2.67-4.73Z"/>
        <polygon class="cls-41" points="56.99 20.41 65.13 39.06 63.76 40.15 55.62 21.5 56.99 20.41"/>
        <g>
          <path class="cls-43" d="M31.49,19.59s-3.61,8.55,3.2,17.13l7.94,10.02,12.75-10.12-7.94-10.02c-6.81-8.58-15.96-7.02-15.96-7.02Z"/>
          <path class="cls-9" d="M34.69,36.72l7.94,10.02,6.77-5.37c-6.53-8.54-17.92-21.78-17.92-21.78,0,0-3.61,8.55,3.2,17.13Z"/>
          <path class="cls-15" d="M31.49,19.59s-3.61,8.55,3.2,17.13l7.94,10.02,2.08-1.65-7.94-10.02c-6.81-8.58-5.28-15.49-5.28-15.49Z"/>
          <path class="cls-55" d="M31.49,19.59s9.15-1.56,15.96,7.02c6.81,8.58,7.94,10.02,7.94,10.02l-2.08,1.65s-1.14-1.44-7.94-10.02c-6.81-8.58-13.88-8.66-13.88-8.66Z"/>
        </g>
        <g>
          <circle class="cls-2" cx="29.83" cy="37.59" r="2.36"/>
          <circle class="cls-9" cx="29.83" cy="37.59" r=".91"/>
          <path class="cls-33" d="M28.51,39.28c-.81-1.02-.64-2.5,.38-3.31,.62-.49,1.41-.62,2.11-.41-.81-.47-1.86-.43-2.65,.19-1.02,.81-1.19,2.29-.38,3.31,.32,.4,.74,.67,1.2,.8-.25-.14-.48-.33-.67-.57Z"/>
        </g>
        <g>
          <circle class="cls-2" cx="49.41" cy="22.06" r="2.36"/>
          <circle class="cls-9" cx="49.41" cy="22.06" r=".91"/>
          <path class="cls-33" d="M48.09,23.75c-.81-1.02-.64-2.5,.38-3.31,.62-.49,1.41-.62,2.11-.41-.81-.47-1.86-.43-2.65,.19-1.02,.81-1.19,2.29-.38,3.31,.32,.4,.74,.67,1.2,.8-.25-.14-.48-.33-.67-.57Z"/>
        </g>
        <g>
          <circle class="cls-35" cx="42.1" cy="33.2" r="5.13"/>
          <circle class="cls-18" cx="41.98" cy="32.57" r="5.13"/>
          <circle class="cls-21" cx="41.98" cy="32.57" r="3.8"/>
          <path class="cls-14" d="M39.57,34.74c-.89-1.47-.67-3.4,.53-4.62,.87-.89,2.03-1.25,3.14-1.13-1.32-.46-2.86-.19-3.96,.91-1.22,1.22-1.46,3.17-.56,4.65,.66,1.07,1.72,1.69,2.84,1.82-.8-.28-1.51-.82-2-1.62Z"/>
        </g>
        <path class="cls-6" d="M44.96,30.21c-.53-.67-1.23-1.1-2-1.31l-.86,7.47c.79-.02,1.58-.29,2.24-.82,.14-.11,.27-.24,.4-.37l.52-4.53c-.09-.15-.19-.31-.3-.45Z"/>
        <path class="cls-6" d="M38.95,34.87l.6-5.23c-.29,.24-.53,.51-.73,.8l-.4,3.47c.13,.33,.3,.65,.53,.95Z"/>
        <path class="cls-6" d="M40.83,36.2l.86-7.42c-.45,.03-.9,.15-1.32,.35l-.74,6.43c.37,.29,.77,.51,1.2,.64Z"/>
      </g>
      <g>
        <g>
          <path class="cls-54" d="M91.31,164.52c-.02,.1-.04,.2-.06,.3-1.87-1.27-3.87-2-5.74-2.1-.46,1.81-.37,3.92,.26,6.08-.09,0-.18-.02-.27-.03-.51,2.02,.07,4.65,1.74,6.94s4.01,3.64,6.09,3.77c.08-.31,.13-.63,.15-.96,1.53,.84,3.12,1.33,4.62,1.42,.37-1.47,.38-3.13,.04-4.86,.34,.08,.67,.13,1,.15,.51-2.02-.07-4.65-1.74-6.94s-4.01-3.64-6.09-3.77Z"/>
          <path class="cls-25" d="M91.43,166.1c-.02,.08-.03,.15-.05,.23-1.44-.97-2.97-1.53-4.41-1.62-.35,1.39-.29,3.01,.2,4.67-.07,0-.14-.02-.2-.02-.39,1.55,.05,3.57,1.34,5.33s3.08,2.8,4.67,2.89c.06-.23,.1-.48,.12-.73,1.18,.65,2.39,1.02,3.55,1.09,.29-1.13,.29-2.41,.03-3.73,.26,.06,.51,.1,.77,.12,.39-1.55-.05-3.57-1.34-5.33s-3.08-2.8-4.68-2.89Z"/>
          <path class="cls-21" d="M90.27,165.74c-.01,.06-.03,.11-.04,.17-1.06-.72-2.2-1.13-3.26-1.2-.26,1.03-.21,2.23,.15,3.46-.05,0-.1-.01-.15-.01-.29,1.15,.04,2.65,.99,3.95s2.28,2.07,3.46,2.14c.04-.17,.07-.36,.09-.54,.87,.48,1.77,.76,2.63,.81,.21-.83,.22-1.78,.02-2.77,.19,.04,.38,.08,.57,.09,.29-1.15-.04-2.65-.99-3.95s-2.28-2.07-3.46-2.14Z"/>
        </g>
        <g>
          <path class="cls-43" d="M45.24,107.16s-7.53,16.08,4.84,32.99l19.85,27.14,25.14-18.39s-7.48-10.22-19.85-27.14c-12.37-16.91-29.98-14.61-29.98-14.61Z"/>
          <path class="cls-9" d="M50.07,140.15l19.85,27.14,13.35-9.76c-11.84-16.81-38.03-50.36-38.03-50.36,0,0-7.53,16.08,4.84,32.99Z"/>
          <path class="cls-15" d="M45.24,107.16s-7.53,16.08,4.84,32.99l19.85,27.14,4.09-2.99s-7.48-10.22-19.85-27.14c-12.37-16.91-8.93-30-8.93-30Z"/>
          <path class="cls-55" d="M45.24,107.16s17.61-2.31,29.98,14.61c12.37,16.91,19.85,27.14,19.85,27.14l-4.09,2.99s-7.48-10.22-19.85-27.14c-12.37-16.91-25.88-17.6-25.88-17.6Z"/>
        </g>
        <path class="cls-16" d="M45.24,107.16s-3.26,6.96-1.97,16.53c4.04,.48,8.26-.5,11.8-3.09s5.76-6.31,6.52-10.31c-8.73-4.13-16.35-3.13-16.35-3.13Z"/>
        <g>
          <circle class="cls-18" cx="68.2" cy="139.4" r="8.03"/>
          <circle class="cls-15" cx="68.2" cy="139.4" r="5.95"/>
          <path class="cls-14" d="M64.29,142.63c-1.31-2.35-.85-5.36,1.11-7.2,1.42-1.33,3.25-1.83,4.98-1.57-2.04-.8-4.46-.47-6.24,1.18-1.99,1.84-2.47,4.87-1.16,7.23,.96,1.72,2.59,2.75,4.34,3.01-1.23-.48-2.31-1.37-3.03-2.65Z"/>
        </g>
        <polygon class="cls-15" points="96.85 164.54 84.28 173.74 69.92 167.28 95.06 148.9 96.85 164.54"/>
        <polygon class="cls-45" points="69.92 167.28 84.28 173.74 88.34 170.77 73.97 164.32 69.92 167.28"/>
        <polygon class="cls-43" points="95.04 148.91 96.84 164.55 92.79 167.52 90.99 151.87 95.04 148.91"/>
        <g>
          <g>
            <path class="cls-54" d="M73.56,178.14c-.02,.06-.03,.13-.05,.19-1.19-.77-2.47-1.19-3.68-1.23-.33,1.16-.32,2.5,.05,3.86-.06,0-.11,0-.17-.01-.37,1.3-.05,2.96,1,4.39s2.53,2.24,3.88,2.28c.06-.2,.09-.4,.12-.61,.98,.51,2,.79,2.97,.81,.27-.94,.31-2,.12-3.1,.22,.04,.43,.07,.64,.08,.37-1.3,.05-2.96-1-4.39s-2.53-2.24-3.88-2.28Z"/>
            <path class="cls-25" d="M73.61,179.14s-.03,.1-.04,.15c-.91-.59-1.9-.92-2.83-.94-.26,.89-.24,1.92,.04,2.97-.04,0-.09,0-.13,0-.29,.99-.03,2.27,.77,3.37s1.94,1.72,2.98,1.75c.04-.15,.07-.31,.09-.47,.75,.39,1.53,.6,2.28,.63,.21-.72,.24-1.54,.09-2.38,.17,.03,.33,.05,.49,.06,.29-.99,.03-2.27-.77-3.37s-1.94-1.72-2.98-1.75Z"/>
            <path class="cls-21" d="M72.87,178.93s-.02,.07-.03,.11c-.68-.44-1.4-.68-2.09-.7-.19,.66-.18,1.42,.03,2.2-.03,0-.07,0-.1,0-.21,.74-.03,1.68,.57,2.49s1.44,1.27,2.21,1.3c.03-.11,.05-.23,.07-.35,.56,.29,1.13,.45,1.69,.46,.15-.53,.18-1.14,.07-1.76,.12,.02,.25,.04,.37,.04,.21-.74,.03-1.68-.57-2.49s-1.44-1.27-2.21-1.3Z"/>
          </g>
          <rect class="cls-15" x="65.07" y="171.38" width="8.34" height="9.76" transform="translate(-90.7 74.86) rotate(-36.18)"/>
          <rect class="cls-45" x="65.54" y="172.84" width="3.4" height="9.76" transform="translate(-91.95 73.97) rotate(-36.18)"/>
          <path class="cls-44" d="M58.77,151.72c-4.06,9.81-3.14,23.76,6.54,33.68l5.74-25.16-10.09-13.8-2.18,5.28Z"/>
          <path class="cls-18" d="M65.31,185.4l8.73-21.07-10.09-13.8-2.18,5.28c-4.06,9.81-2.72,21.03,3.55,29.6h0Z"/>
          <path class="cls-15" d="M65.63,161.89c-.35,.05-.64,.29-.75,.62-.51,1.47-1.07,3.92-.81,7.27,.06,.83,.37,1.63,.88,2.33l3.75,5.12,.21-.51-3.58-4.89c-.46-.63-.73-1.35-.79-2.08-.25-3.27,.29-5.66,.78-7.08,.06-.17,.2-.28,.37-.31,.18-.03,.35,.04,.46,.19l5.5,7.52,.21-.51-5.33-7.29c-.21-.29-.56-.43-.91-.38Z"/>
        </g>
        <g>
          <g>
            <path class="cls-54" d="M104.31,155.65c.07,0,.13,0,.2,.01-.37-1.37-.39-2.72-.05-3.88,1.21,.03,2.48,.46,3.67,1.22,.01-.06,.03-.11,.04-.17,1.35,.04,2.84,.85,3.88,2.28s1.37,3.09,1,4.39c-.2,0-.41-.03-.62-.07,.19,1.09,.15,2.14-.12,3.08-.98-.03-2-.31-2.99-.82-.02,.22-.06,.43-.12,.64-1.35-.04-2.84-.85-3.88-2.28s-1.37-3.09-1-4.39Z"/>
            <path class="cls-25" d="M105.25,155.99c.05,0,.1,0,.15,0-.29-1.05-.3-2.09-.04-2.98,.93,.03,1.91,.35,2.82,.94,.01-.04,.02-.09,.03-.13,1.03,.03,2.18,.66,2.98,1.75s1.05,2.37,.77,3.37c-.16,0-.32-.02-.48-.06,.14,.83,.11,1.64-.09,2.36-.75-.02-1.54-.24-2.29-.63-.02,.17-.05,.33-.09,.49-1.03-.03-2.18-.66-2.98-1.75s-1.05-2.37-.77-3.37Z"/>
            <path class="cls-21" d="M105.27,155.23s.07,0,.11,0c-.21-.78-.22-1.54-.03-2.21,.69,.02,1.41,.26,2.09,.69,0-.03,.01-.06,.02-.09,.77,.02,1.61,.49,2.21,1.3s.78,1.76,.57,2.49c-.12,0-.23-.02-.35-.04,.11,.62,.08,1.22-.07,1.75-.56-.02-1.14-.18-1.7-.47-.01,.12-.04,.25-.07,.36-.77-.02-1.61-.49-2.21-1.3s-.78-1.76-.57-2.49Z"/>
          </g>
          <rect class="cls-15" x="99.66" y="146.08" width="8.34" height="9.76" transform="translate(276.76 211.51) rotate(143.82)"/>
          <rect class="cls-45" x="104.13" y="144.62" width="3.4" height="9.76" transform="translate(279.5 207.69) rotate(143.82)"/>
          <path class="cls-44" d="M83.62,133.55c10.58-.9,23.59,4.21,30.12,16.44l-25.71-2.15-10.09-13.8,5.69-.48Z"/>
          <path class="cls-18" d="M113.73,149.99l-22.73,1.93-10.09-13.8,5.69-.48c10.58-.9,20.86,3.78,27.13,12.35h0Z"/>
          <path class="cls-15" d="M91.22,143.17c.15-.32,.47-.52,.82-.53,1.55-.04,4.06,.17,7.18,1.43,.77,.31,1.44,.84,1.95,1.54l3.75,5.12-.55,.05-3.58-4.89c-.46-.63-1.06-1.1-1.75-1.38-3.04-1.23-5.48-1.44-6.99-1.4-.18,0-.33,.1-.41,.26-.08,.16-.06,.35,.04,.49l5.5,7.52-.55,.05-5.33-7.29c-.21-.29-.24-.66-.09-.98Z"/>
        </g>
      </g>
      <g>
        <g>
          <g>
            <path class="cls-54" d="M288.4,99.21c.11,.08,.23,.17,.34,.26,.51-3.31,1.63-6.16,3.22-8.21,2.11,1.49,4.01,3.88,5.46,6.88,.07-.1,.14-.21,.22-.3,2.36,1.66,4.3,5.13,4.93,9.35s-.21,8.1-1.98,10.38c-.36-.25-.7-.55-1.04-.88-.6,2.5-1.57,4.67-2.85,6.31-1.71-1.21-3.29-3.01-4.59-5.25-.23,.43-.48,.84-.76,1.19-2.36-1.66-4.3-5.13-4.93-9.35s.21-8.1,1.98-10.38Z"/>
            <path class="cls-25" d="M289.77,101.05c.09,.06,.17,.13,.26,.2,.39-2.54,1.25-4.73,2.48-6.31,1.62,1.14,3.08,2.98,4.19,5.28,.05-.08,.11-.16,.17-.23,1.81,1.28,3.3,3.94,3.78,7.18s-.16,6.22-1.52,7.97c-.27-.19-.54-.42-.8-.68-.46,1.92-1.21,3.58-2.19,4.85-1.32-.93-2.52-2.31-3.53-4.03-.18,.33-.37,.64-.58,.92-1.81-1.28-3.3-3.94-3.78-7.18s.16-6.22,1.52-7.97Z"/>
            <path class="cls-21" d="M290.47,99.47c.06,.05,.13,.1,.19,.15,.29-1.88,.93-3.51,1.83-4.67,1.2,.85,2.28,2.21,3.11,3.91,.04-.06,.08-.12,.12-.17,1.34,.95,2.45,2.92,2.8,5.32s-.12,4.61-1.13,5.91c-.2-.14-.4-.31-.59-.5-.34,1.42-.89,2.65-1.62,3.59-.97-.69-1.87-1.71-2.61-2.99-.13,.25-.27,.48-.43,.68-1.34-.95-2.45-2.92-2.8-5.32s.12-4.61,1.13-5.91Z"/>
          </g>
          <g>
            <path class="cls-12" d="M274.05,74.94c-7.31,14.84-4.52,36.07,7.37,50.53l.2-1.03,6.84-31.13-14.41-18.37Z"/>
            <path class="cls-39" d="M276.31,92.07c-4.93,10.01-3.73,21.96,3.09,30.78l2.01,2.6,4.61-21-9.72-12.39Z"/>
          </g>
          <g>
            <path class="cls-12" d="M304.21,70.44c11.33,12.06,14.85,33.18,7.7,50.48l-.49-.92-15.63-27.78,8.42-21.78Z"/>
            <path class="cls-39" d="M307.05,87.49c7.64,8.13,9.98,19.91,6.02,30.35l-1.17,3.08-10.54-18.74,5.68-14.69Z"/>
          </g>
          <g>
            <g>
              <path class="cls-51" d="M282.69,29.29s-14.14,10.74-11.05,31.46l4.96,33.25,30.8-4.59-4.96-33.25c-3.09-20.72-19.75-26.86-19.75-26.86Z"/>
              <path class="cls-18" d="M271.64,60.75l4.96,33.25,16.36-2.44c-2.67-20.39-10.27-62.27-10.27-62.27,0,0-14.14,10.74-11.05,31.46Z"/>
              <path class="cls-4" d="M282.69,29.29s-14.14,10.74-11.05,31.46l4.96,33.25,5.01-.75-4.96-33.25c-3.09-20.72,6.04-30.71,6.04-30.71Z"/>
              <path class="cls-10" d="M282.69,29.29s16.66,6.14,19.75,26.86c3.09,20.72,4.96,33.25,4.96,33.25l-5.01,.75s-1.87-12.53-4.96-33.25c-3.09-20.72-14.74-27.61-14.74-27.61Z"/>
            </g>
            <polygon class="cls-11" points="301.72 104.1 286.32 106.39 276.6 94 307.41 89.41 301.72 104.1"/>
            <polygon class="cls-4" points="276.6 94 286.32 106.39 291.29 105.65 281.57 93.26 276.6 94"/>
            <polygon class="cls-51" points="307.39 89.41 301.71 104.1 296.74 104.84 302.42 90.15 307.39 89.41"/>
          </g>
          <g>
            <rect class="cls-4" x="274" y="68.74" width="8.87" height="15.03" transform="translate(-8.2 41.91) rotate(-8.48)"/>
            <rect class="cls-53" x="280.89" y="68.23" width="1.94" height="15.03" transform="translate(-8.09 42.41) rotate(-8.48)"/>
            <rect class="cls-53" x="273.04" y="68.81" width="8.87" height="1.93" transform="translate(-7.26 41.7) rotate(-8.48)"/>
            <rect class="cls-53" x="274.97" y="81.77" width="8.87" height="1.93" transform="translate(-9.15 42.13) rotate(-8.48)"/>
          </g>
          <g>
            <rect class="cls-4" x="296.04" y="65.45" width="8.87" height="15.03" transform="translate(608.42 100.81) rotate(171.52)"/>
            <rect class="cls-53" x="296.07" y="65.96" width="1.94" height="15.03" transform="translate(601.68 102.33) rotate(171.52)"/>
            <rect class="cls-53" x="295.07" y="65.52" width="8.87" height="1.93" transform="translate(605.54 88.07) rotate(171.52)"/>
            <rect class="cls-53" x="297" y="78.48" width="8.87" height="1.93" transform="translate(611.29 113.55) rotate(171.52)"/>
          </g>
        </g>
        <path class="cls-5" d="M284.91,40.4s-7.94,3.36-6.85,10.65c0,0,4.08-3.43,7.84-3.99s8.67,1.53,8.67,1.53c-1.09-7.29-9.66-8.19-9.66-8.19Z"/>
      </g>
    </g>
  </g>
</svg>