<?xml version="1.0" encoding="UTF-8"?>
<svg id="Layer_1" data-name="Layer 1" xmlns="http://www.w3.org/2000/svg" xmlns:xlink="http://www.w3.org/1999/xlink" viewBox="0 0 477.94 430.16">
  <defs>
    <style>
      .cls-1 {
        fill: url(#linear-gradient);
      }
    </style>
    <linearGradient id="linear-gradient" x1="0" y1="215.08" x2="477.94" y2="215.08" gradientUnits="userSpaceOnUse">
      <stop offset="0" stop-color="#8200ff"/>
      <stop offset="1" stop-color="#de00ff"/>
    </linearGradient>
  </defs>
  <path class="cls-1" d="M477.94,277.66c-2.81,7.43-6.72,13.84-14.43,17.3-1.01,.45-1.4,3.17-1.41,4.84-.08,34.85-.03,69.7-.07,104.55-.02,12.76-6.47,21.86-17.75,24.85-2.95,.78-6.14,.92-9.23,.92-130.67,.04-261.34,.04-392,.03-17.64,0-27.11-9.49-27.11-27.07-.01-34.23-.04-68.46,.06-102.69,0-3.22-.53-5.17-3.77-6.91C3.99,289.07,.14,281.63,.06,272.37c-.11-13.54-.03-27.07-.03-40.61,0-44.81-.02-89.62,.02-134.43,.01-12.4,6.58-21.72,17.48-24.58,3.26-.86,6.76-1.05,10.15-1.06,31.27-.08,62.53-.05,93.8-.05,1.83,0,3.65,0,6.02,0,0-9.84-.47-19.18,.16-28.44,.45-6.71,1.15-13.86,3.83-19.89C137.87,8.98,149.6,.53,165.45,.4c48.84-.41,97.69-.66,146.52,.03,23.05,.32,38.09,17.55,38.48,41.3,.13,8.09,.02,16.18,.03,24.27,0,1.68,0,3.36,0,5.66h5.94c30.18,0,60.36,.38,90.53-.16,15.08-.27,26.05,4.36,31,19.45v186.72Zm-207.19,28.26c2.11-.13,3.5-.12,4.87-.31,21.24-2.92,42.48-5.87,63.72-8.8,37.25-5.14,74.49-10.32,111.75-15.38,8.9-1.21,10.94-3.26,10.94-12.24,0-56.62,0-113.25,0-169.87,0-1.4,.09-2.82-.13-4.19-.66-4.12-2.89-6.83-7.25-7.26-1.85-.19-3.72-.23-5.58-.23-139.98,0-279.95,0-419.93,0-1.09,0-2.18-.02-3.27,.01-7.05,.23-9.93,3.03-9.93,10.03-.03,57.71-.03,115.42,0,173.14,0,6.67,2.31,9.43,8.84,10.35,16.46,2.32,32.94,4.51,49.41,6.78,35.09,4.83,70.19,9.69,105.28,14.52,9.05,1.25,18.1,2.44,27.76,3.73,0-4.43-.12-8.29,.02-12.14,.47-12.6,9.98-22.38,22.52-22.95,6.05-.28,12.13-.27,18.19-.02,12.81,.54,22.33,10.33,22.78,23.19,.13,3.71,.02,7.42,.02,11.66Zm-238.92-7.76v5.01c0,33.29,0,66.58,0,99.87,0,8.57,2.55,11.15,11.09,11.15,130.65,0,261.3,0,391.94,0,8.81,0,11.25-2.51,11.26-11.46,0-33.13,0-66.27,0-99.4v-5.18c-58.85,8.13-116.98,16.15-175.42,24.22,0,7.47,.22,14.46-.05,21.43-.47,12.2-10.3,21.96-22.51,22.5-5.12,.22-10.26,.13-15.39,.09-15.75-.1-25.48-9.88-25.58-25.7-.04-6.03,0-12.06,0-18.35-58.58-8.09-116.72-16.11-175.35-24.2ZM334.22,71.4c0-11.92,.02-23.26-.03-34.6,0-1.06-.31-2.14-.61-3.18-3.22-11.43-12.01-17.58-25.38-17.59-38.56-.04-77.12-.02-115.69,0-8.86,0-17.73-.16-26.58,.18-10.77,.42-20.6,7.89-21.64,18.4-1.2,12.09-.28,24.39-.28,36.78h15.38c0-1.78,0-3.29,0-4.8,0-8.24-.05-16.49,.02-24.73,.07-7.19,2.72-9.89,9.87-9.9,46.49-.03,92.98-.03,139.48,0,7.09,0,9.72,2.75,9.78,9.99,.07,8.24,.02,16.48,.02,24.73,0,1.5,0,3.01,0,4.72h15.66Zm-158.7-.08h126.84v-23.04h-126.84v23.04Zm79.35,247.43c0-7.77,.11-15.55-.04-23.32-.1-5.37-3.1-8.33-8.44-8.49-4.97-.14-9.95-.15-14.92,0-5.3,.17-8.31,3.17-8.34,8.58-.11,15.39-.1,30.78,0,46.17,.04,5.64,3.08,8.61,8.68,8.78,4.35,.13,8.7,.06,13.06,.03,7.11-.06,9.95-2.84,10.01-9.84,.05-7.31,.01-14.61,0-21.92Z"/>
</svg>